# OBJ written from F:\vr controller models\controllers 3\oculus_quest_pro_controller_left\obj\oculus_quest_pro_controller_right_button_a.obj
# Units	meters

o oculus_quest_pro_controller_right_button_a
v -0.00660052 0.00852958 0.0541711
v -0.00628726 0.00846487 0.0540776
v -0.00688594 0.00862469 0.0543145
v -0.00595777 0.00843367 0.0540386
v -0.00562491 0.00843651 0.0540545
v -0.00530152 0.00847396 0.0541257
v -0.00499973 0.00854392 0.0542486
v -0.00473166 0.00864432 0.0544192
v -0.00450689 0.00877075 0.0546303
v -0.00433497 0.00891881 0.0548744
v -0.00422144 0.00908246 0.0551416
v -0.00417183 0.00925565 0.0554219
v -0.00418682 0.0094316 0.0557046
v -0.00426707 0.00960354 0.0559785
v -0.0044083 0.00976501 0.0562335
v -0.00460621 0.00990954 0.0564594
v -0.00485218 0.010032 0.056648
v -0.0051376 0.0101271 0.0567913
v -0.00545086 0.0101918 0.0568848
v -0.00578035 0.010223 0.0569238
v -0.00611321 0.0102201 0.056908
v -0.0064366 0.0101827 0.0568367
v -0.00673839 0.0101127 0.0567139
v -0.00700645 0.0100123 0.0565432
v -0.00723122 0.00988589 0.0563322
v -0.00740314 0.00973783 0.0560881
v -0.00751668 0.00957418 0.0558209
v -0.00756629 0.00940099 0.0555405
v -0.0075513 0.00922504 0.0552579
v -0.00747104 0.00905309 0.054984
v -0.00732981 0.00889162 0.0547289
v -0.00713191 0.00874709 0.0545031
v -0.00741138 0.00749703 0.0528181
v -0.00675221 0.00736087 0.0526214
v -0.00801197 0.00769715 0.0531197
v -0.00792181 0.00672409 0.0520493
v -0.00871976 0.00698998 0.0524501
v -0.00803248 0.00644769 0.0519561
v -0.0088723 0.00672753 0.0523778
v -0.00704604 0.00654319 0.051788
v -0.00711075 0.0062573 0.051681
v -0.0060589 0.00729521 0.0525393
v -0.00535849 0.00730119 0.0525727
v -0.0061249 0.00645595 0.0516789
v -0.00614128 0.00616548 0.0515662
v -0.00519433 0.0064639 0.0517233
v -0.00516187 0.00617385 0.0516129
v -0.00467801 0.00737998 0.0527226
v -0.00404298 0.0075272 0.052981
v -0.00429023 0.00656859 0.0519224
v -0.00421033 0.00628403 0.0518225
v -0.00344653 0.00676418 0.0522658
v -0.00332235 0.00648988 0.0521839
v -0.00347892 0.00773845 0.0533401
v -0.00300596 0.00800448 0.0537843
v -0.00269712 0.00704485 0.0527429
v -0.00253362 0.00678528 0.0526861
v -0.00206873 0.00739831 0.053333
v -0.00187225 0.00715729 0.0533071
v -0.0026442 0.00831604 0.0542979
v -0.0024053 0.00866039 0.0548601
v -0.0015881 0.00781224 0.0540154
v -0.0013664 0.00759294 0.0540253
v -0.00127069 0.00826974 0.0547623
v -0.00103234 0.00807445 0.0548115
v -0.00230091 0.00902481 0.05545
v -0.00233245 0.00939505 0.0560447
v -0.001132 0.00875392 0.0555462
v -0.000886369 0.00858403 0.0556364
v -0.00117391 0.00924582 0.0563363
v -0.000930471 0.00910175 0.056468
v -0.00250133 0.00975686 0.0566212
v -0.0027985 0.0100966 0.0571578
v -0.00139828 0.00972653 0.0571022
v -0.00116662 0.00960768 0.0572741
v -0.00179311 0.0101779 0.0578151
v -0.00158216 0.0100828 0.0580244
v -0.00321493 0.0104007 0.057633
v -0.0037325 0.0106583 0.0580299
v -0.00234638 0.010582 0.0584465
v -0.00216447 0.010508 0.058689
v -0.00303403 0.0109242 0.0589738
v -0.0028882 0.0108682 0.0592439
v -0.00433309 0.0108584 0.0583315
v -0.00499226 0.0109946 0.0585283
v -0.00383197 0.0111901 0.0593746
v -0.00372802 0.011148 0.0596657
v -0.00470775 0.011371 0.0596359
v -0.00464976 0.0113384 0.0599408
v -0.00568557 0.0110603 0.0586104
v -0.00638598 0.0110543 0.0585769
v -0.00562888 0.0114582 0.059745
v -0.00561923 0.0114303 0.0600556
v -0.00655946 0.0114503 0.0597006
v -0.00659864 0.0114219 0.0600088
v -0.00706646 0.0109755 0.058427
v -0.00770149 0.0108283 0.0581686
v -0.00746355 0.0113456 0.0595014
v -0.00755018 0.0113117 0.0597992
v -0.00830726 0.01115 0.059158
v -0.00843816 0.0111059 0.0594378
v -0.00826555 0.010617 0.0578095
v -0.00873852 0.010351 0.0573654
v -0.00905667 0.0108693 0.058681
v -0.00922689 0.0108105 0.0589357
v -0.00968505 0.0105159 0.0580909
v -0.00988825 0.0104385 0.0583147
v -0.00910028 0.0100394 0.0568518
v -0.00933918 0.00969507 0.0562895
v -0.0101657 0.0101019 0.0574085
v -0.0103941 0.0100028 0.0575965
v -0.0104831 0.00964444 0.0566615
v -0.0107282 0.00952128 0.0568103
v -0.00944356 0.00933065 0.0556996
v -0.00941202 0.00896041 0.0551049
v -0.0106218 0.00916026 0.0558777
v -0.0108741 0.0090117 0.0559854
v -0.0105799 0.00866836 0.0550876
v -0.01083 0.00849398 0.0551538
v -0.00924314 0.0085986 0.0545284
v -0.00894597 0.00825883 0.0539918
v -0.0103555 0.00818765 0.0543217
v -0.0105939 0.00798805 0.0543477
v -0.00996068 0.00773623 0.0536087
v -0.0101783 0.00751295 0.0535973
v -0.00852954 0.00795472 0.0535166
v -0.0094074 0.00733218 0.0529774
v -0.00959603 0.00708769 0.0529328
v -0.00963982 0.00501305 0.0542221
v -0.0102221 0.0054383 0.0548866
v -0.00891609 0.00465289 0.0536671
v -0.0106377 0.00591341 0.055637
v -0.0108738 0.00641934 0.0564431
v -0.0109179 0.00693706 0.0572747
v -0.010772 0.00744664 0.0580996
v -0.0104379 0.00792815 0.0588858
v -0.00993204 0.00836381 0.059604
v -0.00927068 0.00873581 0.060225
v -0.00848194 0.00903121 0.0607271
v -0.00759396 0.00923707 0.0610885
v -0.00664243 0.00934724 0.0612981
v -0.00566302 0.00935561 0.0613449
v -0.00469354 0.00926379 0.0612301
v -0.00377181 0.0090734 0.060955
v -0.00293199 0.00879356 0.0605332
v -0.00220826 0.0084334 0.0599783
v -0.00162595 0.00800814 0.0593137
v -0.0012104 0.00753304 0.0585634
v -0.000974258 0.00702711 0.0577573
v -0.000930157 0.00650939 0.0569257
v -0.00107612 0.00599981 0.0561008
v -0.00141018 0.0055183 0.0553146
v -0.00191604 0.00508264 0.0545964
v -0.0025774 0.00471064 0.0539754
v -0.00336614 0.00441524 0.0534732
v -0.00425412 0.00420938 0.0531118
v -0.00520566 0.00409921 0.0529022
v -0.00618506 0.00409084 0.0528555
v -0.00715454 0.00418266 0.0529703
v -0.00807627 0.00437305 0.0532454
v -0.0058687 0.00934541 0.0554706
vn -0.0382878 0.820933 -0.569739
vn -0.0470647 0.827368 -0.559684
vn 0.0179231 0.849211 -0.527749
vn -0.0273331 0.815503 -0.578107
vn -0.0533706 0.834542 -0.548354
vn -0.0569121 0.842192 -0.536165
vn -0.0576064 0.850015 -0.523599
vn -0.0553732 0.857713 -0.511138
vn -0.0503522 0.864993 -0.499251
vn -0.0426855 0.871569 -0.488412
vn -0.0327126 0.877199 -0.479011
vn -0.0207754 0.881653 -0.471442
vn -0.0073676 0.884776 -0.465958
vn 0.00701935 0.886428 -0.462814
vn 0.0218175 0.886569 -0.462082
vn 0.0364638 0.885167 -0.463842
vn 0.0504032 0.882303 -0.467975
vn 0.0630799 0.878062 -0.47437
vn 0.0740351 0.87263 -0.482738
vn 0.0828115 0.866197 -0.492794
vn 0.0891172 0.859021 -0.504124
vn 0.0926582 0.851374 -0.516311
vn 0.0933519 0.843549 -0.528876
vn 0.091118 0.835853 -0.541339
vn 0.0860964 0.82857 -0.553226
vn 0.0784283 0.821996 -0.564068
vn 0.0684542 0.816363 -0.573468
vn 0.0565156 0.811911 -0.581039
vn 0.0431119 0.808786 -0.58652
vn 0.0287279 0.807137 -0.589664
vn 0.0139264 0.806995 -0.590394
vn -0.000717817 0.808398 -0.588636
vn -0.0146562 0.811261 -0.584501
vn -0.0205322 0.759937 -0.649672
vn -0.0492009 0.765823 -0.641167
vn 0.168359 0.816407 -0.552391
vn 0.15803 0.801426 -0.576839
vn 0.0559451 0.917838 -0.392993
vn 0.0846139 0.911945 -0.401494
vn -0.132946 0.861369 -0.490274
vn -0.122618 0.876342 -0.465822
vn -0.168671 0.67874 -0.714746
vn -0.0752747 0.77455 -0.628018
vn -0.116593 0.661304 -0.741002
vn 0.265804 0.705414 -0.657068
vn 0.142258 0.787905 -0.599139
vn 0.297302 0.732413 -0.612522
vn 0.202747 0.935742 -0.288586
vn 0.110687 0.903225 -0.414648
vn 0.150669 0.953148 -0.262312
vn -0.231728 0.909067 -0.346264
vn -0.106847 0.889869 -0.443527
vn -0.263225 0.88204 -0.390792
vn -0.430315 -0.469894 -0.770733
vn -0.598117 -0.413866 -0.686273
vn -0.598117 -0.413866 -0.686273
vn 0.989473 0.0607473 0.131355
vn 0.942444 0.161914 0.292547
vn -0.801209 0.327955 0.500509
vn -0.902501 0.240912 0.357006
vn 0.0400309 0.757344 -0.651788
vn 0.0696183 0.760735 -0.645318
vn 0.171524 0.848331 -0.500913
vn 0.16424 0.864059 -0.475844
vn -0.00461813 0.920431 -0.390877
vn -0.0342083 0.917033 -0.397342
vn -0.136113 0.829444 -0.541752
vn -0.12883 0.813709 -0.566817
vn 0.175798 0.663991 -0.726781
vn 0.12072 0.651143 -0.749293
vn 0.0971925 0.767165 -0.634044
vn 0.283807 0.886993 -0.364276
vn 0.309704 0.857508 -0.410809
vn 0.151273 0.878818 -0.452544
vn -0.141725 0.950491 -0.27655
vn -0.0866477 0.96331 -0.25402
vn -0.0617846 0.91061 -0.408623
vn -0.275631 0.756945 -0.592505
vn -0.249735 0.727488 -0.639057
vn -0.115861 0.798957 -0.590122
vn 0.801208 -0.327956 -0.50051
vn 0.669127 -0.402396 -0.624778
vn 0.801208 -0.327956 -0.50051
vn 0.0521883 0.526318 0.848685
vn -0.143605 0.524546 0.839184
vn -0.742934 -0.341931 -0.575441
vn -0.742934 -0.341931 -0.575441
vn 0.0616264 0.644374 -0.762223
vn 0.324257 0.826102 -0.460882
vn -0.0275504 0.970107 -0.241109
vn -0.290183 0.788379 -0.54245
vn 0.511329 -0.461372 -0.725037
vn 0.245977 0.507864 0.825572
vn -0.859198 -0.256858 -0.442497
vn 0.121743 0.776318 -0.618473
vn 0.13322 0.892049 -0.431858
vn -0.0863342 0.901449 -0.424189
vn -0.0978083 0.785719 -0.610802
vn 0.224829 0.682266 -0.695676
vn 0.247748 0.913411 -0.322959
vn -0.190754 0.932187 -0.307638
vn -0.213676 0.701042 -0.680355
vn 0.969109 -0.144612 -0.199786
vn 0.969109 -0.144612 -0.199786
vn 0.9025 -0.240913 -0.357008
vn 0.9025 -0.240913 -0.357008
vn -0.333882 0.502616 0.797434
vn -0.511328 0.46137 0.725039
vn 0.998476 -0.0427542 -0.0348861
vn -0.669126 0.402395 0.624779
vn -0.669126 0.402394 0.624779
vn -0.345063 0.430137 -0.834215
vn -0.244266 0.396391 -0.884991
vn 0.100617 0.363629 -0.926094
vn 0.214968 0.376723 -0.901038
vn 0.495754 0.481751 -0.722596
vn 0.556681 0.533989 -0.636366
vn 0.608878 0.715312 -0.342924
vn 0.580685 0.776067 -0.246019
vn 0.373721 0.927493 -0.00948734
vn 0.272924 0.961147 0.0413451
vn -0.0719624 0.993999 0.0823868
vn -0.186319 0.980812 0.0573872
vn -0.467095 0.875873 -0.121112
vn -0.528024 0.823543 -0.207285
vn -0.580216 0.642314 -0.500781
vn -0.55203 0.581465 -0.597631
vn -0.0521882 -0.526319 -0.848684
vn -0.245978 -0.507865 -0.825572
vn 0.742934 0.341931 0.575441
vn 0.859198 0.256858 0.442496
vn -0.96911 0.144612 0.199785
vn -0.998476 0.0427544 0.0348862
vn -0.0170357 0.362481 -0.931836
vn 0.000831023 0.643782 -0.765209
vn 0.416435 0.43695 -0.79728
vn 0.614358 0.653072 -0.442788
vn 0.327106 0.793949 -0.51249
vn 0.460788 0.884249 -0.0760145
vn 0.0456889 0.995056 0.0881863
vn 0.033245 0.97067 -0.238105
vn -0.38778 0.920585 -0.0463688
vn -0.585701 0.704461 -0.40086
vn -0.293031 0.820504 -0.490823
vn -0.432135 0.473288 -0.767631
vn 0.00959117 0.75705 -0.653287
vn 0.172953 0.832236 -0.526754
vn 0.025821 0.920718 -0.389373
vn -0.137541 0.845532 -0.515905
vn 0.143607 -0.524547 -0.839183
vn 0.143607 -0.524547 -0.839183
vn 0.598119 0.413865 0.686273
vn 0.598118 0.413865 0.686273
vn -0.989473 -0.060747 -0.131354
vn -0.133473 0.373654 -0.917915
vn -0.0593355 0.649554 -0.757997
vn 0.321569 0.40159 -0.857507
vn 0.596639 0.591919 -0.541898
vn 0.317936 0.76234 -0.563697
vn 0.530596 0.833152 -0.155968
vn 0.16213 0.983975 0.074209
vn 0.0934121 0.964927 -0.245335
vn -0.292916 0.956038 0.0138002
vn -0.567983 0.765707 -0.301808
vn -0.283859 0.852142 -0.439634
vn -0.501942 0.524473 -0.687737
vn 0.333882 -0.502617 -0.797433
vn 0.430316 0.469893 0.770733
vn -0.942443 -0.161914 -0.292547
vt 0.0723869 0.0798142
vt 0.0753316 0.0778561
vt 0.0639017 0.0638966
vt 0.0691195 0.0811677
vt 0.077832 0.0753556
vt 0.0798032 0.0724192
vt 0.0811562 0.0691521
vt 0.081854 0.0656852
vt 0.081854 0.0621489
vt 0.0811724 0.0586789
vt 0.0798188 0.0554113
vt 0.077861 0.0524662
vt 0.075361 0.0499659
vt 0.0724247 0.047995
vt 0.0691574 0.0466421
vt 0.0656901 0.0459445
vt 0.0621537 0.0459445
vt 0.0586837 0.0466258
vt 0.0554164 0.0479787
vt 0.0524716 0.0499368
vt 0.0499713 0.0524378
vt 0.0480001 0.0553741
vt 0.0466472 0.0586413
vt 0.0459492 0.0621077
vt 0.0459492 0.065644
vt 0.046631 0.0691143
vt 0.0479842 0.0723812
vt 0.0499417 0.0753265
vt 0.0524428 0.0778268
vt 0.0553789 0.0797981
vt 0.0586465 0.0811512
vt 0.0621132 0.0818486
vt 0.0656499 0.0818493
vt 0.0601302 0.101755
vt 0.0675885 0.10176
vt 0.026042 0.060123
vt 0.0260374 0.0675805
vt 0.0676749 0.0260352
vt 0.0602169 0.0260325
vt 0.10176 0.0676669
vt 0.101765 0.0602096
vt 0.0786041 0.112555
vt 0.0749081 0.100322
vt 0.0688279 0.114482
vt 0.0152357 0.0785987
vt 0.0274769 0.0748991
vt 0.0133131 0.0688213
vt 0.0492025 0.0152374
vt 0.0528976 0.0274702
vt 0.0589778 0.0133128
vt 0.112561 0.049194
vt 0.100327 0.0528906
vt 0.114487 0.05897
vt 0.920758 0.0877023
vt 0.920758 0.0980476
vt 0.946954 0.0877023
vt 0.946954 0.0980476
vt 0.920758 0.304951
vt 0.946954 0.304951
vt 0.920758 0.294606
vt 0.946954 0.294606
vt 0.946954 0.180809
vt 0.946954 0.170464
vt 0.920758 0.180809
vt 0.920758 0.170464
vt 0.0459294 0.0974297
vt 0.0397346 0.0932762
vt 0.0303679 0.0459229
vt 0.0345218 0.0397293
vt 0.0818752 0.0303597
vt 0.0880689 0.0345146
vt 0.0974391 0.081869
vt 0.0932846 0.0880641
vt 0.024571 0.0960993
vt 0.031614 0.103147
vt 0.0344588 0.0880028
vt 0.0316978 0.0245616
vt 0.0246512 0.0316062
vt 0.0397968 0.0344571
vt 0.103232 0.0316922
vt 0.0961893 0.0246448
vt 0.0933431 0.0397891
vt 0.103151 0.0961793
vt 0.0961113 0.103233
vt 0.0880065 0.0933329
vt 0.920758 0.346332
vt 0.920758 0.356678
vt 0.946954 0.346332
vt 0.946954 0.356678
vt 0.920758 0.232535
vt 0.946954 0.232535
vt 0.920758 0.22219
vt 0.946954 0.22219
vt 0.920758 0.108393
vt 0.946954 0.108393
vt 0.0398844 0.108706
vt 0.0190915 0.0398765
vt 0.087918 0.0190876
vt 0.108708 0.0879095
vt 0.946954 0.367023
vt 0.920758 0.367023
vt 0.946954 0.24288
vt 0.920758 0.24288
vt 0.920758 0.118738
vt 0.946954 0.118738
vt 0.0303288 0.0817911
vt 0.0460067 0.0303251
vt 0.0974704 0.0460013
vt 0.0817985 0.0974666
vt 0.0190504 0.0878048
vt 0.0399962 0.0190468
vt 0.108754 0.0399861
vt 0.0878111 0.108746
vt 0.946954 0.325642
vt 0.920758 0.325642
vt 0.946954 0.335987
vt 0.920758 0.335987
vt 0.946954 0.211845
vt 0.946954 0.2015
vt 0.920758 0.211845
vt 0.920758 0.2015
vt 0.920758 0.315296
vt 0.946954 0.315296
vt 0.946954 0.191154
vt 0.920758 0.191154
vt 0.0795618 0.115725
vt 0.0691516 0.117795
vt 0.038321 0.111624
vt 0.0294988 0.105717
vt 0.0120668 0.0795567
vt 0.01 0.0691443
vt 0.0161732 0.0383127
vt 0.0220811 0.0294915
vt 0.0482446 0.0120679
vt 0.0586545 0.01
vt 0.0894829 0.0161698
vt 0.0983043 0.0220748
vt 0.11573 0.0482364
vt 0.117799 0.0586461
vt 0.111626 0.089474
vt 0.105722 0.0982931
vt 0.946954 0.067012
vt 0.920758 0.067012
vt 0.946954 0.0773575
vt 0.920758 0.0773575
vt 0.920758 0.273916
vt 0.920758 0.284261
vt 0.946954 0.273916
vt 0.946954 0.284261
vt 0.946954 0.160119
vt 0.946954 0.149774
vt 0.920758 0.160119
vt 0.920758 0.149774
vt 0.0481246 0.115696
vt 0.0490947 0.112512
vt 0.0161136 0.0893711
vt 0.0121007 0.0481167
vt 0.015285 0.0490872
vt 0.0384314 0.016109
vt 0.0796826 0.0120863
vt 0.0787131 0.0152702
vt 0.111691 0.0384202
vt 0.115706 0.0796748
vt 0.112522 0.0787044
vt 0.0893755 0.111684
vt 0.0528174 0.100289
vt 0.0275071 0.0528108
vt 0.0749851 0.0275078
vt 0.100293 0.0749787
vt 0.946954 0.0566669
vt 0.920758 0.0566669
vt 0.920758 0.26357
vt 0.946954 0.26357
vt 0.920758 0.139429
vt 0.946954 0.139429
vt 0.0585342 0.117781
vt 0.0588627 0.114487
vt 0.0220091 0.0981968
vt 0.010014 0.0585262
vt 0.0133077 0.0588549
vt 0.0296009 0.0219994
vt 0.0692696 0.0100138
vt 0.0689427 0.0133089
vt 0.105794 0.0295945
vt 0.117788 0.0692633
vt 0.114494 0.0689354
vt 0.0982091 0.105794
vt 0.946954 0.377368
vt 0.920758 0.377368
vt 0.946954 0.387713
vt 0.920758 0.387713
vt 0.946954 0.253226
vt 0.920758 0.253226
vt 0.946954 0.129083
vt 0.920758 0.129083
mtllib oculus_quest_pro_controller_right_button_a.mtl
usemtl oculus_quest_pro_controller_right
g Default
f 32/1/1 31/2/2 161/3/3
f 32/1/1 161/3/3 3/4/4
f 30/5/5 29/6/6 161/3/3
f 30/5/5 161/3/3 31/2/2
f 28/7/7 27/8/8 161/3/3
f 28/7/7 161/3/3 29/6/6
f 26/9/9 25/10/10 161/3/3
f 26/9/9 161/3/3 27/8/8
f 24/11/11 23/12/12 161/3/3
f 24/11/11 161/3/3 25/10/10
f 22/13/13 21/14/14 161/3/3
f 22/13/13 161/3/3 23/12/12
f 20/15/15 19/16/16 161/3/3
f 20/15/15 161/3/3 21/14/14
f 18/17/17 17/18/18 161/3/3
f 18/17/17 161/3/3 19/16/16
f 16/19/19 15/20/20 161/3/3
f 16/19/19 161/3/3 17/18/18
f 14/21/21 13/22/22 161/3/3
f 14/21/21 161/3/3 15/20/20
f 12/23/23 11/24/24 161/3/3
f 12/23/23 161/3/3 13/22/22
f 10/25/25 9/26/26 161/3/3
f 10/25/25 161/3/3 11/24/24
f 8/27/27 7/28/28 161/3/3
f 8/27/27 161/3/3 9/26/26
f 6/29/29 5/30/30 161/3/3
f 6/29/29 161/3/3 7/28/28
f 4/31/31 2/32/32 161/3/3
f 4/31/31 161/3/3 5/30/30
f 1/33/33 3/4/4 161/3/3
f 1/33/33 161/3/3 2/32/32
f 34/34/34 33/35/35 2/32/32
f 1/33/33 2/32/32 33/35/35
f 61/36/36 60/37/37 11/24/24
f 10/25/25 11/24/24 60/37/37
f 85/38/38 84/39/39 19/16/16
f 18/17/17 19/16/16 84/39/39
f 109/40/40 108/41/41 27/8/8
f 26/9/9 27/8/8 108/41/41
f 37/42/42 35/43/43 36/44/44
f 33/35/35 36/44/44 35/43/43
f 58/45/45 55/46/46 62/47/47
f 60/37/37 62/47/47 55/46/46
f 82/48/48 79/49/49 86/50/50
f 84/39/39 86/50/50 79/49/49
f 106/51/51 103/52/52 110/53/53
f 108/41/41 110/53/53 103/52/52
f 160/54/54 131/55/55 38/56/54
f 39/57/56 38/56/54 131/55/55
f 149/58/57 71/59/57 148/60/58
f 75/61/58 148/60/58 71/59/57
f 107/62/59 111/63/60 137/64/59
f 136/65/60 137/64/59 111/63/60
f 43/66/61 5/30/30 48/67/62
f 6/29/29 48/67/62 5/30/30
f 67/68/63 13/22/22 72/69/64
f 14/21/21 72/69/64 13/22/22
f 91/70/65 21/14/14 96/71/66
f 22/13/13 96/71/66 21/14/14
f 115/72/67 29/6/6 120/73/68
f 30/5/5 120/73/68 29/6/6
f 52/74/69 50/75/70 49/76/71
f 48/67/62 49/76/71 50/75/70
f 76/77/72 74/78/73 73/79/74
f 72/69/64 73/79/74 74/78/73
f 100/80/75 98/81/76 97/82/77
f 96/71/66 97/82/77 98/81/76
f 122/83/78 120/73/68 124/84/79
f 121/85/80 124/84/79 120/73/68
f 153/86/81 154/87/82 59/88/83
f 57/89/82 59/88/83 154/87/82
f 142/90/84 93/91/84 141/92/85
f 95/93/85 141/92/85 93/91/84
f 129/94/86 128/95/87 131/55/55
f 39/57/56 131/55/55 128/95/87
f 49/76/71 48/67/62 7/28/28
f 6/29/29 7/28/28 48/67/62
f 73/79/74 72/69/64 15/20/20
f 14/21/21 15/20/20 72/69/64
f 97/82/77 96/71/66 23/12/12
f 22/13/13 23/12/12 96/71/66
f 121/85/80 120/73/68 31/2/2
f 30/5/5 31/2/2 120/73/68
f 50/75/70 46/96/88 48/67/62
f 43/66/61 48/67/62 46/96/88
f 74/78/73 70/97/89 72/69/64
f 67/68/63 72/69/64 70/97/89
f 98/81/76 94/98/90 96/71/66
f 91/70/65 96/71/66 94/98/90
f 122/83/78 118/99/91 120/73/68
f 115/72/67 120/73/68 118/99/91
f 53/100/92 57/89/82 155/101/92
f 154/87/82 155/101/92 57/89/82
f 93/91/84 142/90/84 89/102/93
f 143/103/93 89/102/93 142/90/84
f 130/104/94 125/105/94 129/94/86
f 128/95/87 129/94/86 125/105/94
f 49/76/71 7/28/28 54/106/95
f 8/27/27 54/106/95 7/28/28
f 73/79/74 15/20/20 78/107/96
f 16/19/19 78/107/96 15/20/20
f 97/82/77 23/12/12 102/108/97
f 24/11/11 102/108/97 23/12/12
f 121/85/80 31/2/2 126/109/98
f 32/1/1 126/109/98 31/2/2
f 56/110/99 54/106/95 58/45/45
f 55/46/46 58/45/45 54/106/95
f 82/48/48 80/111/100 79/49/49
f 78/107/96 79/49/49 80/111/100
f 106/51/51 104/112/101 103/52/52
f 102/108/97 103/52/52 104/112/101
f 37/42/42 127/113/102 35/43/43
f 126/109/98 35/43/43 127/113/102
f 65/114/103 151/115/104 63/116/105
f 152/117/106 63/116/105 151/115/104
f 99/118/107 101/119/108 140/120/107
f 139/121/108 140/120/107 101/119/108
f 55/46/46 54/106/95 9/26/26
f 8/27/27 9/26/26 54/106/95
f 79/49/49 78/107/96 17/18/18
f 16/19/19 17/18/18 78/107/96
f 103/52/52 102/108/97 25/10/10
f 24/11/11 25/10/10 102/108/97
f 35/43/43 126/109/98 3/4/4
f 32/1/1 3/4/4 126/109/98
f 52/74/69 49/76/71 56/110/99
f 54/106/95 56/110/99 49/76/71
f 80/111/100 76/77/72 78/107/96
f 73/79/74 78/107/96 76/77/72
f 100/80/75 97/82/77 104/112/101
f 102/108/97 104/112/101 97/82/77
f 127/113/102 124/84/79 126/109/98
f 121/85/80 126/109/98 124/84/79
f 151/115/104 65/114/103 150/122/109
f 69/123/109 150/122/109 65/114/103
f 101/119/108 105/124/110 139/121/108
f 138/125/111 139/121/108 105/124/110
f 39/126/112 37/42/42 38/127/113
f 36/44/44 38/127/113 37/42/42
f 47/128/114 46/96/88 51/129/115
f 50/75/70 51/129/115 46/96/88
f 59/130/116 58/45/45 63/131/117
f 62/47/47 63/131/117 58/45/45
f 71/132/118 70/97/89 75/133/119
f 74/78/73 75/133/119 70/97/89
f 83/134/120 82/48/48 87/135/121
f 86/50/50 87/135/121 82/48/48
f 95/136/122 94/98/90 99/137/123
f 98/81/76 99/137/123 94/98/90
f 107/138/124 106/51/51 111/139/125
f 110/53/53 111/139/125 106/51/51
f 119/140/126 118/99/91 123/141/127
f 122/83/78 123/141/127 118/99/91
f 45/142/128 158/143/128 41/144/129
f 159/145/129 41/144/129 158/143/128
f 146/146/130 147/147/131 81/148/130
f 77/149/131 81/148/130 147/147/131
f 113/150/132 117/151/133 135/152/132
f 134/153/133 135/152/132 117/151/133
f 47/128/114 45/154/134 46/96/88
f 44/155/135 46/96/88 45/154/134
f 59/130/116 57/156/136 58/45/45
f 56/110/99 58/45/45 57/156/136
f 71/132/118 69/157/137 70/97/89
f 68/158/138 70/97/89 69/157/137
f 83/134/120 81/159/139 82/48/48
f 80/111/100 82/48/48 81/159/139
f 95/136/122 93/160/140 94/98/90
f 92/161/141 94/98/90 93/160/140
f 107/138/124 105/162/142 106/51/51
f 104/112/101 106/51/51 105/162/142
f 119/140/126 117/163/143 118/99/91
f 116/164/144 118/99/91 117/163/143
f 39/126/112 128/165/145 37/42/42
f 127/113/102 37/42/42 128/165/145
f 71/59/57 149/58/57 69/123/109
f 150/122/109 69/123/109 149/58/57
f 138/125/111 105/124/110 137/64/59
f 107/62/59 137/64/59 105/124/110
f 34/34/34 2/32/32 42/166/146
f 4/31/31 42/166/146 2/32/32
f 61/36/36 11/24/24 66/167/147
f 12/23/23 66/167/147 11/24/24
f 85/38/38 19/16/16 90/168/148
f 20/15/15 90/168/148 19/16/16
f 109/40/40 27/8/8 114/169/149
f 28/7/7 114/169/149 27/8/8
f 44/155/135 42/166/146 46/96/88
f 43/66/61 46/96/88 42/166/146
f 68/158/138 66/167/147 70/97/89
f 67/68/63 70/97/89 66/167/147
f 94/98/90 92/161/141 91/70/65
f 90/168/148 91/70/65 92/161/141
f 118/99/91 116/164/144 115/72/67
f 114/169/149 115/72/67 116/164/144
f 45/142/128 47/170/150 158/143/128
f 157/171/151 158/143/128 47/170/150
f 145/172/152 146/146/130 83/173/153
f 81/148/130 83/173/153 146/146/130
f 133/174/154 134/153/133 119/175/154
f 117/151/133 119/175/154 134/153/133
f 41/176/155 40/177/156 45/154/134
f 44/155/135 45/154/134 40/177/156
f 53/178/157 52/74/69 57/156/136
f 56/110/99 57/156/136 52/74/69
f 65/179/158 64/180/159 69/157/137
f 68/158/138 69/157/137 64/180/159
f 77/181/160 76/77/72 81/159/139
f 80/111/100 81/159/139 76/77/72
f 89/182/161 88/183/162 93/160/140
f 92/161/141 93/160/140 88/183/162
f 101/184/163 100/80/75 105/162/142
f 104/112/101 105/162/142 100/80/75
f 113/185/164 112/186/165 117/163/143
f 116/164/144 117/163/143 112/186/165
f 125/187/166 124/84/79 128/165/145
f 127/113/102 128/165/145 124/84/79
f 153/86/81 59/88/83 152/117/106
f 63/116/105 152/117/106 59/88/83
f 95/93/85 99/118/107 141/92/85
f 140/120/107 141/92/85 99/118/107
f 35/43/43 3/4/4 33/35/35
f 1/33/33 33/35/35 3/4/4
f 55/46/46 9/26/26 60/37/37
f 10/25/25 60/37/37 9/26/26
f 79/49/49 17/18/18 84/39/39
f 18/17/17 84/39/39 17/18/18
f 103/52/52 25/10/10 108/41/41
f 26/9/9 108/41/41 25/10/10
f 36/44/44 33/35/35 40/177/156
f 34/34/34 40/177/156 33/35/35
f 62/47/47 60/37/37 64/180/159
f 61/36/36 64/180/159 60/37/37
f 86/50/50 84/39/39 88/183/162
f 85/38/38 88/183/162 84/39/39
f 110/53/53 108/41/41 112/186/165
f 109/40/40 112/186/165 108/41/41
f 159/145/129 160/54/54 41/144/129
f 38/56/54 41/144/129 160/54/54
f 77/149/131 147/147/131 75/61/58
f 148/60/58 75/61/58 147/147/131
f 136/65/60 111/63/60 135/152/132
f 113/150/132 135/152/132 111/63/60
f 43/66/61 42/166/146 5/30/30
f 4/31/31 5/30/30 42/166/146
f 67/68/63 66/167/147 13/22/22
f 12/23/23 13/22/22 66/167/147
f 91/70/65 90/168/148 21/14/14
f 20/15/15 21/14/14 90/168/148
f 115/72/67 114/169/149 29/6/6
f 28/7/7 29/6/6 114/169/149
f 44/155/135 40/177/156 42/166/146
f 34/34/34 42/166/146 40/177/156
f 68/158/138 64/180/159 66/167/147
f 61/36/36 66/167/147 64/180/159
f 88/183/162 85/38/38 92/161/141
f 90/168/148 92/161/141 85/38/38
f 116/164/144 112/186/165 114/169/149
f 109/40/40 114/169/149 112/186/165
f 51/188/167 156/189/167 47/190/150
f 157/191/151 47/190/150 156/189/167
f 83/173/153 87/192/168 145/172/152
f 144/193/168 145/172/152 87/192/168
f 119/175/154 123/194/169 133/174/154
f 132/195/169 133/174/154 123/194/169
f 41/176/155 38/127/113 40/177/156
f 36/44/44 40/177/156 38/127/113
f 53/178/157 51/129/115 52/74/69
f 50/75/70 52/74/69 51/129/115
f 65/179/158 63/131/117 64/180/159
f 62/47/47 64/180/159 63/131/117
f 77/181/160 75/133/119 76/77/72
f 74/78/73 76/77/72 75/133/119
f 89/182/161 87/135/121 88/183/162
f 86/50/50 88/183/162 87/135/121
f 101/184/163 99/137/123 100/80/75
f 98/81/76 100/80/75 99/137/123
f 113/185/164 111/139/125 112/186/165
f 110/53/53 112/186/165 111/139/125
f 125/187/166 123/141/127 124/84/79
f 122/83/78 124/84/79 123/141/127
f 156/189/167 51/188/167 155/101/92
f 53/100/92 155/101/92 51/188/167
f 89/102/93 143/103/93 87/192/168
f 144/193/168 87/192/168 143/103/93
f 123/194/169 125/105/94 132/195/169
f 130/104/94 132/195/169 125/105/94
