#
#
#

mtllib R_Battery.mtl


#
# __CM__Battery Mesh
#
g __CM__Battery Mesh


#
# __CM__Battery Mesh___CM__BatterySG
#
usemtl __CM__Battery Mesh___CM__BatterySG

v 0.003696 -0.009723 0.165498
v 0.003801 -0.006890 0.157207
v 0.000953 -0.006679 0.157331
v 0.001038 -0.009532 0.165526
v 0.000754 -0.004132 0.148193
v -0.002261 -0.004624 0.148211
v -0.001905 -0.007070 0.157305
v -0.001643 -0.009804 0.165348
v 0.003787 -0.004379 0.148091
v 0.009690 -0.008735 0.156591
v 0.010078 -0.006593 0.147679
v 0.006721 -0.005141 0.147930
v 0.006575 -0.007523 0.156978
v 0.006303 -0.010221 0.165318
v 0.009337 -0.011143 0.164946
v -0.004679 -0.007835 0.157184
v -0.007709 -0.009109 0.156943
v -0.007254 -0.011408 0.164593
v -0.004255 -0.010386 0.165054
v -0.005155 -0.005567 0.148174
v -0.008392 -0.007120 0.148075
vn 0.148058 0.935895 0.319656
vn 0.157607 0.944590 0.287943
vn -0.029964 0.950476 0.309352
vn -0.022417 0.933805 0.357080
vn -0.035387 0.962667 0.268367
vn -0.213663 0.941566 0.260386
vn -0.202193 0.935984 0.288187
vn -0.185561 0.928730 0.320980
vn 0.165342 0.951246 0.260371
vn 0.440246 0.858425 0.263230
vn 0.462881 0.858865 0.219300
vn 0.294303 0.923259 0.246940
vn 0.281007 0.914809 0.290104
vn 0.260245 0.903657 0.340113
vn 0.410935 0.855010 0.316370
vn -0.320584 0.901192 0.291685
vn -0.473807 0.838882 0.267927
vn -0.446607 0.832097 0.328873
vn -0.290453 0.892075 0.346179
vn -0.336232 0.909013 0.246259
vn -0.493737 0.841569 0.219057
vt 0.657591 0.000024
vt 0.656350 0.482236
vt 0.500758 0.478230
vt 0.503156 -0.000453
vt 0.499580 0.999466
vt 0.343872 0.999113
vt 0.343107 0.474123
vt 0.346268 -0.000666
vt 0.654062 1.000237
vt 1.000135 0.486940
vt 1.000000 1.000000
vt 0.809152 1.000838
vt 0.812464 0.485516
vt 0.812254 0.000439
vt 1.000000 0.000000
vt 0.184806 0.470376
vt 0.000142 0.467612
vt 0.000000 0.000000
vt 0.189159 -0.000815
vt 0.187547 0.998922
vt 0.000000 1.000000
f 1/1/1 2/2/2 3/3/3 4/4/4
f 5/5/5 6/6/6 7/7/7 3/3/3
f 3/3/3 7/7/7 8/8/8 4/4/4
f 2/2/2 9/9/9 5/5/5 3/3/3
f 10/10/10 11/11/11 12/12/12 13/13/13
f 13/13/13 14/14/14 15/15/15 10/10/10
f 16/16/16 17/17/17 18/18/18 19/19/19
f 20/20/20 21/21/21 17/17/17 16/16/16
f 14/14/14 13/13/13 2/2/2 1/1/1
f 13/13/13 12/12/12 9/9/9 2/2/2
f 7/7/7 6/6/6 20/20/20 16/16/16
f 8/8/8 7/7/7 16/16/16 19/19/19
