#
#
#

mtllib R_Light.mtl


#
# __CM__Light Mesh
#
g __CM__Light Mesh


#
# __CM__Light Mesh___CM__BodySG
#
usemtl __CM__Light Mesh___CM__BodySG

v -0.000766 -0.007455 0.028003
v -0.000954 -0.007462 0.027978
v -0.000951 -0.006331 0.027650
v -0.000764 -0.006323 0.027675
v -0.001140 -0.007452 0.028010
v -0.001138 -0.006326 0.027683
v -0.001307 -0.007426 0.028096
v -0.001305 -0.006305 0.027770
v -0.001438 -0.007388 0.028230
v -0.001436 -0.006275 0.027904
v -0.001519 -0.007340 0.028393
v -0.001517 -0.006234 0.028071
v -0.001542 -0.007288 0.028574
v -0.001540 -0.006191 0.028255
v -0.001506 -0.007236 0.028752
v -0.001504 -0.006145 0.028433
v -0.001415 -0.007191 0.028909
v -0.001412 -0.006106 0.028592
v -0.001278 -0.007156 0.029031
v -0.001276 -0.006072 0.028715
v -0.001109 -0.007134 0.029108
v -0.001107 -0.006052 0.028791
v -0.000925 -0.007127 0.029130
v -0.000923 -0.006043 0.028814
v -0.000743 -0.007137 0.029097
v -0.000741 -0.006049 0.028780
v -0.000580 -0.007162 0.029012
v -0.000578 -0.006067 0.028693
v -0.000452 -0.007199 0.028885
v -0.000449 -0.006097 0.028564
v -0.000370 -0.007247 0.028724
v -0.000368 -0.006136 0.028401
v -0.000344 -0.007298 0.028547
v -0.000342 -0.006180 0.028222
v -0.000375 -0.007349 0.028370
v -0.000374 -0.006225 0.028044
v -0.000462 -0.007396 0.028211
v -0.000460 -0.006266 0.027883
v -0.000597 -0.007432 0.028084
v -0.000595 -0.006300 0.027756
v -0.000466 -0.006244 0.027881
v -0.000380 -0.006204 0.028040
v -0.000598 -0.006277 0.027756
v -0.000765 -0.006299 0.027677
v -0.000951 -0.006308 0.027652
v -0.001136 -0.006303 0.027683
v -0.001300 -0.006285 0.027772
v -0.001429 -0.006255 0.027904
v -0.001508 -0.006217 0.028070
v -0.001530 -0.006174 0.028248
v -0.001494 -0.006131 0.028425
v -0.001404 -0.006091 0.028583
v -0.001270 -0.006061 0.028704
v -0.001104 -0.006040 0.028777
v -0.000923 -0.006032 0.028799
v -0.000745 -0.006037 0.028767
v -0.000584 -0.006054 0.028682
v -0.000456 -0.006083 0.028554
v -0.000376 -0.006120 0.028395
v -0.000350 -0.006162 0.028218
v -0.000937 -0.006168 0.028232
vn 0.293035 -0.266515 -0.918205
vn -0.016793 -0.278439 -0.960307
vn -0.015159 -0.278447 -0.960332
vn 0.293694 -0.266459 -0.918011
vn -0.326690 -0.263065 -0.907783
vn -0.324347 -0.263290 -0.908558
vn -0.608517 -0.220883 -0.762180
vn -0.605495 -0.221524 -0.764397
vn -0.824834 -0.157035 -0.543128
vn -0.822242 -0.158094 -0.546739
vn -0.960405 -0.076439 -0.267917
vn -0.959095 -0.077696 -0.272213
vn -0.999416 0.011377 0.032234
vn -0.999544 0.010254 0.028396
vn -0.939369 0.098167 0.328557
vn -0.940515 0.097279 0.325529
vn -0.787060 0.174742 0.591610
vn -0.788597 0.174197 0.589720
vn -0.558637 0.233543 0.795853
vn -0.559471 0.233388 0.795313
vn -0.279643 0.269432 0.921524
vn -0.279538 0.269440 0.921553
vn 0.028630 0.279710 0.959658
vn 0.030398 0.279691 0.959609
vn 0.335492 0.263040 0.904575
vn 0.338417 0.262744 0.903570
vn 0.604561 0.221706 0.765083
vn 0.607517 0.221064 0.762925
vn 0.819526 0.158374 0.550722
vn 0.821959 0.157389 0.547369
vn 0.956729 0.079446 0.279925
vn 0.957960 0.078312 0.276007
vn 0.999871 -0.006008 -0.014910
vn 0.999803 -0.007068 -0.018561
vn 0.947087 -0.090934 -0.307828
vn 0.946124 -0.091720 -0.310541
vn 0.802533 -0.167506 -0.572610
vn 0.801082 -0.168046 -0.574481
vn 0.578255 -0.228024 -0.783343
vn 0.577461 -0.228179 -0.783884
vn 0.765733 0.149006 -0.625660
vn 0.764869 0.148656 -0.626799
vn 0.894886 0.236273 -0.378621
vn 0.897082 0.239063 -0.371608
vn 0.545449 0.088580 -0.833450
vn 0.554381 0.090223 -0.827358
vn 0.277554 0.048885 -0.959466
vn 0.280130 0.049194 -0.958701
vn -0.019007 0.031216 -0.999332
vn -0.017124 0.031221 -0.999366
vn -0.313822 0.076857 -0.946366
vn -0.312545 0.076447 -0.946822
vn -0.566772 0.174859 -0.805105
vn -0.567812 0.175357 -0.804264
vn -0.756437 0.268390 -0.596465
vn -0.755863 0.268095 -0.597325
vn -0.867252 0.362259 -0.341528
vn -0.866055 0.360242 -0.346663
vn -0.874214 0.478811 -0.080557
vn -0.876652 0.471759 -0.094474
vn -0.800369 0.580663 0.149129
vn -0.799856 0.581086 0.150231
vn -0.662547 0.656620 0.360391
vn -0.660551 0.657385 0.362653
vn -0.465997 0.715276 0.520795
vn -0.463512 0.715858 0.522212
vn -0.229929 0.758845 0.609333
vn -0.228414 0.759060 0.609635
vn 0.012483 0.771224 0.636442
vn 0.017166 0.771040 0.636556
vn 0.266509 0.741535 0.615710
vn 0.265595 0.741718 0.615885
vn 0.505104 0.687820 0.521319
vn 0.501352 0.688776 0.523674
vn 0.699755 0.614010 0.365150
vn 0.707505 0.609792 0.357199
vn 0.856279 0.495439 0.146037
vn 0.856353 0.495355 0.145887
vn 0.927033 0.358646 -0.109466
vn 0.926719 0.360535 -0.105862
vn -0.016963 0.971873 -0.234894
vn -0.015726 0.972060 -0.234206
vn -0.016431 0.972155 -0.233764
vn -0.017296 0.971894 -0.234783
vn -0.015262 0.972092 -0.234102
vn -0.017237 0.972231 -0.233388
vn -0.017474 0.972070 -0.234043
vn -0.015861 0.971845 -0.235088
vn -0.016166 0.971971 -0.234544
vn -0.016204 0.972252 -0.233376
vn -0.016056 0.972571 -0.232052
vn -0.016664 0.972422 -0.232633
vn -0.017839 0.972106 -0.233863
vn -0.017530 0.972093 -0.233940
vn -0.015925 0.972167 -0.233746
vn -0.016002 0.972238 -0.233448
vn -0.016950 0.972301 -0.233116
vn -0.015886 0.971956 -0.234625
vn -0.015376 0.972035 -0.234331
vn -0.015912 0.972546 -0.232168
vn -0.016322 0.972356 -0.232931
vt 0.842345 0.975433
vt 0.838823 0.980022
vt 0.830570 0.972234
vt 0.831480 0.970280
vt 0.834097 0.983384
vt 0.829038 0.973802
vt 0.828586 0.985175
vt 0.827049 0.974865
vt 0.822807 0.985202
vt 0.824672 0.975290
vt 0.817327 0.983452
vt 0.822112 0.974879
vt 0.812699 0.980098
vt 0.819735 0.973556
vt 0.809395 0.975488
vt 0.817861 0.971463
vt 0.807754 0.970110
vt 0.816739 0.968823
vt 0.807942 0.964540
vt 0.816470 0.965938
vt 0.809935 0.959363
vt 0.817035 0.963085
vt 0.812947 0.954726
vt 0.818984 0.960945
vt 0.817299 0.951331
vt 0.821432 0.959455
vt 0.822518 0.949504
vt 0.824174 0.958776
vt 0.828072 0.949410
vt 0.826936 0.958985
vt 0.833414 0.951051
vt 0.829414 0.960042
vt 0.838027 0.954267
vt 0.831320 0.961796
vt 0.841475 0.958756
vt 0.832456 0.963972
vt 0.843440 0.964108
vt 0.832811 0.966200
vt 0.843737 0.969839
vt 0.832485 0.968368
vt 0.832459 0.966092
vt 0.832174 0.963825
vt 0.832128 0.968235
vt 0.831225 0.970141
vt 0.830265 0.972007
vt 0.828761 0.973550
vt 0.826781 0.974675
vt 0.824481 0.975079
vt 0.822080 0.974632
vt 0.819832 0.973342
vt 0.818036 0.971326
vt 0.816950 0.968776
vt 0.816685 0.965978
vt 0.817301 0.963223
vt 0.819144 0.961097
vt 0.821523 0.959653
vt 0.824181 0.959000
vt 0.826846 0.959199
vt 0.829225 0.960197
vt 0.831050 0.961828
vt 0.823662 0.966240
f 1/1/1 2/2/2 3/3/3 4/4/4
f 2/2/2 5/5/5 6/6/6 3/3/3
f 5/5/5 7/7/7 8/8/8 6/6/6
f 7/7/7 9/9/9 10/10/10 8/8/8
f 9/9/9 11/11/11 12/12/12 10/10/10
f 11/11/11 13/13/13 14/14/14 12/12/12
f 13/13/13 15/15/15 16/16/16 14/14/14
f 15/15/15 17/17/17 18/18/18 16/16/16
f 17/17/17 19/19/19 20/20/20 18/18/18
f 19/19/19 21/21/21 22/22/22 20/20/20
f 21/21/21 23/23/23 24/24/24 22/22/22
f 23/23/23 25/25/25 26/26/26 24/24/24
f 25/25/25 27/27/27 28/28/28 26/26/26
f 27/27/27 29/29/29 30/30/30 28/28/28
f 29/29/29 31/31/31 32/32/32 30/30/30
f 31/31/31 33/33/33 34/34/34 32/32/32
f 33/33/33 35/35/35 36/36/36 34/34/34
f 35/35/35 37/37/37 38/38/38 36/36/36
f 37/37/37 39/39/39 40/40/40 38/38/38
f 39/39/39 1/1/1 4/4/4 40/40/40
f 38/38/41 41/41/42 42/42/43 36/36/44
f 41/41/42 38/38/41 40/40/45 43/43/46
f 43/43/46 40/40/45 4/4/47 44/44/48
f 44/44/48 4/4/47 3/3/49 45/45/50
f 45/45/50 3/3/49 6/6/51 46/46/52
f 46/46/52 6/6/51 8/8/53 47/47/54
f 47/47/54 8/8/53 10/10/55 48/48/56
f 48/48/56 10/10/55 12/12/57 49/49/58
f 49/49/58 12/12/57 14/14/59 50/50/60
f 50/50/60 14/14/59 16/16/61 51/51/62
f 51/51/62 16/16/61 18/18/63 52/52/64
f 52/52/64 18/18/63 20/20/65 53/53/66
f 53/53/66 20/20/65 22/22/67 54/54/68
f 54/54/68 22/22/67 24/24/69 55/55/70
f 55/55/70 24/24/69 26/26/71 56/56/72
f 56/56/72 26/26/71 28/28/73 57/57/74
f 57/57/74 28/28/73 30/30/75 58/58/76
f 58/58/76 30/30/75 32/32/77 59/59/78
f 59/59/78 32/32/77 34/34/79 60/60/80
f 60/60/80 34/34/79 36/36/44 42/42/43
f 43/43/81 44/44/82 61/61/83
f 41/41/84 43/43/81 61/61/83
f 45/45/85 46/46/86 61/61/83
f 61/61/83 44/44/82 45/45/85
f 47/47/87 48/48/88 61/61/83
f 61/61/83 46/46/86 47/47/87
f 49/49/89 50/50/90 61/61/83
f 61/61/83 48/48/88 49/49/89
f 51/51/91 52/52/92 61/61/83
f 61/61/83 50/50/90 51/51/91
f 53/53/93 54/54/94 61/61/83
f 61/61/83 52/52/92 53/53/93
f 55/55/95 56/56/96 61/61/83
f 61/61/83 54/54/94 55/55/95
f 57/57/97 58/58/98 61/61/83
f 61/61/83 56/56/96 57/57/97
f 59/59/99 60/60/100 61/61/83
f 61/61/83 58/58/98 59/59/99
f 42/42/101 41/41/84 61/61/83
f 61/61/83 60/60/100 42/42/101
