#
#
#

mtllib RA.mtl


#
# RA Mesh
#
g RA Mesh


#
# RA Mesh_Phx_Controller_R:RBodySG
#
usemtl RA Mesh_Phx_Controller_R:RBodySG

v -0.002815 0.009100 0.055427
v -0.004112 0.009289 0.055832
v -0.003247 0.010259 0.057031
v -0.004153 0.011006 0.058500
v -0.002373 0.011038 0.058217
v -0.003982 0.010714 0.057930
v -0.003465 0.011557 0.059555
v -0.003796 0.011291 0.059047
v -0.002136 0.011731 0.059864
v -0.002788 0.011646 0.059713
v -0.000956 0.011417 0.059230
v -0.001560 0.011578 0.059556
v 0.000328 0.011615 0.060244
v 0.000928 0.011049 0.059157
v -0.000764 0.011103 0.058617
v 0.000999 0.010470 0.058008
v 0.000539 0.009845 0.056847
v -0.000963 0.010522 0.057492
v -0.000303 0.009428 0.056013
v -0.001523 0.009130 0.055494
v -0.001973 0.010178 0.056847
v 0.001947 0.011099 0.060572
v 0.001414 0.011482 0.061330
v 0.001496 0.006548 0.063831
v -0.003911 0.007995 0.054670
v -0.003013 0.007902 0.054479
v 0.002430 0.010273 0.058960
v 0.002266 0.010713 0.059826
v 0.002338 0.005771 0.062312
v -0.000591 0.010819 0.058064
v 0.002184 0.009421 0.057309
v 0.002395 0.009831 0.058114
v 0.002454 0.004911 0.060642
v -0.005533 0.008411 0.055512
v -0.006162 0.008711 0.056104
v -0.005066 0.009677 0.056595
v 0.001245 0.008669 0.055871
v 0.001789 0.009017 0.056547
v 0.001869 0.004113 0.059108
v -0.001279 0.010269 0.057009
v -0.000242 0.008136 0.054865
v 0.000609 0.008384 0.055343
v 0.000629 0.003449 0.057846
v -0.002053 0.007897 0.054443
v -0.001110 0.007974 0.054582
v -0.001099 0.003047 0.057100
v -0.002608 0.010095 0.056699
v -0.003799 0.010400 0.057316
v -0.003911 0.007995 0.054670
v -0.003013 0.007902 0.054479
v -0.002903 0.002980 0.057003
v -0.004484 0.012046 0.062546
v -0.004435 0.011863 0.060826
v -0.005340 0.011801 0.062073
v -0.005533 0.008411 0.055512
v -0.004720 0.008152 0.054994
v -0.004714 0.003245 0.057551
v -0.006672 0.009082 0.056839
v -0.006162 0.008711 0.056104
v -0.006112 0.003797 0.058644
v -0.002673 0.012283 0.062968
v -0.001773 0.012284 0.062942
v -0.001923 0.012191 0.061412
v -0.007156 0.009907 0.058451
v -0.007007 0.009486 0.057620
v -0.006948 0.004565 0.060148
v -0.005663 0.010238 0.057675
v -0.006910 0.010761 0.060102
v -0.007137 0.010317 0.059233
v -0.007072 0.005419 0.061804
v -0.007156 0.009907 0.058451
v -0.007137 0.010317 0.059233
v -0.005737 0.010821 0.058831
v 0.000807 0.011770 0.061900
v 0.001414 0.011482 0.061330
v -0.005971 0.011511 0.061540
v -0.006532 0.011158 0.060851
v -0.006476 0.006235 0.063373
v -0.005300 0.011427 0.059958
v -0.004484 0.012046 0.062546
v -0.005340 0.011801 0.062073
v -0.005213 0.006905 0.064647
v 0.002430 0.010273 0.058960
v 0.002395 0.009831 0.058114
v -0.002673 0.012283 0.062968
v -0.003675 0.012203 0.062822
v -0.003528 0.007294 0.065370
v -0.003252 0.012156 0.061336
v -0.000815 0.012186 0.062741
v -0.001773 0.012284 0.062942
v -0.001681 0.007362 0.065467
v 0.001245 0.008669 0.055871
v 0.000609 0.008384 0.055343
v 0.000807 0.011770 0.061900
v 0.000004 0.012028 0.062413
v 0.000084 0.007102 0.064931
v -0.000694 0.012020 0.061043
v -0.002000 0.002981 0.056977
v -0.003857 0.003078 0.057203
v -0.005480 0.003493 0.058044
v -0.006619 0.004165 0.059372
v -0.007103 0.004990 0.060984
v -0.006856 0.005843 0.062634
v -0.005918 0.006594 0.064073
v -0.004484 0.012046 0.062546
v -0.004430 0.007129 0.065079
v -0.002620 0.007365 0.065501
v -0.000762 0.007268 0.065275
v 0.000860 0.006852 0.064433
v 0.002000 0.006180 0.063105
v 0.002483 0.005356 0.061493
v 0.002237 0.004503 0.059843
v 0.001298 0.003752 0.058404
v -0.000189 0.003217 0.057398
v -0.000242 0.008136 0.054865
v -0.002053 0.007897 0.054443
v 0.001789 0.009017 0.056547
v 0.002184 0.009421 0.057309
v 0.002266 0.010713 0.059826
v 0.001947 0.011099 0.060572
v 0.000004 0.012028 0.062413
v -0.000815 0.012186 0.062741
v -0.003675 0.012203 0.062822
v -0.006532 0.011158 0.060851
v -0.005971 0.011511 0.061540
v -0.006910 0.010761 0.060102
v -0.007007 0.009486 0.057620
v -0.006672 0.009082 0.056839
v -0.004720 0.008152 0.054994
v -0.001110 0.007974 0.054582
v -0.004430 0.007129 0.065079
vn -0.046690 0.716673 -0.695845
vn -0.154708 0.732684 -0.662752
vn -0.071990 0.824508 -0.561252
vn -0.149642 0.889219 -0.432315
vn -0.009743 0.888842 -0.458111
vn -0.135696 0.860496 -0.491054
vn -0.091150 0.932148 -0.350417
vn -0.127684 0.906465 -0.402514
vn 0.013286 0.944296 -0.328828
vn -0.052145 0.937879 -0.343022
vn 0.103995 0.919967 -0.377948
vn 0.052766 0.935924 -0.348227
vn 0.225871 0.931834 -0.284020
vn 0.273399 0.887464 -0.371026
vn 0.122004 0.900944 -0.416431
vn 0.280349 0.832043 -0.478654
vn 0.245255 0.784720 -0.569266
vn 0.114304 0.850879 -0.512776
vn 0.166460 0.744202 -0.646881
vn 0.067593 0.720549 -0.690102
vn 0.031269 0.819532 -0.572180
vn 0.892976 0.214107 0.395919
vn 0.793401 0.285948 0.537354
vn 0.794059 0.284894 0.536941
vn -0.136607 0.640522 -0.755692
vn -0.062790 0.626071 -0.777234
vn 0.997761 0.039493 0.053979
vn 0.965915 0.127491 0.225287
vn 0.966252 0.126133 0.224607
vn 0.132925 0.871689 -0.471688
vn 0.945661 -0.140235 -0.293359
vn 0.991352 -0.050803 -0.120997
vn 0.991327 -0.050947 -0.121143
vn -0.271463 0.673006 -0.688020
vn -0.329696 0.697443 -0.636297
vn -0.242157 0.765255 -0.596443
vn 0.755426 -0.293279 -0.585934
vn 0.865301 -0.221661 -0.449578
vn 0.865995 -0.220540 -0.448792
vn 0.078315 0.827759 -0.555591
vn 0.448363 -0.404541 -0.797068
vn 0.608692 -0.357017 -0.708542
vn 0.607909 -0.358006 -0.708716
vn 0.063929 -0.455725 -0.887822
vn 0.259158 -0.439156 -0.860220
vn 0.257765 -0.440026 -0.860194
vn -0.028740 0.813944 -0.580232
vn -0.124812 0.839731 -0.528463
vn -0.317500 -0.437047 -0.841536
vn -0.132182 -0.455124 -0.880562
vn -0.130384 -0.454275 -0.881269
vn -0.193387 0.976054 -0.099601
vn -0.187156 0.955914 -0.226276
vn -0.253522 0.957694 -0.136196
vn -0.653506 -0.351694 -0.670255
vn -0.500158 -0.400248 -0.767882
vn -0.501183 -0.400760 -0.766947
vn -0.895615 -0.211356 -0.391410
vn -0.793776 -0.285342 -0.537121
vn -0.793896 -0.285383 -0.536922
vn -0.033431 0.997623 -0.060259
vn 0.043378 0.996981 -0.064404
vn 0.032258 0.983511 -0.177946
vn -0.997372 -0.041746 -0.059214
vn -0.966097 -0.126844 -0.224872
vn -0.966052 -0.126815 -0.225080
vn -0.289836 0.812697 -0.505488
vn -0.948988 0.136053 0.284449
vn -0.991281 0.051402 0.121325
vn -0.991143 0.051250 0.122510
vn -0.410720 0.798719 -0.439723
vn -0.407006 0.834433 -0.371574
vn -0.301944 0.864827 -0.401129
vn 0.255372 0.954804 -0.152098
vn 0.313067 0.928517 -0.199614
vn -0.757160 0.291959 0.584354
vn -0.865266 0.221335 0.449806
vn -0.865382 0.221368 0.449567
vn -0.261645 0.914082 -0.309833
vn -0.454038 0.404124 0.794061
vn -0.608549 0.358037 0.708151
vn -0.606893 0.357432 0.709876
vn 0.390999 0.830281 -0.397182
vn 0.396973 0.789837 -0.467514
vn -0.075333 0.456152 0.886707
vn -0.258578 0.440177 0.859873
vn -0.256510 0.439132 0.861026
vn -0.086876 0.978199 -0.188626
vn 0.314285 0.437351 0.842585
vn 0.131077 0.454944 0.880820
vn 0.132024 0.454337 0.880993
vn 0.293617 0.698792 -0.652288
vn 0.241159 0.664121 -0.707662
vn 0.652190 0.352789 0.670961
vn 0.500530 0.400768 0.767369
vn 0.501070 0.400167 0.767330
vn 0.134010 0.967714 -0.213475
vn 0.063947 -0.455751 -0.887807
vn -0.318401 -0.437056 -0.841191
vn -0.658712 -0.350299 -0.665874
vn -0.896172 -0.211051 -0.390299
vn -0.997684 -0.040093 -0.054947
vn -0.947838 0.137291 0.287671
vn -0.751878 0.294277 0.589983
vn -0.454043 0.404126 0.794057
vn -0.439105 0.406455 0.801237
vn -0.063806 0.455812 0.887786
vn 0.319660 0.436251 0.841132
vn 0.656825 0.350646 0.667554
vn 0.896703 0.210220 0.389527
vn 0.998058 0.037117 0.050017
vn 0.946729 -0.138419 -0.290767
vn 0.754803 -0.293680 -0.586536
vn 0.440568 -0.407158 -0.800076
vn 0.166233 0.652871 -0.739003
vn 0.020103 0.633203 -0.773724
vn 0.338490 0.726004 -0.598617
vn 0.364487 0.758309 -0.540479
vn 0.380386 0.864973 -0.327304
vn 0.348887 0.898652 -0.265899
vn 0.195280 0.975079 -0.105294
vn 0.117596 0.989768 -0.080811
vn -0.115952 0.991176 -0.064226
vn -0.365641 0.901157 -0.232858
vn -0.310744 0.933574 -0.178545
vn -0.392928 0.866821 -0.306968
vn -0.404455 0.758833 -0.510480
vn -0.368182 0.727547 -0.578893
vn -0.210527 0.649702 -0.730456
vn 0.095641 0.637397 -0.764576
vn -0.439092 0.406461 0.801241
vt 0.722041 0.391431
vt 0.719413 0.385518
vt 0.727484 0.383662
vt 0.730259 0.375300
vt 0.735121 0.382170
vt 0.728603 0.377924
vt 0.736541 0.373873
vt 0.733514 0.374558
vt 0.741988 0.377303
vt 0.739317 0.375618
vt 0.743321 0.383609
vt 0.742642 0.380380
vt 0.750922 0.384864
vt 0.748619 0.390884
vt 0.741570 0.386463
vt 0.744385 0.395247
vt 0.738353 0.397915
vt 0.736585 0.389813
vt 0.732421 0.397967
vt 0.726426 0.395684
vt 0.730857 0.388677
vt 0.750028 0.412281
vt 0.751603 0.407820
vt 0.776150 0.416681
vt 0.713888 0.391647
vt 0.716101 0.395525
vt 0.747079 0.420662
vt 0.748638 0.416284
vt 0.773168 0.425191
vt 0.739984 0.389036
vt 0.744132 0.429039
vt 0.745609 0.424921
vt 0.770218 0.433603
vt 0.711876 0.382800
vt 0.712182 0.378383
vt 0.719317 0.379468
vt 0.741180 0.437417
vt 0.742674 0.433269
vt 0.767349 0.441765
vt 0.733702 0.390464
vt 0.738227 0.445790
vt 0.739837 0.441319
vt 0.764374 0.450208
vt 0.735271 0.454168
vt 0.736796 0.449923
vt 0.761333 0.458808
vt 0.728253 0.387032
vt 0.726825 0.380752
vt 0.732313 0.462543
vt 0.733778 0.458444
vt 0.758476 0.466878
vt 0.743459 0.360454
vt 0.737830 0.366363
vt 0.738733 0.359195
vt 0.729354 0.470920
vt 0.730927 0.466484
vt 0.755448 0.475414
vt 0.726395 0.479298
vt 0.727908 0.474988
vt 0.752504 0.483713
vt 0.751084 0.365251
vt 0.753963 0.368548
vt 0.748200 0.372895
vt 0.723436 0.487677
vt 0.724899 0.483476
vt 0.749518 0.492131
vt 0.721621 0.373503
vt 0.720477 0.496060
vt 0.722023 0.491594
vt 0.746562 0.500476
vt 0.718233 0.366174
vt 0.721446 0.363357
vt 0.725856 0.369082
vt 0.758366 0.381532
vt 0.758083 0.385785
vt 0.717522 0.504441
vt 0.718989 0.500181
vt 0.743613 0.508819
vt 0.731694 0.366511
vt 0.714569 0.512826
vt 0.716117 0.508328
vt 0.740595 0.517383
vt 0.751999 0.398156
vt 0.748492 0.401170
vt 0.758873 0.387138
vt 0.760448 0.382575
vt 0.784907 0.391686
vt 0.743647 0.368587
vt 0.755924 0.395520
vt 0.757445 0.391137
vt 0.782002 0.399968
vt 0.735750 0.405405
vt 0.731525 0.405124
vt 0.752976 0.403901
vt 0.754514 0.399505
vt 0.779083 0.408303
vt 0.750735 0.378455
vt 0.759876 0.462853
vt 0.756917 0.471233
vt 0.753958 0.479611
vt 0.750999 0.487988
vt 0.748042 0.496363
vt 0.745085 0.504741
vt 0.742133 0.513114
vt 0.761835 0.378721
vt 0.786440 0.387412
vt 0.783489 0.395791
vt 0.780540 0.404173
vt 0.777593 0.412556
vt 0.774644 0.420938
vt 0.771695 0.429324
vt 0.768744 0.437706
vt 0.765790 0.446091
vt 0.762835 0.454472
vt 0.726811 0.403880
vt 0.719132 0.399050
vt 0.740236 0.404829
vt 0.744594 0.403398
vt 0.754899 0.394370
vt 0.756836 0.390479
vt 0.757739 0.376792
vt 0.756350 0.372677
vt 0.747248 0.362320
vt 0.729910 0.359503
vt 0.734499 0.358916
vt 0.725643 0.360925
vt 0.715439 0.369784
vt 0.713399 0.373855
vt 0.712516 0.387587
vt 0.722801 0.401869
vt 0.739181 0.521492
f 1/1/1 2/2/2 3/3/3
f 4/4/4 5/5/5 6/6/6
f 7/7/7 5/5/5 8/8/8
f 9/9/9 5/5/5 10/10/10
f 11/11/11 5/5/5 12/12/12
f 13/13/13 14/14/14 15/15/15
f 16/16/16 17/17/17 18/18/18
f 19/19/19 20/20/20 21/21/21
f 12/12/12 5/5/5 9/9/9
f 22/22/22 23/23/23 24/24/24
f 25/25/25 1/1/1 26/26/26
f 27/27/27 28/28/28 29/29/29
f 14/14/14 16/16/16 30/30/30
f 10/10/10 5/5/5 7/7/7
f 31/31/31 32/32/32 33/33/33
f 34/34/34 35/35/35 36/36/36
f 37/37/37 38/38/38 39/39/39
f 17/17/17 19/19/19 40/40/40
f 8/8/8 5/5/5 4/4/4
f 41/41/41 42/42/42 43/43/43
f 44/44/44 45/45/45 46/46/46
f 20/20/20 1/1/1 47/47/47
f 6/6/6 5/5/5 48/48/48
f 49/49/49 50/50/50 51/51/51
f 52/52/52 53/53/53 54/54/54
f 55/55/55 56/56/56 57/57/57
f 2/2/2 36/36/36 48/48/48
f 48/48/48 5/5/5 3/3/3
f 58/58/58 59/59/59 60/60/60
f 61/61/61 62/62/62 63/63/63
f 64/64/64 65/65/65 66/66/66
f 36/36/36 67/67/67 6/6/6
f 47/47/47 5/5/5 21/21/21
f 68/68/68 69/69/69 70/70/70
f 71/71/71 72/72/72 73/73/73
f 74/74/74 75/75/75 13/13/13
f 76/76/76 77/77/77 78/78/78
f 73/73/73 79/79/79 8/8/8
f 40/40/40 5/5/5 18/18/18
f 80/80/80 81/81/81 82/82/82
f 83/83/83 84/84/84 16/16/16
f 85/85/85 86/86/86 87/87/87
f 53/53/53 88/88/88 10/10/10
f 30/30/30 5/5/5 15/15/15
f 89/89/89 90/90/90 91/91/91
f 92/92/92 93/93/93 19/19/19
f 94/94/94 95/95/95 96/96/96
f 63/63/63 97/97/97 12/12/12
f 50/50/50 44/44/44 98/98/98
f 56/56/56 49/49/49 99/99/99
f 59/59/59 55/55/55 100/100/100
f 65/65/65 58/58/58 101/101/101
f 69/69/69 64/64/64 102/102/102
f 77/77/77 68/68/68 103/103/103
f 81/81/81 76/76/76 104/104/104
f 86/86/86 105/105/105 106/106/106
f 90/90/90 85/85/85 107/107/107
f 95/95/95 89/89/89 108/108/108
f 23/23/23 94/94/94 109/109/109
f 28/28/28 22/22/22 110/110/110
f 32/32/32 27/27/27 111/111/111
f 38/38/38 31/31/31 112/112/112
f 42/42/42 37/37/37 113/113/113
f 45/45/45 41/41/41 114/114/114
f 19/19/19 115/115/115 20/20/20
f 1/1/1 20/20/20 116/116/116
f 21/21/21 5/5/5 40/40/40
f 117/117/117 92/92/92 17/17/17
f 117/117/117 17/17/17 118/118/118
f 18/18/18 5/5/5 30/30/30
f 119/119/119 83/83/83 14/14/14
f 119/119/119 14/14/14 120/120/120
f 15/15/15 5/5/5 11/11/11
f 121/121/121 74/74/74 97/97/97
f 121/121/121 97/97/97 122/122/122
f 97/97/97 13/13/13 11/11/11
f 123/123/123 61/61/61 88/88/88
f 123/123/123 88/88/88 52/52/52
f 88/88/88 63/63/63 9/9/9
f 124/124/124 125/125/125 79/79/79
f 124/124/124 79/79/79 126/126/126
f 79/79/79 53/53/53 7/7/7
f 127/127/127 71/71/71 67/67/67
f 127/127/127 67/67/67 128/128/128
f 67/67/67 73/73/73 4/4/4
f 129/129/129 34/34/34 2/2/2
f 129/129/129 2/2/2 25/25/25
f 3/3/3 5/5/5 47/47/47
f 116/116/116 26/26/26 1/1/1
f 36/36/36 35/35/35 128/128/128
f 2/2/2 34/34/34 36/36/36
f 1/1/1 25/25/25 2/2/2
f 36/36/36 128/128/128 67/67/67
f 67/67/67 71/71/71 73/73/73
f 73/73/73 72/72/72 126/126/126
f 73/73/73 126/126/126 79/79/79
f 79/79/79 125/125/125 53/53/53
f 54/54/54 53/53/53 125/125/125
f 53/53/53 52/52/52 88/88/88
f 88/88/88 61/61/61 63/63/63
f 63/63/63 62/62/62 122/122/122
f 63/63/63 122/122/122 97/97/97
f 97/97/97 74/74/74 13/13/13
f 13/13/13 75/75/75 120/120/120
f 13/13/13 120/120/120 14/14/14
f 14/14/14 83/83/83 16/16/16
f 16/16/16 84/84/84 118/118/118
f 16/16/16 118/118/118 17/17/17
f 17/17/17 92/92/92 19/19/19
f 19/19/19 93/93/93 115/115/115
f 130/130/130 20/20/20 115/115/115
f 116/116/116 20/20/20 130/130/130
f 47/47/47 1/1/1 3/3/3
f 11/11/11 13/13/13 15/15/15
f 30/30/30 16/16/16 18/18/18
f 40/40/40 19/19/19 21/21/21
f 110/110/110 22/22/22 24/24/24
f 111/111/111 27/27/27 29/29/29
f 15/15/15 14/14/14 30/30/30
f 112/112/112 31/31/31 33/33/33
f 113/113/113 37/37/37 39/39/39
f 18/18/18 17/17/17 40/40/40
f 114/114/114 41/41/41 43/43/43
f 98/98/98 44/44/44 46/46/46
f 21/21/21 20/20/20 47/47/47
f 99/99/99 49/49/49 51/51/51
f 100/100/100 55/55/55 57/57/57
f 3/3/3 2/2/2 48/48/48
f 101/101/101 58/58/58 60/60/60
f 102/102/102 64/64/64 66/66/66
f 48/48/48 36/36/36 6/6/6
f 103/103/103 68/68/68 70/70/70
f 104/104/104 76/76/76 78/78/78
f 4/4/4 73/73/73 8/8/8
f 131/131/131 80/80/80 82/82/82
f 107/107/107 85/85/85 87/87/87
f 7/7/7 53/53/53 10/10/10
f 108/108/108 89/89/89 91/91/91
f 109/109/109 94/94/94 96/96/96
f 9/9/9 63/63/63 12/12/12
f 51/51/51 50/50/50 98/98/98
f 57/57/57 56/56/56 99/99/99
f 60/60/60 59/59/59 100/100/100
f 66/66/66 65/65/65 101/101/101
f 70/70/70 69/69/69 102/102/102
f 78/78/78 77/77/77 103/103/103
f 82/82/82 81/81/81 104/104/104
f 87/87/87 86/86/86 106/106/106
f 91/91/91 90/90/90 107/107/107
f 96/96/96 95/95/95 108/108/108
f 24/24/24 23/23/23 109/109/109
f 29/29/29 28/28/28 110/110/110
f 33/33/33 32/32/32 111/111/111
f 39/39/39 38/38/38 112/112/112
f 43/43/43 42/42/42 113/113/113
f 46/46/46 45/45/45 114/114/114
f 12/12/12 97/97/97 11/11/11
f 10/10/10 88/88/88 9/9/9
f 8/8/8 79/79/79 7/7/7
f 6/6/6 67/67/67 4/4/4
