#
#
#

mtllib RGrip.mtl


#
# RGrip Mesh
#
g RGrip Mesh


#
# RGrip Mesh_Phx_Controller_R:RBodySG
#
usemtl RGrip Mesh_Phx_Controller_R:RBodySG

v -0.010886 0.002346 0.093215
v -0.011384 0.000856 0.094511
v -0.010937 0.001100 0.094564
v -0.010402 0.002499 0.093325
v -0.011497 -0.000129 0.094262
v -0.011903 -0.003517 0.093405
v -0.012245 -0.004385 0.095275
v -0.010769 -0.008273 0.091329
v -0.010693 -0.009378 0.093433
v -0.011728 -0.000376 0.094677
v -0.012039 -0.002034 0.095201
v -0.011745 -0.006660 0.094734
v -0.009562 -0.011866 0.092231
v -0.007769 -0.015084 0.090766
v -0.008437 -0.013964 0.088298
v -0.006709 -0.016517 0.089403
v -0.011399 -0.001035 0.087369
v -0.010761 0.001854 0.089437
v -0.010782 0.001718 0.085700
v -0.011122 0.000144 0.084249
v -0.011508 -0.001517 0.083081
v -0.011739 -0.003668 0.081824
v -0.011951 -0.006106 0.080544
v -0.011465 -0.005103 0.084918
v -0.011904 -0.009441 0.078895
v -0.011513 -0.011581 0.078538
v -0.010663 -0.011023 0.082091
v -0.011440 -0.002343 0.090564
v -0.011289 0.000759 0.092239
v -0.010449 0.002599 0.087194
v -0.010308 0.003046 0.089275
v -0.006694 -0.017159 0.085264
v -0.008218 -0.015667 0.082805
v -0.009457 -0.012344 0.084938
v -0.010765 -0.006666 0.088260
v -0.009974 -0.014047 0.080386
v -0.009762 -0.014957 0.079670
v -0.005817 -0.017968 0.084968
v -0.010452 0.002944 0.090475
v -0.011495 0.000320 0.094254
v -0.011060 0.001892 0.092918
v 0.002236 -0.011842 0.094127
v -0.008704 -0.012578 0.092576
v -0.006977 -0.015396 0.091283
v -0.009767 0.003555 0.090918
v 0.000987 0.004259 0.092439
v 0.001188 0.004461 0.090684
v 0.000757 0.003255 0.094826
v 0.000836 0.003693 0.094043
v 0.001576 0.003770 0.087975
v -0.009758 0.003054 0.086722
v -0.009609 0.003440 0.087834
v -0.011393 -0.000322 0.095381
v 0.000684 0.000493 0.097104
v 0.000686 0.001938 0.096183
v -0.011757 -0.004464 0.095910
v 0.000931 -0.003865 0.097630
v 0.000791 -0.001898 0.097719
v -0.010073 -0.009585 0.094011
v 0.001833 -0.008830 0.095688
v 0.001287 -0.006555 0.096867
v -0.004594 -0.018228 0.087298
v 0.003073 -0.017623 0.088162
v 0.002665 -0.016358 0.090788
v 0.002080 0.001347 0.085196
v -0.010481 0.000508 0.083825
v -0.010172 0.001947 0.085066
v 0.002822 -0.001941 0.083241
v -0.011191 -0.003359 0.081381
v -0.010928 -0.001404 0.082504
v 0.003411 -0.007989 0.080327
v -0.011476 -0.009268 0.078397
v -0.011438 -0.006149 0.079922
v -0.011024 -0.011698 0.077986
v 0.003574 -0.010434 0.079771
v 0.003688 -0.011990 0.079854
v -0.009067 -0.015281 0.079187
v 0.003732 -0.013902 0.080504
v 0.003711 -0.015850 0.081867
v 0.003376 -0.017821 0.085786
v -0.004769 -0.018467 0.084867
v -0.005987 -0.017946 0.082648
v 0.003073 -0.017623 0.088162
v -0.010852 0.002294 0.092285
v 0.000684 0.000493 0.097104
v -0.009567 0.003716 0.089333
v -0.005608 -0.017828 0.086847
v -0.010660 -0.013643 0.078907
v -0.008454 -0.016326 0.080935
v -0.007068 -0.017369 0.082715
v -0.007702 -0.016654 0.080427
v -0.010287 -0.013516 0.078254
v 0.003688 -0.011990 0.079854
v 0.002410 -0.014679 0.092556
v -0.012091 -0.002402 0.095721
v -0.012182 -0.004395 0.095729
v -0.011756 -0.002783 0.095952
v -0.011609 -0.006940 0.095088
v -0.010537 -0.009516 0.093835
v -0.011140 -0.007166 0.095204
v -0.011747 -0.000265 0.095165
v -0.009257 -0.012322 0.092486
v -0.007482 -0.015346 0.091103
v -0.006319 -0.016922 0.089580
v -0.005759 -0.017051 0.089668
v -0.010959 0.000439 0.083974
v -0.010633 0.001953 0.085321
v -0.011384 -0.001384 0.082705
v -0.011870 -0.006114 0.080114
v -0.011636 -0.003447 0.081510
v -0.011441 -0.011692 0.078125
v -0.011871 -0.009363 0.078517
v -0.010250 0.002974 0.086924
v -0.010124 0.003279 0.087862
v -0.010078 0.003549 0.089332
v -0.005169 -0.018171 0.087103
v -0.008197 -0.016611 0.080574
v -0.009552 -0.015224 0.079310
v -0.005361 -0.018369 0.084886
v -0.006607 -0.017808 0.082628
v -0.010256 0.003412 0.090766
v -0.010647 0.002803 0.092459
v -0.010645 -0.013637 0.078441
v -0.010143 0.002989 0.092488
v -0.010359 0.002793 0.087879
v 0.001382 0.004219 0.089236
v 0.001850 0.002729 0.086401
v 0.002487 -0.000483 0.084002
v 0.003253 -0.004680 0.081901
v 0.003574 -0.017258 0.083833
v 0.001850 0.002729 0.086401
vn -0.732754 0.602902 0.315563
vn -0.797978 0.491956 0.348153
vn -0.170723 0.609043 0.774545
vn -0.158741 0.749116 0.643138
vn -0.986719 0.120735 -0.108666
vn -0.985480 -0.025784 -0.167824
vn -0.993419 -0.047888 -0.104045
vn -0.961018 -0.250266 -0.117525
vn -0.948603 -0.308154 -0.072067
vn -0.972493 0.156525 -0.172505
vn -0.974195 0.103408 -0.200628
vn -0.950506 -0.228401 -0.210644
vn -0.901074 -0.406630 -0.150722
vn -0.875046 -0.482318 0.040785
vn -0.907894 -0.416221 0.049879
vn -0.794484 -0.603629 0.066537
vn -0.998310 0.050721 0.028351
vn -0.975736 0.216979 -0.029325
vn -0.963256 0.267241 -0.026858
vn -0.967051 0.251156 -0.041635
vn -0.996227 0.086490 0.007169
vn -0.996401 0.070051 0.047721
vn -0.983028 -0.125033 0.134252
vn -0.981556 -0.143349 0.126486
vn -0.968577 -0.145904 0.201423
vn -0.942578 -0.275799 0.188367
vn -0.928315 -0.276704 0.248329
vn -0.995602 -0.022863 -0.090850
vn -0.985652 0.141360 -0.092241
vn -0.920617 0.389871 -0.021559
vn -0.921602 0.385355 -0.046377
vn -0.809430 -0.579783 0.093142
vn -0.843667 -0.472934 0.254084
vn -0.921937 -0.354576 0.155912
vn -0.976751 -0.214204 0.008658
vn -0.856044 -0.397357 0.330601
vn -0.826133 -0.533449 0.181486
vn -0.676858 -0.722772 0.139513
vn -0.932569 0.354589 -0.067686
vn -0.970968 0.204384 -0.124292
vn -0.961935 0.270435 -0.039335
vn -0.089692 -0.473298 0.876324
vn -0.117416 -0.473255 0.873065
vn -0.097229 -0.553968 0.826841
vn -0.113182 0.971379 0.208836
vn -0.093963 0.972370 0.213702
vn -0.065718 0.997565 -0.023361
vn -0.135958 0.770377 0.622924
vn -0.113067 0.919050 0.377575
vn -0.004794 0.881526 -0.472112
vn -0.022892 0.872631 -0.487844
vn -0.056018 0.966154 -0.251812
vn -0.169191 0.340994 0.924715
vn -0.155498 0.362194 0.919041
vn -0.149025 0.625723 0.765678
vn -0.147201 -0.183263 0.971981
vn -0.122807 -0.193435 0.973397
vn -0.144936 0.109724 0.983338
vn -0.116828 -0.476932 0.871141
vn -0.093703 -0.471197 0.877037
vn -0.105007 -0.380096 0.918967
vn 0.016818 -0.956146 0.292406
vn 0.043436 -0.957365 0.285597
vn -0.009106 -0.819632 0.572818
vn 0.048619 0.599725 -0.798728
vn 0.021126 0.597441 -0.801634
vn -0.000466 0.730730 -0.682666
vn 0.071775 0.457841 -0.886132
vn 0.044483 0.471699 -0.880637
vn 0.032844 0.522408 -0.852063
vn 0.087139 0.353115 -0.931513
vn 0.067368 0.330944 -0.941243
vn 0.050878 0.445543 -0.893814
vn 0.089586 0.080749 -0.992700
vn 0.109652 0.126234 -0.985922
vn 0.130168 -0.193380 -0.972451
vn 0.118256 -0.458105 -0.880997
vn 0.139471 -0.453678 -0.880184
vn 0.139578 -0.687192 -0.712941
vn 0.087263 -0.991763 -0.093762
vn 0.066738 -0.991114 -0.115057
vn 0.095778 -0.868959 -0.485528
vn 0.043424 -0.957367 0.285593
vn -0.939911 0.328848 -0.091797
vn -0.155498 0.362171 0.919050
vn -0.082228 0.995462 -0.047898
vn -0.653710 -0.749486 0.104562
vn -0.896689 -0.396405 0.197009
vn -0.771205 -0.604900 0.198343
vn -0.742419 -0.631793 0.222827
vn 0.106541 -0.698494 -0.707640
vn 0.106218 -0.225495 -0.968437
vn 0.130157 -0.193386 -0.972451
vn -0.063527 -0.592581 0.803002
vn -0.827203 0.177893 0.533000
vn -0.824035 -0.146352 0.547309
vn -0.167042 0.125036 0.977989
vn -0.730492 -0.419189 0.539131
vn -0.687183 -0.535186 0.491279
vn -0.128404 -0.371942 0.919332
vn -0.785904 0.360527 0.502369
vn -0.652212 -0.576863 0.491781
vn -0.570533 -0.664066 0.483228
vn -0.496874 -0.814105 0.300581
vn -0.041095 -0.812880 0.580980
vn -0.651359 0.550763 -0.521912
vn -0.640934 0.654136 -0.401635
vn -0.673184 0.474912 -0.566818
vn -0.740890 0.321136 -0.589876
vn -0.689424 0.400098 -0.603835
vn -0.749016 -0.196670 -0.632689
vn -0.742680 0.168843 -0.648011
vn -0.598745 0.753283 -0.272156
vn -0.622893 0.768669 -0.145435
vn -0.618502 0.783421 -0.060885
vn -0.405326 -0.896943 0.176646
vn -0.495642 -0.836799 -0.232609
vn -0.564670 -0.726263 -0.392033
vn -0.386915 -0.921027 0.044781
vn -0.441933 -0.892052 -0.094546
vn -0.669125 0.741329 0.051986
vn -0.712677 0.690021 0.126345
vn -0.673310 -0.522564 -0.523049
vn -0.134109 0.918128 0.372901
vn -0.887506 0.458972 -0.040969
vn -0.036548 0.967119 -0.251686
vn 0.023637 0.755082 -0.655204
vn 0.059688 0.517900 -0.853356
vn 0.076729 0.439246 -0.895084
vn 0.118416 -0.891229 -0.437822
vn 0.023630 0.755098 -0.655186
vt 0.817094 0.687770
vt 0.826818 0.686721
vt 0.826234 0.688757
vt 0.816674 0.689823
vt 0.828087 0.682694
vt 0.830200 0.666694
vt 0.838837 0.667769
vt 0.834738 0.643053
vt 0.845176 0.644083
vt 0.830740 0.683043
vt 0.835098 0.677126
vt 0.842273 0.657917
vt 0.848288 0.631336
vt 0.852835 0.613973
vt 0.840523 0.612269
vt 0.853531 0.603737
vt 0.800752 0.661536
vt 0.802382 0.677018
vt 0.785512 0.668382
vt 0.785064 0.658692
vt 0.786234 0.649394
vt 0.787900 0.638060
vt 0.789952 0.625809
vt 0.802924 0.640001
vt 0.792911 0.609338
vt 0.795166 0.599945
vt 0.808279 0.609890
vt 0.816805 0.664162
vt 0.817187 0.679815
vt 0.790550 0.675171
vt 0.798889 0.681334
vt 0.839885 0.590672
vt 0.823911 0.592757
vt 0.823141 0.611030
vt 0.819487 0.641663
vt 0.809917 0.593024
vt 0.806616 0.589243
vt 0.841992 0.585568
vt 0.804263 0.683477
vt 0.827088 0.684199
vt 0.817254 0.685469
vt 0.904587 0.627823
vt 0.853108 0.628597
vt 0.857460 0.613153
vt 0.803921 0.688192
vt 0.789200 0.736955
vt 0.780715 0.734153
vt 0.801711 0.740741
vt 0.797367 0.739571
vt 0.767520 0.729322
vt 0.786395 0.677349
vt 0.790744 0.681355
vt 0.835187 0.687042
vt 0.818714 0.745302
vt 0.810772 0.743250
vt 0.842261 0.668810
vt 0.900252 0.674535
vt 0.898283 0.684558
vt 0.849634 0.644218
vt 0.904587 0.646080
vt 0.902946 0.659961
vt 0.856244 0.586717
vt 0.895993 0.583439
vt 0.898629 0.597663
vt 0.719304 0.656882
vt 0.780477 0.659435
vt 0.779552 0.668878
vt 0.717747 0.637294
vt 0.784038 0.638169
vt 0.782311 0.648562
vt 0.720896 0.603087
vt 0.790056 0.608565
vt 0.786520 0.624013
vt 0.792598 0.597276
vt 0.723400 0.590742
vt 0.724736 0.583159
vt 0.806455 0.585289
vt 0.831959 0.529906
vt 0.842701 0.534831
vt 0.862575 0.545851
vt 0.844631 0.580629
vt 0.832246 0.580429
vt 0.872756 0.551419
vt 0.813526 0.685327
vt 0.895494 0.696172
vt 0.796879 0.685467
vt 0.850193 0.589913
vt 0.798998 0.591672
vt 0.817254 0.586684
vt 0.829086 0.585112
vt 0.817559 0.582589
vt 0.794290 0.588646
vt 0.822980 0.525807
vt 0.901237 0.610486
vt 0.837566 0.676563
vt 0.840465 0.668591
vt 0.839698 0.675916
vt 0.844096 0.657491
vt 0.847267 0.644447
vt 0.846082 0.656555
vt 0.833166 0.685219
vt 0.850674 0.629973
vt 0.855094 0.613588
vt 0.855870 0.602375
vt 0.858207 0.601119
vt 0.782924 0.659215
vt 0.782748 0.668588
vt 0.784461 0.648966
vt 0.788428 0.624725
vt 0.786128 0.638134
vt 0.793892 0.598597
vt 0.791585 0.608826
vt 0.788530 0.676217
vt 0.792108 0.679456
vt 0.798015 0.683501
vt 0.853187 0.588328
vt 0.817001 0.584610
vt 0.806104 0.587242
vt 0.843200 0.583018
vt 0.830526 0.582691
vt 0.804331 0.685970
vt 0.812856 0.687584
vt 0.796461 0.590266
vt 0.811882 0.689562
vt 0.793228 0.677438
vt 0.773812 0.731607
vt 0.719317 0.665750
vt 0.718488 0.645757
vt 0.718150 0.621590
vt 0.853530 0.540698
vt 0.758985 0.726110
f 1/1/1 2/2/2 3/3/3
f 3/3/3 4/4/4 1/1/1
f 5/5/5 6/6/6 7/7/7
f 6/6/6 8/8/8 9/9/9
f 10/10/10 5/5/5 11/11/11
f 7/7/7 6/6/6 12/12/12
f 9/9/9 8/8/8 13/13/13
f 14/14/14 15/15/15 16/16/16
f 17/17/17 18/18/18 19/19/19
f 20/20/20 21/21/21 17/17/17
f 22/22/22 23/23/23 24/24/24
f 25/25/25 26/26/26 27/27/27
f 28/28/28 29/29/29 18/18/18
f 30/30/30 18/18/18 31/31/31
f 28/28/28 6/6/6 5/5/5
f 8/8/8 15/15/15 14/14/14
f 16/16/16 15/15/15 32/32/32
f 30/30/30 19/19/19 18/18/18
f 24/24/24 17/17/17 21/21/21
f 33/33/33 34/34/34 27/27/27
f 15/15/15 8/8/8 35/35/35
f 33/33/33 36/36/36 37/37/37
f 38/38/38 32/32/32 33/33/33
f 39/39/39 31/31/31 18/18/18
f 5/5/5 40/40/40 41/41/41
f 35/35/35 28/28/28 17/17/17
f 42/42/42 43/43/43 44/44/44
f 45/45/45 46/46/46 47/47/47
f 4/4/4 48/48/48 49/49/49
f 50/50/50 51/51/51 52/52/52
f 53/53/53 54/54/54 55/55/55
f 56/56/56 57/57/57 58/58/58
f 59/59/59 60/60/60 61/61/61
f 62/62/62 63/63/63 64/64/64
f 65/65/65 66/66/66 67/67/67
f 68/68/68 69/69/69 70/70/70
f 71/71/71 72/72/72 73/73/73
f 74/74/74 75/75/75 76/76/76
f 77/77/77 78/78/78 79/79/79
f 80/80/80 81/81/81 82/82/82
f 8/8/8 6/6/6 28/28/28
f 32/32/32 15/15/15 34/34/34
f 40/40/40 5/5/5 10/10/10
f 34/34/34 35/35/35 24/24/24
f 80/80/80 83/83/83 62/62/62
f 61/61/61 57/57/57 56/56/56
f 29/29/29 84/84/84 39/39/39
f 58/58/58 85/85/85 53/53/53
f 67/67/67 51/51/51 50/50/50
f 55/55/55 48/48/48 4/4/4
f 49/49/49 46/46/46 45/45/45
f 52/52/52 86/86/86 47/47/47
f 32/32/32 38/38/38 87/87/87
f 29/29/29 41/41/41 84/84/84
f 59/59/59 43/43/43 42/42/42
f 36/36/36 88/88/88 37/37/37
f 33/33/33 89/89/89 90/90/90
f 23/23/23 25/25/25 27/27/27
f 82/82/82 91/91/91 79/79/79
f 77/77/77 92/92/92 93/93/93
f 74/74/74 72/72/72 71/71/71
f 73/73/73 69/69/69 68/68/68
f 70/70/70 66/66/66 65/65/65
f 64/64/64 94/94/94 44/44/44
f 27/27/27 26/26/26 88/88/88
f 95/95/95 96/96/96 56/56/56
f 56/56/56 97/97/97 95/95/95
f 98/98/98 99/99/99 59/59/59
f 59/59/59 100/100/100 98/98/98
f 101/101/101 95/95/95 97/97/97
f 97/97/97 53/53/53 101/101/101
f 96/96/96 98/98/98 100/100/100
f 100/100/100 56/56/56 96/96/96
f 99/99/99 102/102/102 43/43/43
f 43/43/43 59/59/59 99/99/99
f 103/103/103 104/104/104 105/105/105
f 105/105/105 44/44/44 103/103/103
f 106/106/106 107/107/107 67/67/67
f 67/67/67 66/66/66 106/106/106
f 108/108/108 106/106/106 66/66/66
f 66/66/66 70/70/70 108/108/108
f 109/109/109 110/110/110 69/69/69
f 69/69/69 73/73/73 109/109/109
f 111/111/111 112/112/112 72/72/72
f 72/72/72 74/74/74 111/111/111
f 113/113/113 114/114/114 52/52/52
f 52/52/52 51/51/51 113/113/113
f 114/114/114 115/115/115 86/86/86
f 86/86/86 52/52/52 114/114/114
f 102/102/102 103/103/103 44/44/44
f 44/44/44 43/43/43 102/102/102
f 104/104/104 116/116/116 62/62/62
f 62/62/62 105/105/105 104/104/104
f 107/107/107 113/113/113 51/51/51
f 51/51/51 67/67/67 107/107/107
f 110/110/110 108/108/108 70/70/70
f 70/70/70 69/69/69 110/110/110
f 117/117/117 118/118/118 77/77/77
f 77/77/77 91/91/91 117/117/117
f 119/119/119 120/120/120 82/82/82
f 82/82/82 81/81/81 119/119/119
f 115/115/115 121/121/121 45/45/45
f 45/45/45 86/86/86 115/115/115
f 1/1/1 122/122/122 84/84/84
f 84/84/84 41/41/41 1/1/1
f 101/101/101 2/2/2 40/40/40
f 40/40/40 10/10/10 101/101/101
f 109/109/109 112/112/112 25/25/25
f 25/25/25 23/23/23 109/109/109
f 111/111/111 123/123/123 88/88/88
f 88/88/88 26/26/26 111/111/111
f 119/119/119 116/116/116 87/87/87
f 87/87/87 38/38/38 119/119/119
f 121/121/121 122/122/122 124/124/124
f 124/124/124 45/45/45 121/121/121
f 118/118/118 123/123/123 92/92/92
f 92/92/92 77/77/77 118/118/118
f 120/120/120 117/117/117 91/91/91
f 91/91/91 82/82/82 120/120/120
f 109/109/109 73/73/73 72/72/72
f 72/72/72 112/112/112 109/109/109
f 109/109/109 23/23/23 22/22/22
f 22/22/22 110/110/110 109/109/109
f 110/110/110 22/22/22 21/21/21
f 21/21/21 108/108/108 110/110/110
f 108/108/108 21/21/21 20/20/20
f 20/20/20 106/106/106 108/108/108
f 106/106/106 20/20/20 19/19/19
f 19/19/19 107/107/107 106/106/106
f 107/107/107 19/19/19 30/30/30
f 30/30/30 113/113/113 107/107/107
f 113/113/113 30/30/30 125/125/125
f 125/125/125 114/114/114 113/113/113
f 114/114/114 125/125/125 31/31/31
f 31/31/31 115/115/115 114/114/114
f 115/115/115 31/31/31 39/39/39
f 39/39/39 121/121/121 115/115/115
f 121/121/121 39/39/39 84/84/84
f 84/84/84 122/122/122 121/121/121
f 1/1/1 4/4/4 124/124/124
f 124/124/124 122/122/122 1/1/1
f 1/1/1 41/41/41 40/40/40
f 40/40/40 2/2/2 1/1/1
f 101/101/101 53/53/53 3/3/3
f 3/3/3 2/2/2 101/101/101
f 101/101/101 10/10/10 11/11/11
f 11/11/11 95/95/95 101/101/101
f 95/95/95 11/11/11 7/7/7
f 7/7/7 96/96/96 95/95/95
f 96/96/96 7/7/7 12/12/12
f 12/12/12 98/98/98 96/96/96
f 98/98/98 12/12/12 9/9/9
f 9/9/9 99/99/99 98/98/98
f 99/99/99 9/9/9 13/13/13
f 13/13/13 102/102/102 99/99/99
f 102/102/102 13/13/13 14/14/14
f 14/14/14 103/103/103 102/102/102
f 103/103/103 14/14/14 16/16/16
f 16/16/16 104/104/104 103/103/103
f 104/104/104 16/16/16 87/87/87
f 87/87/87 116/116/116 104/104/104
f 119/119/119 81/81/81 62/62/62
f 62/62/62 116/116/116 119/119/119
f 119/119/119 38/38/38 90/90/90
f 90/90/90 120/120/120 119/119/119
f 120/120/120 90/90/90 89/89/89
f 89/89/89 117/117/117 120/120/120
f 117/117/117 89/89/89 37/37/37
f 37/37/37 118/118/118 117/117/117
f 118/118/118 37/37/37 88/88/88
f 88/88/88 123/123/123 118/118/118
f 111/111/111 74/74/74 92/92/92
f 92/92/92 123/123/123 111/111/111
f 111/111/111 26/26/26 25/25/25
f 25/25/25 112/112/112 111/111/111
f 11/11/11 5/5/5 7/7/7
f 12/12/12 6/6/6 9/9/9
f 20/20/20 17/17/17 19/19/19
f 17/17/17 28/28/28 18/18/18
f 55/55/55 4/4/4 3/3/3
f 29/29/29 28/28/28 5/5/5
f 13/13/13 8/8/8 14/14/14
f 87/87/87 16/16/16 32/32/32
f 22/22/22 24/24/24 21/21/21
f 36/36/36 33/33/33 27/27/27
f 34/34/34 15/15/15 35/35/35
f 89/89/89 33/33/33 37/37/37
f 90/90/90 38/38/38 33/33/33
f 29/29/29 5/5/5 41/41/41
f 24/24/24 35/35/35 17/17/17
f 94/94/94 42/42/42 44/44/44
f 86/86/86 45/45/45 47/47/47
f 124/124/124 4/4/4 49/49/49
f 126/126/126 50/50/50 52/52/52
f 3/3/3 53/53/53 55/55/55
f 97/97/97 56/56/56 58/58/58
f 100/100/100 59/59/59 61/61/61
f 105/105/105 62/62/62 64/64/64
f 127/127/127 65/65/65 67/67/67
f 128/128/128 68/68/68 70/70/70
f 129/129/129 71/71/71 73/73/73
f 92/92/92 74/74/74 76/76/76
f 91/91/91 77/77/77 79/79/79
f 130/130/130 80/80/80 82/82/82
f 35/35/35 8/8/8 28/28/28
f 33/33/33 32/32/32 34/34/34
f 27/27/27 34/34/34 24/24/24
f 81/81/81 80/80/80 62/62/62
f 100/100/100 61/61/61 56/56/56
f 18/18/18 29/29/29 39/39/39
f 97/97/97 58/58/58 53/53/53
f 131/131/131 67/67/67 50/50/50
f 36/36/36 27/27/27 88/88/88
f 124/124/124 49/49/49 45/45/45
f 126/126/126 52/52/52 47/47/47
f 60/60/60 59/59/59 42/42/42
f 24/24/24 23/23/23 27/27/27
f 130/130/130 82/82/82 79/79/79
f 78/78/78 77/77/77 93/93/93
f 75/75/75 74/74/74 71/71/71
f 129/129/129 73/73/73 68/68/68
f 128/128/128 70/70/70 65/65/65
f 105/105/105 64/64/64 44/44/44
f 125/125/125 30/30/30 31/31/31
