#
#
#

mtllib RMenu.mtl


#
# RMenu Mesh
#
g RMenu Mesh


#
# RMenu Mesh_Phx_Controller_R:RBodySG
#
usemtl RMenu Mesh_Phx_Controller_R:RBodySG

v 0.019174 0.008103 0.058442
v 0.021423 0.006762 0.055292
v 0.018504 0.007921 0.057931
v 0.022990 0.005289 0.051830
v 0.022185 0.005226 0.051590
v 0.023664 0.005428 0.052155
v 0.024319 0.005609 0.052658
v 0.017631 0.007426 0.056706
v 0.017417 0.007151 0.056035
v 0.017385 0.005577 0.056682
v 0.017328 0.006818 0.055235
v 0.017405 0.006545 0.054560
v 0.017372 0.004971 0.055206
v 0.017639 0.006230 0.053840
v 0.018004 0.005973 0.053197
v 0.017971 0.004399 0.053844
v 0.018535 0.005700 0.052612
v 0.019122 0.005522 0.052154
v 0.019089 0.003948 0.052800
v 0.019851 0.005340 0.051812
v 0.020591 0.005259 0.051590
v 0.020558 0.003686 0.052236
v 0.021417 0.005194 0.051533
v 0.022185 0.005226 0.051590
v 0.022153 0.003653 0.052237
v 0.022990 0.005289 0.051830
v 0.023664 0.005428 0.052155
v 0.023631 0.003854 0.052802
v 0.024319 0.005609 0.052658
v 0.024800 0.005833 0.053198
v 0.024767 0.004259 0.053845
v 0.025183 0.006086 0.053842
v 0.025421 0.006380 0.054562
v 0.025389 0.004806 0.055208
v 0.025513 0.006700 0.055325
v 0.025433 0.006984 0.056037
v 0.025401 0.005411 0.056683
v 0.025211 0.007298 0.056744
v 0.024834 0.007557 0.057400
v 0.024801 0.005984 0.058046
v 0.025157 0.004515 0.054501
v 0.023715 0.008009 0.058443
v 0.023010 0.008193 0.058786
v 0.022994 0.006608 0.059416
v 0.024262 0.004021 0.053277
v 0.025477 0.005128 0.055984
v 0.022247 0.008271 0.059008
v 0.021416 0.008342 0.059073
v 0.021391 0.006761 0.059711
v 0.022952 0.003707 0.052467
v 0.024350 0.007818 0.057951
v 0.024315 0.006238 0.058589
v 0.021386 0.003613 0.052170
v 0.020652 0.008303 0.059007
v 0.019826 0.008245 0.058766
v 0.019827 0.006669 0.059417
v 0.019777 0.003767 0.052464
v 0.019174 0.008103 0.058442
v 0.018504 0.007921 0.057931
v 0.018495 0.006350 0.058592
v 0.018004 0.005973 0.053197
v 0.018471 0.004130 0.053276
v 0.025166 0.005727 0.057403
v 0.017603 0.004649 0.054479
v 0.018038 0.007698 0.057399
v 0.017610 0.005858 0.057374
v 0.017293 0.005249 0.055899
v 0.018005 0.006124 0.058044
v 0.019142 0.006529 0.059088
v 0.020619 0.006730 0.059652
v 0.022214 0.006697 0.059653
v 0.023682 0.006434 0.059089
v 0.019826 0.008245 0.058766
v 0.020652 0.008303 0.059007
v 0.021416 0.008342 0.059073
v 0.022247 0.008271 0.059008
v 0.023010 0.008193 0.058786
v 0.023715 0.008009 0.058443
v 0.024350 0.007818 0.057951
v 0.024834 0.007557 0.057400
v 0.025211 0.007298 0.056744
v 0.025433 0.006984 0.056037
v 0.025513 0.006700 0.055325
v 0.025421 0.006380 0.054562
v 0.025183 0.006086 0.053842
v 0.024800 0.005833 0.053198
v 0.021417 0.005194 0.051533
v 0.020591 0.005259 0.051590
v 0.019851 0.005340 0.051812
v 0.019122 0.005522 0.052154
v 0.018535 0.005700 0.052612
v 0.018004 0.005973 0.053197
v 0.017639 0.006230 0.053840
v 0.017405 0.006545 0.054560
v 0.017328 0.006818 0.055235
v 0.017417 0.007151 0.056035
v 0.017631 0.007426 0.056706
v 0.018038 0.007698 0.057399
v 0.017971 0.004399 0.053844
vn 0.015232 0.923963 -0.382178
vn 0.019463 0.923820 -0.382333
vn 0.021571 0.923924 -0.381968
vn 0.020772 0.923291 -0.383538
vn 0.016510 0.924743 -0.380234
vn 0.015261 0.923970 -0.382160
vn 0.020957 0.924141 -0.381477
vn -0.920992 0.163997 0.353383
vn -0.981858 0.089750 0.167030
vn -0.980909 0.089915 0.172430
vn -0.999768 0.021429 -0.002292
vn -0.979523 -0.057352 -0.192993
vn -0.980082 -0.057494 -0.190088
vn -0.926368 -0.124102 -0.355587
vn -0.832007 -0.193182 -0.520043
vn -0.833865 -0.193181 -0.517060
vn -0.710312 -0.250681 -0.657736
vn -0.556844 -0.302593 -0.773539
vn -0.562657 -0.302744 -0.769262
vn -0.386504 -0.339000 -0.857726
vn -0.197959 -0.366731 -0.909022
vn -0.201343 -0.367107 -0.908126
vn -0.005839 -0.376118 -0.926553
vn 0.192453 -0.374300 -0.907117
vn 0.192136 -0.374166 -0.907240
vn 0.377135 -0.355388 -0.855259
vn 0.553915 -0.324272 -0.766828
vn 0.550904 -0.325370 -0.768531
vn 0.703319 -0.279972 -0.653421
vn 0.828418 -0.227532 -0.511813
vn 0.827646 -0.227699 -0.512987
vn 0.920525 -0.164554 -0.354338
vn 0.979646 -0.094120 -0.177302
vn 0.980262 -0.091768 -0.175113
vn 0.999759 -0.021940 0.000080
vn 0.980721 0.055059 0.187496
vn 0.980087 0.057693 0.190004
vn 0.927322 0.122873 0.353519
vn 0.835469 0.191947 0.514925
vn 0.834586 0.193281 0.515857
vn 0.921092 -0.163451 -0.353374
vn 0.562060 0.302406 0.769831
vn 0.390412 0.339435 0.855781
vn 0.391877 0.338312 0.855557
vn 0.701259 -0.282263 -0.654648
vn 0.999772 -0.021328 0.000605
vn 0.196731 0.366964 0.909194
vn 0.009191 0.376146 0.926515
vn 0.009607 0.375963 0.926585
vn 0.376620 -0.355875 -0.855284
vn 0.713358 0.250247 0.654597
vn 0.713586 0.249861 0.654496
vn -0.005714 -0.376130 -0.926549
vn -0.198101 0.374713 0.905730
vn -0.375223 0.356268 0.855734
vn -0.373261 0.355517 0.856904
vn -0.389162 -0.339943 -0.856149
vn -0.560370 0.323789 0.762329
vn -0.701617 0.281697 0.654508
vn -0.700074 0.281161 0.656388
vn -0.832008 -0.193190 -0.520040
vn -0.712016 -0.251324 -0.655644
vn 0.926710 0.124313 0.354619
vn -0.926107 -0.124089 -0.356269
vn -0.833876 0.224641 0.504170
vn -0.920452 0.163679 0.354932
vn -0.999776 0.021143 -0.000227
vn -0.830652 0.224647 0.509462
vn -0.555118 0.323338 0.766353
vn -0.194234 0.373957 0.906879
vn 0.199626 0.366132 0.908899
vn 0.564022 0.301535 0.768736
vn 0.020995 0.922987 -0.384257
vn 0.016328 0.924732 -0.380269
vn 0.019068 0.922476 -0.385583
vn 0.018733 0.924942 -0.379647
vn 0.016512 0.922673 -0.385230
vn 0.020900 0.924427 -0.380787
vn 0.015181 0.923403 -0.383533
vn 0.021652 0.923437 -0.383139
vn 0.015317 0.924385 -0.381154
vn 0.020255 0.922830 -0.384675
vn 0.017136 0.924990 -0.379605
vn 0.017984 0.922645 -0.385232
vn 0.019557 0.924835 -0.379865
vn 0.015845 0.923052 -0.384349
vn 0.019116 0.922793 -0.384823
vn 0.018683 0.924947 -0.379637
vn 0.017006 0.922931 -0.384590
vn 0.020694 0.924480 -0.380668
vn 0.015680 0.923635 -0.382952
vn 0.021353 0.923606 -0.382748
vn 0.016095 0.924480 -0.380892
vn 0.020186 0.922933 -0.384431
vn 0.017926 0.924982 -0.379588
vn 0.017960 0.922629 -0.385271
vn 0.020117 0.924587 -0.380441
vn 0.015812 0.923041 -0.384376
vn -0.833858 -0.193191 -0.517067
vt 0.441495 0.040172
vt 0.445491 0.021270
vt 0.445533 0.040620
vt 0.452895 0.003522
vt 0.456390 0.005404
vt 0.449473 0.002439
vt 0.445506 0.002016
vt 0.365612 0.491672
vt 0.366769 0.488298
vt 0.374375 0.490855
vt 0.368102 0.484408
vt 0.369177 0.481129
vt 0.376784 0.483683
vt 0.370470 0.477483
vt 0.371580 0.473964
vt 0.379190 0.476513
vt 0.334758 0.585049
vt 0.335810 0.581592
vt 0.343423 0.584131
vt 0.337144 0.577938
vt 0.338195 0.574425
vt 0.345811 0.576955
vt 0.339529 0.570743
vt 0.340572 0.567256
vt 0.348190 0.569778
vt 0.341898 0.563515
vt 0.342942 0.560081
vt 0.350562 0.562595
vt 0.344238 0.556307
vt 0.345307 0.552901
vt 0.352929 0.555410
vt 0.346480 0.549360
vt 0.347672 0.545716
vt 0.355294 0.548224
vt 0.348861 0.541971
vt 0.350037 0.538530
vt 0.357659 0.541040
vt 0.351147 0.534901
vt 0.352405 0.531347
vt 0.360026 0.533862
vt 0.354139 0.551809
vt 0.354780 0.524167
vt 0.355854 0.520524
vt 0.363453 0.523157
vt 0.351819 0.558999
vt 0.356518 0.544428
vt 0.357163 0.516989
vt 0.358292 0.513208
vt 0.365909 0.515784
vt 0.349521 0.566077
vt 0.353451 0.527825
vt 0.361077 0.530375
vt 0.347165 0.573264
vt 0.359554 0.509815
vt 0.360747 0.505924
vt 0.368323 0.508621
vt 0.344715 0.580653
vt 0.361954 0.502641
vt 0.363182 0.498767
vt 0.370765 0.501444
vt 0.333417 0.588757
vt 0.342333 0.587751
vt 0.358806 0.537349
vt 0.378105 0.480008
vt 0.364359 0.495469
vt 0.373196 0.494343
vt 0.375695 0.487055
vt 0.371967 0.498023
vt 0.369561 0.505193
vt 0.367166 0.512356
vt 0.364778 0.519521
vt 0.362398 0.526690
vt 0.438146 0.039164
vt 0.434577 0.037207
vt 0.431788 0.034901
vt 0.429322 0.031822
vt 0.427572 0.028483
vt 0.426526 0.024833
vt 0.426184 0.020957
vt 0.426619 0.017309
vt 0.427732 0.013707
vt 0.429586 0.010396
vt 0.431891 0.007584
vt 0.434967 0.005140
vt 0.438363 0.003360
vt 0.441952 0.002348
vt 0.459161 0.007761
vt 0.461645 0.010789
vt 0.463311 0.014055
vt 0.464440 0.017777
vt 0.464742 0.021377
vt 0.464347 0.025301
vt 0.463237 0.028819
vt 0.461382 0.032212
vt 0.459200 0.034886
vt 0.456001 0.037470
vt 0.452859 0.039156
vt 0.449016 0.040262
vt 0.341027 0.591304
f 1/1/1 2/2/2 3/3/3
f 4/4/4 5/5/5 2/2/2
f 6/6/6 4/4/4 2/2/2
f 6/6/6 2/2/2 7/7/7
f 8/8/8 9/9/9 10/10/10
f 11/11/11 12/12/12 13/13/13
f 14/14/14 15/15/15 16/16/16
f 17/17/17 18/18/18 19/19/19
f 20/20/20 21/21/21 22/22/22
f 23/23/23 24/24/24 25/25/25
f 26/26/26 27/27/27 28/28/28
f 29/29/29 30/30/30 31/31/31
f 32/32/32 33/33/33 34/34/34
f 35/35/35 36/36/36 37/37/37
f 38/38/38 39/39/39 40/40/40
f 30/30/30 32/32/32 41/41/41
f 42/42/42 43/43/43 44/44/44
f 27/27/27 29/29/29 45/45/45
f 33/33/33 35/35/35 46/46/46
f 47/47/47 48/48/48 49/49/49
f 24/24/24 26/26/26 50/50/50
f 39/39/39 51/51/51 52/52/52
f 21/21/21 23/23/23 53/53/53
f 54/54/54 55/55/55 56/56/56
f 18/18/18 20/20/20 57/57/57
f 58/58/58 59/59/59 60/60/60
f 61/61/61 17/17/17 62/62/62
f 36/36/36 38/38/38 63/63/63
f 12/12/12 14/14/14 64/64/64
f 65/65/65 8/8/8 66/66/66
f 9/9/9 11/11/11 67/67/67
f 59/59/59 65/65/65 68/68/68
f 55/55/55 58/58/58 69/69/69
f 48/48/48 54/54/54 70/70/70
f 43/43/43 47/47/47 71/71/71
f 51/51/51 42/42/42 72/72/72
f 73/73/73 2/2/2 1/1/1
f 74/74/74 2/2/2 73/73/73
f 75/75/75 2/2/2 74/74/74
f 76/76/76 2/2/2 75/75/75
f 77/77/77 2/2/2 76/76/76
f 78/78/78 2/2/2 77/77/77
f 79/79/79 2/2/2 78/78/78
f 80/80/80 2/2/2 79/79/79
f 81/81/81 2/2/2 80/80/80
f 82/82/82 2/2/2 81/81/81
f 83/83/83 2/2/2 82/82/82
f 84/84/84 2/2/2 83/83/83
f 85/85/85 2/2/2 84/84/84
f 86/86/86 2/2/2 85/85/85
f 7/7/7 2/2/2 86/86/86
f 87/87/87 2/2/2 5/5/5
f 88/88/88 2/2/2 87/87/87
f 89/89/89 2/2/2 88/88/88
f 90/90/90 2/2/2 89/89/89
f 91/91/91 2/2/2 90/90/90
f 92/92/92 2/2/2 91/91/91
f 93/93/93 2/2/2 92/92/92
f 94/94/94 2/2/2 93/93/93
f 95/95/95 2/2/2 94/94/94
f 96/96/96 2/2/2 95/95/95
f 97/97/97 2/2/2 96/96/96
f 98/98/98 2/2/2 97/97/97
f 3/3/3 2/2/2 98/98/98
f 66/66/66 8/8/8 10/10/10
f 67/67/67 11/11/11 13/13/13
f 64/64/64 14/14/14 16/16/16
f 62/62/62 17/17/17 19/19/19
f 57/57/57 20/20/20 22/22/22
f 53/53/53 23/23/23 25/25/25
f 50/50/50 26/26/26 28/28/28
f 45/45/45 29/29/29 31/31/31
f 41/41/41 32/32/32 34/34/34
f 46/46/46 35/35/35 37/37/37
f 63/63/63 38/38/38 40/40/40
f 31/31/31 30/30/30 41/41/41
f 72/72/72 42/42/42 44/44/44
f 28/28/28 27/27/27 45/45/45
f 34/34/34 33/33/33 46/46/46
f 71/71/71 47/47/47 49/49/49
f 25/25/25 24/24/24 50/50/50
f 40/40/40 39/39/39 52/52/52
f 22/22/22 21/21/21 53/53/53
f 70/70/70 54/54/54 56/56/56
f 19/19/19 18/18/18 57/57/57
f 69/69/69 58/58/58 60/60/60
f 99/99/99 61/61/61 62/62/62
f 37/37/37 36/36/36 63/63/63
f 13/13/13 12/12/12 64/64/64
f 68/68/68 65/65/65 66/66/66
f 10/10/10 9/9/9 67/67/67
f 60/60/60 59/59/59 68/68/68
f 56/56/56 55/55/55 69/69/69
f 49/49/49 48/48/48 70/70/70
f 44/44/44 43/43/43 71/71/71
f 52/52/52 51/51/51 72/72/72
