#
#
#

mtllib RTrigger.mtl


#
# RTrigger Mesh
#
g RTrigger Mesh


#
# RTrigger Mesh_Phx_Controller_R:RBodySG
#
usemtl RTrigger Mesh_Phx_Controller_R:RBodySG

v 0.014480 -0.035529 0.051692
v 0.014935 -0.035452 0.051979
v 0.013607 -0.037221 0.053117
v 0.013077 -0.037340 0.052858
v -0.008119 -0.034572 0.052406
v -0.005818 -0.037706 0.054207
v -0.005616 -0.026348 0.060993
v 0.009200 -0.041003 0.054519
v 0.008466 -0.038769 0.052696
v 0.011431 -0.039147 0.053776
v -0.005433 -0.037880 0.053387
v -0.002009 -0.038332 0.052634
v -0.002847 -0.040363 0.054355
v 0.011984 -0.038843 0.054514
v 0.011522 -0.026253 0.061885
v 0.009048 -0.026980 0.064027
v -0.000723 -0.027627 0.064998
v -0.003432 -0.027232 0.063291
v -0.003126 -0.040338 0.055240
v 0.006138 -0.027533 0.065513
v 0.006299 -0.042585 0.055839
v 0.009433 -0.041035 0.055399
v 0.004173 -0.027724 0.040472
v 0.004388 -0.025475 0.037553
v 0.012834 -0.026908 0.040789
v -0.006691 -0.033230 0.049620
v -0.001585 -0.032296 0.047408
v 0.003676 -0.032940 0.047172
v 0.010079 -0.028872 0.043039
v 0.009191 -0.032866 0.047628
v 0.012974 -0.035273 0.051153
v 0.003131 -0.040102 0.053003
v -0.001854 -0.027743 0.041021
v 0.015441 -0.030122 0.045911
v -0.000106 -0.042217 0.054922
v 0.003119 -0.027748 0.065978
v 0.002926 -0.043190 0.055931
v 0.006414 -0.042401 0.054943
v 0.002972 -0.043060 0.055073
v 0.013744 -0.025420 0.059336
v 0.011522 -0.026253 0.061885
v 0.015004 -0.024742 0.057428
v 0.015074 -0.035145 0.052404
v 0.016068 -0.033531 0.051430
v 0.016001 -0.024094 0.055608
v 0.017497 -0.030559 0.048496
v 0.001128 -0.027689 0.065804
v -0.000296 -0.042215 0.055756
v -0.008271 -0.029256 0.044833
v -0.006942 -0.027136 0.041383
v -0.007334 -0.025239 0.058764
v -0.008400 -0.024346 0.056338
v -0.009690 -0.031889 0.050135
v -0.009434 -0.023379 0.053728
v -0.010342 -0.030356 0.048352
v -0.010378 -0.022356 0.050804
v -0.010763 -0.028782 0.046510
v -0.010742 -0.021179 0.047439
v -0.010765 -0.027290 0.044490
v -0.010742 -0.021179 0.047439
v -0.009933 -0.020205 0.044386
v -0.007876 -0.019216 0.041737
v -0.008006 -0.025151 0.039894
v -0.004524 -0.018437 0.039524
v -0.004988 -0.024196 0.037775
v -0.000624 -0.017942 0.038142
v -0.000695 -0.023638 0.036318
v 0.004710 -0.017760 0.037579
v 0.004571 -0.023465 0.035916
v 0.009603 -0.018125 0.038661
v 0.009567 -0.023775 0.036723
v 0.013978 -0.018895 0.040828
v 0.014150 -0.024804 0.039011
v 0.015693 -0.019438 0.042323
v 0.017027 -0.020063 0.044152
v 0.017008 -0.026070 0.042032
v 0.017027 -0.020063 0.044152
v 0.017992 -0.021118 0.047119
v 0.017961 -0.027834 0.044967
v 0.017419 -0.022792 0.052034
v -0.002123 -0.025827 0.038469
v -0.007697 -0.034757 0.051505
v -0.009036 -0.032445 0.049550
v -0.009624 -0.031177 0.048061
v -0.010088 -0.029287 0.045923
v -0.010086 -0.028053 0.044263
v -0.009074 -0.026750 0.041796
v -0.007681 -0.026012 0.040008
v -0.004393 -0.025009 0.037801
v -0.000803 -0.024543 0.036587
v 0.004514 -0.024361 0.036141
v 0.009748 -0.024704 0.037075
v 0.013733 -0.025648 0.039136
v 0.014993 -0.026230 0.040328
v 0.016215 -0.026715 0.041701
v 0.017265 -0.028660 0.044849
v 0.016873 -0.030919 0.047754
v 0.015337 -0.034184 0.050907
v 0.015655 -0.025491 0.040419
v 0.013077 -0.037340 0.052858
v 0.013854 -0.036827 0.053481
v 0.002940 -0.043350 0.055482
v 0.006394 -0.042710 0.055371
v 0.009397 -0.041214 0.054932
v 0.011823 -0.039134 0.054090
v -0.005755 -0.037942 0.053754
v -0.003079 -0.040537 0.054768
v -0.000255 -0.042428 0.055317
v 0.015874 -0.033950 0.051087
v 0.017376 -0.030872 0.048050
v -0.008069 -0.034771 0.051887
v -0.009545 -0.032236 0.049743
v -0.010174 -0.030781 0.048063
v -0.010623 -0.029062 0.046066
v -0.010622 -0.027678 0.044199
v -0.009638 -0.026398 0.041737
v -0.007948 -0.025558 0.039712
v -0.004808 -0.024567 0.037519
v -0.000775 -0.024047 0.036163
v 0.004556 -0.023867 0.035733
v 0.009740 -0.024197 0.036616
v 0.014087 -0.025199 0.038821
v 0.015490 -0.025842 0.040140
v 0.016796 -0.026427 0.041681
v 0.017810 -0.028347 0.044787
v 0.017810 -0.028347 0.044787
v -0.009832 -0.026066 0.042098
v -0.005616 -0.026348 0.060993
v 0.017810 -0.028347 0.044787
vn 0.300955 -0.647330 -0.700279
vn 0.718317 -0.649424 -0.249539
vn 0.679505 -0.704153 -0.206014
vn 0.274745 -0.637365 -0.719917
vn -0.851338 -0.276324 0.445946
vn -0.725580 -0.384650 0.570595
vn -0.777346 -0.309500 0.547671
vn 0.244267 -0.640495 -0.728080
vn 0.157943 -0.635304 -0.755939
vn 0.279565 -0.629215 -0.725212
vn -0.305432 -0.654012 -0.692084
vn -0.176078 -0.616613 -0.767323
vn -0.298330 -0.623648 -0.722539
vn 0.648566 -0.400712 0.647142
vn 0.714369 -0.333868 0.614987
vn 0.555294 -0.417421 0.719311
vn -0.442838 -0.483515 0.755055
vn -0.615240 -0.412840 0.671598
vn -0.545066 -0.479447 0.687775
vn 0.308438 -0.503158 0.807278
vn 0.231798 -0.554843 0.799011
vn 0.464686 -0.491523 0.736527
vn 0.023864 -0.797042 -0.603453
vn 0.027290 -0.796371 -0.604193
vn 0.117901 -0.810640 -0.573553
vn -0.189055 -0.707614 -0.680838
vn -0.130750 -0.733424 -0.667078
vn -0.021060 -0.710103 -0.703783
vn 0.113407 -0.787729 -0.605494
vn 0.124138 -0.709244 -0.693947
vn 0.214358 -0.686741 -0.694578
vn -0.025834 -0.612744 -0.789859
vn -0.088231 -0.808793 -0.581438
vn 0.193156 -0.762341 -0.617678
vn -0.174340 -0.611754 -0.771597
vn 0.061835 -0.540992 0.838751
vn -0.032996 -0.578695 0.814876
vn 0.127458 -0.625717 -0.769567
vn 0.000477 -0.635509 -0.772093
vn 0.792807 -0.281899 0.540360
vn 0.714379 -0.333860 0.614980
vn 0.860754 -0.217058 0.460423
vn 0.834065 -0.271732 0.480101
vn 0.909442 -0.205604 0.361445
vn 0.919349 -0.154272 0.361937
vn 0.968776 -0.125266 0.213966
vn -0.210912 -0.532772 0.819555
vn -0.319266 -0.547634 0.773412
vn -0.189762 -0.798512 -0.571287
vn -0.158557 -0.807106 -0.568718
vn -0.864410 -0.225673 0.449297
vn -0.930947 -0.128456 0.341815
vn -0.927944 -0.171066 0.331144
vn -0.947518 -0.117965 0.297144
vn -0.970824 -0.088114 0.223018
vn -0.977951 -0.082316 0.191928
vn -0.993178 -0.039902 0.109566
vn -0.998616 0.025810 -0.045832
vn -0.992137 0.036229 -0.119798
vn -0.998617 0.025798 -0.045811
vn -0.902436 0.153774 -0.402447
vn -0.696026 0.236045 -0.678108
vn -0.705918 0.225521 -0.671431
vn -0.454786 0.289601 -0.842200
vn -0.478244 0.285254 -0.830610
vn -0.209865 0.293228 -0.932724
vn -0.204003 0.315734 -0.926658
vn 0.043755 0.291720 -0.955503
vn 0.034123 0.297594 -0.954083
vn 0.354068 0.298121 -0.886431
vn 0.338636 0.298871 -0.892189
vn 0.537871 0.257733 -0.802663
vn 0.560497 0.268217 -0.783519
vn 0.750443 0.202283 -0.629219
vn 0.915353 0.127321 -0.381993
vn 0.916073 0.096050 -0.389338
vn 0.915362 0.127312 -0.381975
vn 0.999109 0.008874 -0.041271
vn 0.998347 -0.019711 -0.053998
vn 0.974785 -0.084378 0.206579
vn -0.079095 -0.802077 -0.591960
vn -0.366787 -0.677094 -0.637974
vn -0.344513 -0.747533 -0.567895
vn -0.293164 -0.759308 -0.580953
vn -0.346614 -0.760130 -0.549600
vn -0.375119 -0.748251 -0.547180
vn -0.323514 -0.755678 -0.569464
vn -0.240294 -0.753615 -0.611820
vn -0.158988 -0.752041 -0.639654
vn -0.062349 -0.751507 -0.656772
vn 0.013209 -0.732003 -0.681173
vn 0.095987 -0.787936 -0.608229
vn 0.161886 -0.765117 -0.623209
vn 0.226764 -0.806018 -0.546730
vn 0.246359 -0.789942 -0.561515
vn 0.287393 -0.762504 -0.579649
vn 0.366456 -0.740322 -0.563590
vn 0.324633 -0.731051 -0.600148
vn 0.750907 0.194952 -0.630978
vn 0.167519 -0.622226 -0.764704
vn 0.750981 -0.326474 0.573970
vn -0.039529 -0.992632 -0.114536
vn 0.303135 -0.944342 -0.127780
vn 0.522631 -0.844889 -0.114099
vn 0.641323 -0.752317 -0.150747
vn -0.702850 -0.692565 -0.162344
vn -0.600837 -0.788718 -0.130074
vn -0.405539 -0.908871 -0.097428
vn 0.717489 -0.637403 -0.280939
vn 0.761579 -0.578181 -0.292754
vn -0.751792 -0.630426 -0.193316
vn -0.777495 -0.599174 -0.191028
vn -0.751439 -0.590392 -0.294579
vn -0.762560 -0.539885 -0.356408
vn -0.742263 -0.480798 -0.466775
vn -0.685397 -0.386928 -0.616861
vn -0.539934 -0.326491 -0.775806
vn -0.376097 -0.235335 -0.896197
vn -0.166408 -0.231135 -0.958585
vn 0.036544 -0.259001 -0.965185
vn 0.275254 -0.260148 -0.925504
vn 0.444755 -0.259022 -0.857380
vn 0.578090 -0.385741 -0.719038
vn 0.656810 -0.457465 -0.599438
vn 0.639208 -0.543174 -0.544403
vn 0.379544 -0.754928 -0.534818
vn -0.881703 0.140863 -0.450286
vn -0.777357 -0.309488 0.547662
vn 0.962597 -0.260637 -0.073996
vt 0.774777 0.107262
vt 0.772466 0.106432
vt 0.778971 0.096194
vt 0.781611 0.096939
vt 0.885004 0.103655
vt 0.871624 0.085917
vt 0.934598 0.075533
vt 0.801545 0.085358
vt 0.802984 0.097991
vt 0.789834 0.088429
vt 0.868657 0.091088
vt 0.853290 0.098715
vt 0.854147 0.087064
vt 0.785984 0.083315
vt 0.783026 0.009119
vt 0.798799 0.005249
vt 0.852525 0.006378
vt 0.868095 0.012547
vt 0.855536 0.082871
vt 0.815631 0.002344
vt 0.814679 0.080526
vt 0.800383 0.081210
vt 0.824911 0.171445
vt 0.824223 0.188213
vt 0.783367 0.173095
vt 0.877439 0.120113
vt 0.853068 0.133329
vt 0.826949 0.133895
vt 0.796042 0.159375
vt 0.799612 0.131878
vt 0.781507 0.110577
vt 0.827896 0.096956
vt 0.853553 0.168831
vt 0.769892 0.145156
vt 0.841118 0.085284
vt 0.831795 0.001953
vt 0.828557 0.081299
vt 0.814070 0.084087
vt 0.828241 0.084714
vt 0.717014 0.089249
vt 0.717976 0.072520
vt 0.716460 0.101305
vt 0.770247 0.105397
vt 0.764773 0.114051
vt 0.716460 0.112617
vt 0.757705 0.133839
vt 0.842383 0.003010
vt 0.841971 0.081827
vt 0.885384 0.150018
vt 0.877870 0.168866
vt 0.936779 0.090268
vt 0.937023 0.104406
vt 0.893572 0.120742
vt 0.936849 0.119680
vt 0.896980 0.132315
vt 0.935723 0.136396
vt 0.899624 0.144334
vt 0.934034 0.154225
vt 0.900536 0.157556
vt 0.924309 0.182078
vt 0.912500 0.193664
vt 0.897495 0.206581
vt 0.883024 0.181272
vt 0.876614 0.218670
vt 0.868308 0.191773
vt 0.852979 0.226407
vt 0.848214 0.199042
vt 0.821340 0.229016
vt 0.823388 0.201534
vt 0.792223 0.224181
vt 0.799766 0.197700
vt 0.766602 0.212940
vt 0.777373 0.186939
vt 0.755831 0.206379
vt 0.746050 0.199950
vt 0.760366 0.172118
vt 0.728321 0.178808
vt 0.723310 0.162255
vt 0.756119 0.155051
vt 0.718193 0.134326
vt 0.854445 0.183381
vt 0.881258 0.107391
vt 0.888592 0.122007
vt 0.891672 0.131890
vt 0.894468 0.145492
vt 0.894782 0.155851
vt 0.888071 0.168833
vt 0.880028 0.177312
vt 0.864734 0.188040
vt 0.848259 0.193952
vt 0.823699 0.196533
vt 0.799324 0.192415
vt 0.780051 0.182814
vt 0.773339 0.177147
vt 0.766392 0.170841
vt 0.761117 0.153273
vt 0.762626 0.135833
vt 0.770212 0.114414
vt 0.768998 0.179947
vt 0.776369 0.095600
vt 0.828387 0.082975
vt 0.814471 0.082281
vt 0.801049 0.083266
vt 0.787968 0.085890
vt 0.870097 0.088568
vt 0.854743 0.084963
vt 0.841409 0.083570
vt 0.767393 0.114430
vt 0.759959 0.135258
vt 0.883198 0.105685
vt 0.891253 0.121732
vt 0.894533 0.132572
vt 0.897320 0.145493
vt 0.897857 0.157300
vt 0.890642 0.170292
vt 0.881651 0.179806
vt 0.866641 0.190371
vt 0.848315 0.196957
vt 0.823529 0.199506
vt 0.799486 0.195552
vt 0.778569 0.185335
vt 0.771034 0.179098
vt 0.763165 0.172107
vt 0.758387 0.154754
vt 0.892965 0.170594
vt 0.883068 0.018127
f 1/1/1 2/2/2 3/3/3
f 3/3/3 4/4/4 1/1/1
f 5/5/5 6/6/6 7/7/7
f 8/8/8 9/9/9 10/10/10
f 11/11/11 12/12/12 13/13/13
f 14/14/14 15/15/15 16/16/16
f 17/17/17 18/18/18 19/19/19
f 20/20/20 21/21/21 22/22/22
f 23/23/23 24/24/24 25/25/25
f 12/12/12 26/26/26 27/27/27
f 28/28/28 23/23/23 29/29/29
f 9/9/9 30/30/30 31/31/31
f 12/12/12 27/27/27 28/28/28
f 32/32/32 28/28/28 30/30/30
f 27/27/27 33/33/33 23/23/23
f 34/34/34 31/31/31 30/30/30
f 12/12/12 35/35/35 13/13/13
f 36/36/36 37/37/37 21/21/21
f 38/38/38 39/39/39 9/9/9
f 40/40/40 41/41/41 14/14/14
f 42/42/42 43/43/43 44/44/44
f 45/45/45 44/44/44 46/46/46
f 47/47/47 17/17/17 48/48/48
f 11/11/11 26/26/26 12/12/12
f 49/49/49 50/50/50 27/27/27
f 51/51/51 52/52/52 53/53/53
f 52/52/52 54/54/54 55/55/55
f 54/54/54 56/56/56 57/57/57
f 56/56/56 58/58/58 59/59/59
f 59/59/59 60/60/60 61/61/61
f 61/61/61 62/62/62 63/63/63
f 62/62/62 64/64/64 65/65/65
f 64/64/64 66/66/66 67/67/67
f 66/66/66 68/68/68 69/69/69
f 68/68/68 70/70/70 71/71/71
f 70/70/70 72/72/72 73/73/73
f 74/74/74 75/75/75 76/76/76
f 77/77/77 78/78/78 79/79/79
f 78/78/78 80/80/80 46/46/46
f 38/38/38 9/9/9 8/8/8
f 33/33/33 81/81/81 24/24/24
f 82/82/82 83/83/83 26/26/26
f 83/83/83 84/84/84 26/26/26
f 85/85/85 49/49/49 26/26/26
f 85/85/85 86/86/86 49/49/49
f 87/87/87 50/50/50 49/49/49
f 87/87/87 88/88/88 50/50/50
f 89/89/89 81/81/81 50/50/50
f 89/89/89 90/90/90 81/81/81
f 91/91/91 24/24/24 81/81/81
f 92/92/92 25/25/25 24/24/24
f 92/92/92 93/93/93 25/25/25
f 94/94/94 95/95/95 25/25/25
f 96/96/96 34/34/34 25/25/25
f 96/96/96 97/97/97 34/34/34
f 98/98/98 31/31/31 34/34/34
f 98/98/98 1/1/1 31/31/31
f 10/10/10 9/9/9 4/4/4
f 39/39/39 35/35/35 32/32/32
f 82/82/82 26/26/26 11/11/11
f 4/4/4 9/9/9 31/31/31
f 26/26/26 49/49/49 27/27/27
f 50/50/50 81/81/81 33/33/33
f 50/50/50 33/33/33 27/27/27
f 99/99/99 73/73/73 72/72/72
f 37/37/37 36/36/36 47/47/47
f 12/12/12 32/32/32 35/35/35
f 93/93/93 94/94/94 25/25/25
f 29/29/29 25/25/25 34/34/34
f 51/51/51 5/5/5 7/7/7
f 100/4/100 31/31/31 1/1/1
f 101/100/101 43/43/43 42/42/42
f 32/32/32 9/9/9 39/39/39
f 30/30/30 29/29/29 34/34/34
f 102/101/102 103/102/103 21/21/21
f 21/21/21 37/37/37 102/101/102
f 40/40/40 101/100/101 42/42/42
f 104/103/104 105/104/105 14/14/14
f 14/14/14 22/22/22 104/103/104
f 106/105/106 107/106/107 19/19/19
f 19/19/19 6/6/6 106/105/106
f 108/107/108 107/106/107 13/13/13
f 13/13/13 35/35/35 108/107/108
f 104/103/104 103/102/103 38/38/38
f 38/38/38 8/8/8 104/103/104
f 91/91/91 92/92/92 24/24/24
f 3/3/3 105/104/105 10/10/10
f 10/10/10 4/4/4 3/3/3
f 109/108/109 2/2/2 1/1/1
f 1/1/1 98/98/98 109/108/109
f 110/109/110 109/108/109 98/98/98
f 98/98/98 97/97/97 110/109/110
f 102/101/102 108/107/108 35/35/35
f 35/35/35 39/39/39 102/101/102
f 106/105/106 111/110/111 82/82/82
f 82/82/82 11/11/11 106/105/106
f 111/110/111 112/111/112 83/83/83
f 83/83/83 82/82/82 111/110/111
f 112/111/112 113/112/113 84/84/84
f 84/84/84 83/83/83 112/111/112
f 113/112/113 114/113/114 85/85/85
f 85/85/85 84/84/84 113/112/113
f 114/113/114 115/114/115 86/86/86
f 86/86/86 85/85/85 114/113/114
f 115/114/115 116/115/116 87/87/87
f 87/87/87 86/86/86 115/114/115
f 116/115/116 117/116/117 88/88/88
f 88/88/88 87/87/87 116/115/116
f 117/116/117 118/117/118 89/89/89
f 89/89/89 88/88/88 117/116/117
f 118/117/118 119/118/119 90/90/90
f 90/90/90 89/89/89 118/117/118
f 119/118/119 120/119/120 91/91/91
f 91/91/91 90/90/90 119/118/119
f 120/119/120 121/120/121 92/92/92
f 92/92/92 91/91/91 120/119/120
f 121/120/121 122/121/122 93/93/93
f 93/93/93 92/92/92 121/120/121
f 123/122/123 124/123/124 95/95/95
f 95/95/95 94/94/94 123/122/123
f 124/123/124 125/124/125 96/96/96
f 96/96/96 95/95/95 124/123/124
f 126/124/126 110/109/110 97/97/97
f 97/97/97 96/96/96 126/124/126
f 122/121/122 123/122/123 94/94/94
f 94/94/94 93/93/93 122/121/122
f 95/95/95 96/96/96 25/25/25
f 48/48/48 37/37/37 47/47/47
f 22/22/22 14/14/14 16/16/16
f 48/48/48 17/17/17 19/19/19
f 16/16/16 20/20/20 22/22/22
f 29/29/29 23/23/23 25/25/25
f 30/30/30 28/28/28 29/29/29
f 32/32/32 12/12/12 28/28/28
f 9/9/9 32/32/32 30/30/30
f 28/28/28 27/27/27 23/23/23
f 20/20/20 36/36/36 21/21/21
f 101/100/101 40/40/40 14/14/14
f 45/45/45 42/42/42 44/44/44
f 80/80/80 45/45/45 46/46/46
f 6/6/6 19/19/19 18/18/18
f 97/97/97 98/98/98 34/34/34
f 74/74/74 99/99/99 72/72/72
f 5/5/5 51/51/51 53/53/53
f 53/53/53 52/52/52 55/55/55
f 55/55/55 54/54/54 57/57/57
f 57/57/57 56/56/56 59/59/59
f 127/125/127 59/59/59 61/61/61
f 127/125/127 61/61/61 63/63/63
f 63/63/63 62/62/62 65/65/65
f 65/65/65 64/64/64 67/67/67
f 67/67/67 66/66/66 69/69/69
f 69/69/69 68/68/68 71/71/71
f 71/71/71 70/70/70 73/73/73
f 99/99/99 74/74/74 76/76/76
f 76/76/76 77/77/77 79/79/79
f 79/79/79 78/78/78 46/46/46
f 23/23/23 33/33/33 24/24/24
f 84/84/84 85/85/85 26/26/26
f 86/86/86 87/87/87 49/49/49
f 88/88/88 89/89/89 50/50/50
f 90/90/90 91/91/91 81/81/81
f 110/109/110 46/46/46 44/44/44
f 44/44/44 109/108/109 110/109/110
f 109/108/109 44/44/44 43/43/43
f 43/43/43 2/2/2 109/108/109
f 128/126/128 6/6/6 18/18/18
f 2/2/2 43/43/43 101/100/101
f 101/100/101 3/3/3 2/2/2
f 3/3/3 101/100/101 14/14/14
f 14/14/14 105/104/105 3/3/3
f 104/103/104 8/8/8 10/10/10
f 10/10/10 105/104/105 104/103/104
f 104/103/104 22/22/22 21/21/21
f 21/21/21 103/102/103 104/103/104
f 102/101/102 39/39/39 38/38/38
f 38/38/38 103/102/103 102/101/102
f 102/101/102 37/37/37 48/48/48
f 48/48/48 108/107/108 102/101/102
f 108/107/108 48/48/48 19/19/19
f 19/19/19 107/106/107 108/107/108
f 106/105/106 11/11/11 13/13/13
f 13/13/13 107/106/107 106/105/106
f 106/105/106 6/6/6 5/5/5
f 5/5/5 111/110/111 106/105/106
f 111/110/111 5/5/5 53/53/53
f 53/53/53 112/111/112 111/110/111
f 112/111/112 53/53/53 55/55/55
f 55/55/55 113/112/113 112/111/112
f 113/112/113 55/55/55 57/57/57
f 57/57/57 114/113/114 113/112/113
f 114/113/114 57/57/57 59/59/59
f 59/59/59 115/114/115 114/113/114
f 115/114/115 59/59/59 127/125/127
f 127/125/127 116/115/116 115/114/115
f 116/115/116 127/125/127 63/63/63
f 63/63/63 117/116/117 116/115/116
f 117/116/117 63/63/63 65/65/65
f 65/65/65 118/117/118 117/116/117
f 118/117/118 65/65/65 67/67/67
f 67/67/67 119/118/119 118/117/118
f 119/118/119 67/67/67 69/69/69
f 69/69/69 120/119/120 119/118/119
f 120/119/120 69/69/69 71/71/71
f 71/71/71 121/120/121 120/119/120
f 121/120/121 71/71/71 73/73/73
f 73/73/73 122/121/122 121/120/121
f 122/121/122 73/73/73 99/99/99
f 99/99/99 123/122/123 122/121/122
f 123/122/123 99/99/99 76/76/76
f 76/76/76 124/123/124 123/122/123
f 124/123/124 76/76/76 79/79/79
f 79/79/79 125/124/125 124/123/124
f 129/124/129 79/79/79 46/46/46
f 46/46/46 110/109/110 129/124/129
