# OBJ written from F:\vr controller models\controllers 3\oculus_quest_plus_controller_left\oculus_quest_plus_controller_left_button_y.obj
# Units	meters

o oculus_quest_plus_controller_left_button_y
v 0.0171328 -7.85736e-05 0.0423139
v 0.0168181 -0.000139291 0.0422229
v 0.0174206 1.61102e-05 0.0424529
v 0.0164879 -0.000163028 0.0421843
v 0.0161552 -0.000149584 0.0421986
v 0.0158329 -9.87592e-05 0.0422663
v 0.015533 -1.31999e-05 0.0423837
v 0.0152675 0.000104448 0.0425473
v 0.015046 0.000249097 0.0427499
v 0.0148779 0.000415657 0.0429845
v 0.0147685 0.000597374 0.0432416
v 0.0147233 0.00078749 0.0435115
v 0.0147427 0.000978609 0.0437839
v 0.0148273 0.00116334 0.044048
v 0.0149726 0.00133476 0.0442941
v 0.015174 0.00148598 0.0445123
v 0.015423 0.00161162 0.0446948
v 0.0157107 0.0017063 0.0448337
v 0.0160255 0.00176702 0.0449247
v 0.0163557 0.00179075 0.0449633
v 0.0166883 0.00177731 0.044949
v 0.0170107 0.00172649 0.0448814
v 0.0173106 0.00164093 0.044764
v 0.017576 0.00152328 0.0446004
v 0.0177975 0.00137863 0.0443977
v 0.0179657 0.00121207 0.0441631
v 0.018075 0.00103035 0.043906
v 0.0181203 0.000840238 0.0436361
v 0.0181008 0.000649118 0.0433638
v 0.0180163 0.000464391 0.0430996
v 0.017871 0.000292964 0.0428535
v 0.0176695 0.000141747 0.0426353
v 0.0179162 -0.00123773 0.0410448
v 0.0172539 -0.0013655 0.0408533
v 0.0185217 -0.0010385 0.0413372
v 0.0184055 -0.00209195 0.0403402
v 0.0192099 -0.00182725 0.0407287
v 0.0185089 -0.00231492 0.0402201
v 0.0193554 -0.00203633 0.0406289
v 0.0175254 -0.0022617 0.0400858
v 0.0175826 -0.00249358 0.0399523
v 0.0165591 -0.00141544 0.0407721
v 0.0158591 -0.00138716 0.0408022
v 0.0166024 -0.00232806 0.0399779
v 0.0166112 -0.00256342 0.0398387
v 0.0156724 -0.00229047 0.0400179
v 0.0156323 -0.00252386 0.0398808
v 0.0151809 -0.00128021 0.0409445
v 0.0145498 -0.00110018 0.0411916
v 0.0147712 -0.00214839 0.040207
v 0.0146839 -0.00237432 0.0400798
v 0.0139328 -0.00190919 0.0405352
v 0.0138014 -0.00212257 0.0404253
v 0.0139912 -0.000852623 0.0415358
v 0.0135251 -0.000548253 0.0419622
v 0.0131907 -0.00158029 0.0409926
v 0.0130204 -0.00177641 0.0409066
v 0.0125714 -0.0011759 0.0415591
v 0.0123687 -0.0013508 0.0415029
v 0.0131714 -0.000197776 0.0424559
v 0.0129412 0.000184593 0.0429968
v 0.0121014 -0.000710254 0.0422151
v 0.011874 -0.000860717 0.0421933
v 0.0117956 -0.000202236 0.0429337
v 0.0115522 -0.000326041 0.0429496
v 0.0128461 0.000584636 0.0435648
v 0.0128869 0.000986792 0.0441378
v 0.0116692 0.000329264 0.0436884
v 0.0114191 0.000233351 0.0437439
v 0.0117235 0.000863571 0.0444497
v 0.0114762 0.000795696 0.0445451
v 0.0130649 0.0013755 0.0446937
v 0.0133705 0.00173621 0.0452116
v 0.0119599 0.00138001 0.0451882
v 0.0117251 0.00133923 0.0453224
v 0.012366 0.00185926 0.0458762
v 0.0121524 0.00184363 0.0460466
v 0.0137945 0.00205441 0.0456706
v 0.0143184 0.00231877 0.0460546
v 0.0129293 0.00228201 0.0464862
v 0.0127453 0.00228857 0.0466885
v 0.0136253 0.00263325 0.0469962
v 0.0134778 0.00265824 0.0472254
v 0.0149238 0.00251801 0.046347
v 0.0155862 0.00264577 0.0465385
v 0.0144297 0.00289795 0.0473847
v 0.0143244 0.00293683 0.0476342
v 0.0153097 0.0030677 0.0476392
v 0.0152506 0.00311549 0.047902
v 0.0162809 0.00269572 0.0466197
v 0.0169809 0.00266743 0.0465896
v 0.0162327 0.00313406 0.0477471
v 0.0162221 0.00318533 0.0480156
v 0.0171628 0.00309647 0.0477071
v 0.0172009 0.00314577 0.0479735
v 0.0176592 0.00256048 0.0464473
v 0.0182903 0.00238045 0.0462002
v 0.0180639 0.00295439 0.047518
v 0.0181494 0.00299623 0.0477745
v 0.0189024 0.00271519 0.0471897
v 0.0190319 0.00274449 0.047429
v 0.0188488 0.00213289 0.045856
v 0.0193149 0.00182852 0.0454295
v 0.0196445 0.00238629 0.0467324
v 0.0198129 0.00239832 0.0469477
v 0.0202637 0.0019819 0.0461658
v 0.0204646 0.00197271 0.0463514
v 0.0196687 0.00147805 0.0449358
v 0.0198988 0.00109568 0.044395
v 0.0207338 0.00151625 0.0455099
v 0.0209593 0.00148263 0.045661
v 0.0210395 0.00100824 0.0447913
v 0.0212811 0.000947953 0.0449047
v 0.0199939 0.000695634 0.0438269
v 0.0199531 0.000293478 0.0432539
v 0.0211659 0.000476737 0.0440366
v 0.0214142 0.000388562 0.0441104
v 0.0211117 -5.75701e-05 0.0432753
v 0.021357 -0.000173783 0.0433091
v 0.0197751 -9.52266e-05 0.0426981
v 0.0194695 -0.000455943 0.0421802
v 0.0208752 -0.000574007 0.0425368
v 0.0211082 -0.000717321 0.0425319
v 0.0204692 -0.00105326 0.0418487
v 0.0206808 -0.00122172 0.0418077
v 0.0190455 -0.000774135 0.0417211
v 0.0199059 -0.00147601 0.0412388
v 0.020088 -0.00166666 0.0411658
v 0.0200653 -0.0038865 0.0427254
v 0.0206581 -0.00344156 0.0433673
v 0.0193327 -0.00425616 0.0421885
v 0.0210855 -0.00293716 0.0440915
v 0.0213343 -0.00239362 0.0448687
v 0.0213915 -0.00183128 0.04567
v 0.0212584 -0.00127188 0.0464643
v 0.0209366 -0.000737208 0.0472206
v 0.0204419 -0.000247125 0.047911
v 0.0197902 0.000178484 0.0485073
v 0.0190091 0.000524647 0.0489886
v 0.0181267 0.000776393 0.0493341
v 0.0171782 0.000925936 0.0495331
v 0.0161994 0.000965492 0.0495752
v 0.0152279 0.000895649 0.0494616
v 0.0143017 0.000716994 0.0491938
v 0.0134551 0.000438399 0.0487849
v 0.0127226 6.87316e-05 0.0482481
v 0.0121297 -0.000376204 0.0476062
v 0.0117023 -0.000880605 0.046882
v 0.0114535 -0.00142414 0.0461047
v 0.0113964 -0.00198649 0.0453035
v 0.0115294 -0.00254588 0.0445092
v 0.0118512 -0.00308056 0.0437529
v 0.0123459 -0.00357064 0.0430625
v 0.0129977 -0.00399625 0.0424662
v 0.0137787 -0.00434241 0.0419849
v 0.0146612 -0.00459416 0.0416394
v 0.0156096 -0.0047437 0.0414404
v 0.0165885 -0.00478326 0.0413983
v 0.0175599 -0.00471341 0.0415119
v 0.0184861 -0.00453476 0.0417797
v 0.016422 0.000836917 0.0435576
vn 0.0750903 0.778867 -0.622677
vn 0.00837297 0.818215 -0.574851
vn 0.085842 0.78697 -0.61099
vn 0.0617496 0.772163 -0.632417
vn 0.0936423 0.79613 -0.597837
vn 0.0981323 0.806017 -0.583701
vn 0.0992057 0.816237 -0.569135
vn 0.096754 0.826404 -0.554703
vn 0.0909359 0.836128 -0.540944
vn 0.0819127 0.84503 -0.528408
vn 0.0700914 0.852778 -0.517549
vn 0.0558732 0.859056 -0.508823
vn 0.0398445 0.86365 -0.502516
vn 0.0225916 0.866351 -0.498924
vn 0.00479782 0.867089 -0.498131
vn -0.0128547 0.865801 -0.500224
vn -0.0297019 0.862571 -0.505064
vn -0.0450756 0.85749 -0.512522
vn -0.0584176 0.850782 -0.522262
vn -0.0691675 0.842683 -0.533949
vn -0.0769661 0.833522 -0.547099
vn -0.0814556 0.823638 -0.561236
vn -0.082528 0.813415 -0.5758
vn -0.0800752 0.803249 -0.590236
vn -0.0742567 0.793521 -0.603996
vn -0.0652364 0.784624 -0.616531
vn -0.0534134 0.776873 -0.627387
vn -0.0391931 0.770596 -0.636117
vn -0.0231661 0.766001 -0.642421
vn -0.00591513 0.763302 -0.646014
vn 0.0118765 0.762563 -0.646806
vn 0.0295311 0.763853 -0.644714
vn 0.0463783 0.767081 -0.639872
vn 0.249159 0.552955 -0.795085
vn 0.179646 0.529949 -0.828783
vn 0.170228 0.656882 -0.734526
vn 0.123549 0.641444 -0.757156
vn -0.207301 0.545864 -0.811825
vn -0.271592 0.574224 -0.772337
vn -0.136277 0.65212 -0.745767
vn -0.179446 0.671172 -0.719255
vn -0.398401 0.785704 -0.473229
vn -0.378085 0.830381 -0.409292
vn -0.264595 0.81317 -0.518405
vn -0.250957 0.843175 -0.475476
vn -0.0881974 0.97636 -0.19734
vn -0.00836267 0.982158 -0.187874
vn -0.0563002 0.94119 -0.333153
vn -0.00269369 0.945091 -0.326796
vn 0.34032 0.882439 -0.324783
vn 0.381102 0.842171 -0.381456
vn 0.23144 0.878124 -0.418728
vn 0.25883 0.851091 -0.456784
vn 0.358081 0.619909 -0.698206
vn 0.309462 0.583265 -0.751023
vn 0.243371 0.701837 -0.669474
vn 0.210728 0.677232 -0.704947
vn -0.999208 -0.0155169 -0.0366393
vn -0.97242 -0.127338 -0.195409
vn -0.156785 -0.566689 -0.808877
vn -0.346442 -0.536895 -0.769234
vn 0.103461 0.515373 -0.850697
vn 0.0236238 0.509538 -0.860124
vn 0.0723935 0.631649 -0.771867
vn 0.018786 0.627727 -0.778207
vn -0.325058 0.60929 -0.723258
vn -0.365841 0.649515 -0.666551
vn -0.215345 0.694713 -0.686294
vn -0.242736 0.721724 -0.648224
vn -0.342826 0.871831 -0.34983
vn -0.294209 0.908431 -0.296976
vn -0.227277 0.871001 -0.435548
vn -0.194635 0.895584 -0.400058
vn 0.0720919 0.978849 -0.191462
vn 0.150089 0.966611 -0.207695
vn 0.0513299 0.942862 -0.329205
vn 0.103706 0.934652 -0.340105
vn 0.407419 0.79822 -0.443683
vn 0.418494 0.752226 -0.508938
vn 0.276497 0.821573 -0.498566
vn 0.28394 0.790693 -0.542385
vn -0.734052 0.395404 0.552108
vn -0.852422 0.306386 0.42368
vn -0.908262 -0.234264 -0.346669
vn -0.8092 -0.332189 -0.484608
vn -0.8092 -0.33219 -0.484608
vn 0.0388953 -0.574704 -0.817437
vn 0.233085 -0.560633 -0.794583
vn -0.0568267 0.512893 -0.85657
vn -0.13482 0.525082 -0.840305
vn -0.0352354 0.629978 -0.775813
vn -0.087609 0.638164 -0.7649
vn -0.39216 0.693514 -0.604358
vn -0.403239 0.739462 -0.539068
vn -0.260406 0.751265 -0.606456
vn -0.26785 0.782123 -0.562619
vn -0.233898 0.93878 -0.252951
vn -0.164379 0.961727 -0.219226
vn -0.154134 0.915957 -0.370494
vn -0.107456 0.931372 -0.347848
vn 0.222567 0.945868 -0.236214
vn 0.286853 0.917453 -0.275671
vn 0.152372 0.920716 -0.359256
vn 0.195541 0.901643 -0.385752
vn 0.413657 0.706031 -0.574811
vn 0.393341 0.661308 -0.638714
vn 0.280688 0.759669 -0.586615
vn 0.26705 0.729641 -0.62953
vn -0.987597 0.0969001 0.123539
vn -0.938034 0.205593 0.27897
vn -0.679041 -0.417348 -0.603923
vn -0.679041 -0.417348 -0.603923
vn -0.522787 -0.486469 -0.70003
vn 0.587473 -0.469228 -0.659318
vn 0.418319 -0.525018 -0.741192
vn 0.184742 0.808092 -0.559337
vn 0.182659 0.788242 -0.587632
vn 0.0694381 0.900187 -0.429932
vn 0.100572 0.891268 -0.442183
vn -0.121424 0.875194 -0.468286
vn -0.0955117 0.888224 -0.449372
vn -0.152194 0.763968 -0.627048
vn -0.163497 0.782865 -0.600325
vn 0.0151116 0.703834 -0.710204
vn -0.0194475 0.705272 -0.70867
vn 0.173936 0.769034 -0.615088
vn 0.128189 0.87907 -0.459134
vn -0.0656506 0.89809 -0.434885
vn -0.168261 0.802609 -0.572282
vn -0.0529534 0.710512 -0.70169
vn -0.233085 0.560633 0.794583
vn -0.41832 0.525017 0.741192
vn 0.8092 0.33219 0.484607
vn 0.679041 0.417349 0.603923
vn 0.852422 -0.306388 -0.423678
vn 0.938033 -0.205595 -0.27897
vn -0.587475 0.469226 0.659318
vn 0.158787 0.751244 -0.640639
vn 0.151154 0.864022 -0.480228
vn -0.0329243 0.904367 -0.425483
vn -0.166178 0.822468 -0.543995
vn -0.084087 0.719439 -0.689446
vn 0.137904 0.735505 -0.663336
vn 0.168678 0.84673 -0.504576
vn 0.00136852 0.906866 -0.421417
vn -0.157454 0.841666 -0.516533
vn -0.111706 0.73163 -0.672488
vn 0.111992 0.722485 -0.682256
vn 0.0821314 0.712611 -0.696736
vn 0.346441 0.536894 0.769236
vn 0.522786 0.486469 0.70003
vn 0.987597 -0.096901 -0.12354
vn 0.999208 0.0155164 0.0366374
vn 0.179979 0.827843 -0.531303
vn 0.0359295 0.905437 -0.422958
vn -0.142305 0.859464 -0.490989
vn -0.134671 0.746687 -0.6514
vn 0.0494056 0.706343 -0.706144
vn -0.0388956 0.574702 0.817438
vn 0.156785 0.566685 0.80888
vn 0.908263 0.234265 0.346668
vn 0.97242 0.127338 0.195407
vn 0.734053 -0.395405 -0.552106
vt 0.740047 0.771388
vt 0.731623 0.787189
vt 0.736804 0.770045
vt 0.74297 0.773333
vt 0.733359 0.769367
vt 0.729848 0.769367
vt 0.726407 0.770059
vt 0.723163 0.771403
vt 0.720248 0.773359
vt 0.717766 0.775842
vt 0.715822 0.778765
vt 0.714479 0.782008
vt 0.713801 0.785453
vt 0.713801 0.788963
vt 0.714493 0.792405
vt 0.715837 0.795648
vt 0.717793 0.798563
vt 0.720275 0.801045
vt 0.723198 0.80299
vt 0.726441 0.804333
vt 0.729886 0.805011
vt 0.733397 0.805011
vt 0.736839 0.804319
vt 0.740082 0.802975
vt 0.742997 0.801019
vt 0.745479 0.798536
vt 0.747424 0.795613
vt 0.748766 0.79237
vt 0.749444 0.788926
vt 0.749444 0.785415
vt 0.748752 0.781973
vt 0.747408 0.77873
vt 0.745452 0.775815
vt 0.765615 0.745683
vt 0.773051 0.753118
vt 0.763761 0.747947
vt 0.770791 0.754977
vt 0.782979 0.802707
vt 0.778957 0.812424
vt 0.780177 0.801861
vt 0.776374 0.811047
vt 0.736935 0.84058
vt 0.726417 0.840579
vt 0.736645 0.837667
vt 0.726702 0.837666
vt 0.684336 0.812526
vt 0.680311 0.802812
vt 0.686916 0.811144
vt 0.68311 0.80196
vt 0.690113 0.7532
vt 0.697546 0.745761
vt 0.692377 0.755054
vt 0.699405 0.748021
vt 0.747145 0.735832
vt 0.756861 0.739856
vt 0.746298 0.738634
vt 0.755484 0.742439
vt 0.932241 0.108041
vt 0.903486 0.108041
vt 0.932241 0.0976483
vt 0.903486 0.0976483
vt 0.903486 0.0352907
vt 0.932241 0.0352907
vt 0.903486 0.0456839
vt 0.932241 0.0456839
vt 0.77891 0.76185
vt 0.782935 0.771565
vt 0.77633 0.763233
vt 0.780136 0.772417
vt 0.773133 0.82118
vt 0.765699 0.828619
vt 0.770868 0.819325
vt 0.763839 0.826359
vt 0.716099 0.838545
vt 0.706384 0.83452
vt 0.716946 0.835743
vt 0.70776 0.831938
vt 0.67824 0.792504
vt 0.678237 0.781989
vt 0.681152 0.792214
vt 0.68115 0.782272
vt 0.706278 0.739899
vt 0.715996 0.735869
vt 0.707662 0.742479
vt 0.716848 0.73867
vt 0.932241 0.149613
vt 0.903486 0.149613
vt 0.932241 0.13922
vt 0.903486 0.13922
vt 0.932241 0.0872554
vt 0.903486 0.0872554
vt 0.932241 0.0768626
vt 0.903486 0.0768626
vt 0.903486 0.0248979
vt 0.903486 0.014505
vt 0.932241 0.0248979
vt 0.932241 0.014505
vt 0.785007 0.781874
vt 0.78501 0.792389
vt 0.782095 0.782164
vt 0.782096 0.792106
vt 0.756966 0.834481
vt 0.747248 0.83851
vt 0.755583 0.831901
vt 0.746396 0.835709
vt 0.697629 0.828694
vt 0.690194 0.821258
vt 0.699484 0.826429
vt 0.692455 0.8194
vt 0.680268 0.771672
vt 0.684289 0.761956
vt 0.683069 0.772518
vt 0.686872 0.763332
vt 0.726309 0.733799
vt 0.736827 0.733799
vt 0.726598 0.736712
vt 0.736542 0.736712
vt 0.932241 0.118434
vt 0.932241 0.128827
vt 0.903486 0.118434
vt 0.903486 0.128827
vt 0.932241 0.0664697
vt 0.903486 0.0664697
vt 0.932241 0.0560765
vt 0.903486 0.0560765
vt 0.932241 0.326292
vt 0.932241 0.336685
vt 0.903486 0.326292
vt 0.903486 0.336685
vt 0.720597 0.750979
vt 0.727872 0.749517
vt 0.693953 0.783519
vt 0.695385 0.776239
vt 0.713814 0.820587
vt 0.707637 0.816477
vt 0.755666 0.816423
vt 0.749504 0.820558
vt 0.76783 0.776164
vt 0.769292 0.783439
vt 0.735293 0.749517
vt 0.698223 0.769383
vt 0.70239 0.81123
vt 0.742648 0.823399
vt 0.769294 0.790859
vt 0.932241 0.180792
vt 0.903486 0.180792
vt 0.932241 0.170399
vt 0.903486 0.170399
vt 0.932241 0.243149
vt 0.903486 0.243149
vt 0.932241 0.232756
vt 0.903486 0.232756
vt 0.903486 0.305507
vt 0.903486 0.295114
vt 0.932241 0.305507
vt 0.932241 0.295114
vt 0.903486 0.160006
vt 0.932241 0.160006
vt 0.742575 0.75095
vt 0.702333 0.763204
vt 0.698256 0.805069
vt 0.735372 0.824861
vt 0.767861 0.79814
vt 0.74943 0.75379
vt 0.707579 0.757956
vt 0.695415 0.798213
vt 0.727951 0.824862
vt 0.765022 0.804996
vt 0.755608 0.757901
vt 0.760855 0.763147
vt 0.903486 0.21197
vt 0.932241 0.21197
vt 0.903486 0.222363
vt 0.932241 0.222363
vt 0.903486 0.284721
vt 0.903486 0.274328
vt 0.932241 0.284721
vt 0.932241 0.274328
vt 0.932241 0.347078
vt 0.903486 0.347078
vt 0.713741 0.753821
vt 0.693953 0.790939
vt 0.72067 0.823427
vt 0.760912 0.811174
vt 0.76499 0.769309
vt 0.932241 0.191185
vt 0.932241 0.201578
vt 0.903486 0.191185
vt 0.903486 0.201578
vt 0.932241 0.253542
vt 0.932241 0.263935
vt 0.903486 0.253542
vt 0.903486 0.263935
vt 0.932241 0.315899
vt 0.903486 0.315899
mtllib oculus_quest_plus_controller_left_button_y.mtl
usemtl oculus_quest_plus_controller_left
g Default
f 32/1/1 161/2/2 31/3/3
f 32/1/1 3/4/4 161/2/2
f 30/5/5 161/2/2 29/6/6
f 30/5/5 31/3/3 161/2/2
f 28/7/7 161/2/2 27/8/8
f 28/7/7 29/6/6 161/2/2
f 26/9/9 161/2/2 25/10/10
f 26/9/9 27/8/8 161/2/2
f 24/11/11 161/2/2 23/12/12
f 24/11/11 25/10/10 161/2/2
f 22/13/13 161/2/2 21/14/14
f 22/13/13 23/12/12 161/2/2
f 20/15/15 161/2/2 19/16/16
f 20/15/15 21/14/14 161/2/2
f 18/17/17 161/2/2 17/18/18
f 18/17/17 19/16/16 161/2/2
f 16/19/19 161/2/2 15/20/20
f 16/19/19 17/18/18 161/2/2
f 14/21/21 161/2/2 13/22/22
f 14/21/21 15/20/20 161/2/2
f 12/23/23 161/2/2 11/24/24
f 12/23/23 13/22/22 161/2/2
f 10/25/25 161/2/2 9/26/26
f 10/25/25 11/24/24 161/2/2
f 8/27/27 161/2/2 7/28/28
f 8/27/27 9/26/26 161/2/2
f 6/29/29 161/2/2 5/30/30
f 6/29/29 7/28/28 161/2/2
f 4/31/31 161/2/2 2/32/32
f 4/31/31 5/30/30 161/2/2
f 1/33/33 161/2/2 3/4/4
f 1/33/33 2/32/32 161/2/2
f 39/34/34 38/35/35 37/36/36
f 36/37/37 37/36/36 38/35/35
f 53/38/38 57/39/39 52/40/40
f 56/41/41 52/40/40 57/39/39
f 71/42/42 75/43/43 70/44/44
f 74/45/45 70/44/44 75/43/43
f 89/46/46 93/47/47 88/48/48
f 92/49/49 88/48/48 93/47/47
f 107/50/50 111/51/51 106/52/52
f 110/53/53 106/52/52 111/51/51
f 125/54/54 128/55/55 124/56/56
f 127/57/57 124/56/56 128/55/55
f 150/58/58 69/59/58 151/60/59
f 65/61/59 151/60/59 69/59/58
f 47/62/60 157/63/60 51/64/61
f 156/65/61 51/64/61 157/63/60
f 41/66/62 45/67/63 40/68/64
f 44/69/65 40/68/64 45/67/63
f 59/70/66 63/71/67 58/72/68
f 62/73/69 58/72/68 63/71/67
f 77/74/70 81/75/71 76/76/72
f 80/77/73 76/76/72 81/75/71
f 95/78/74 99/79/75 94/80/76
f 98/81/77 94/80/76 99/79/75
f 113/82/78 117/83/79 112/84/80
f 116/85/81 112/84/80 117/83/79
f 146/86/82 81/87/82 147/88/83
f 77/89/83 147/88/83 81/87/82
f 152/90/84 63/91/84 153/92/85
f 59/93/86 153/92/85 63/91/84
f 45/94/87 41/95/88 158/96/87
f 159/97/88 158/96/87 41/95/88
f 47/98/89 51/99/90 46/100/91
f 50/101/92 46/100/91 51/99/90
f 65/102/93 69/103/94 64/104/95
f 68/105/96 64/104/95 69/103/94
f 83/106/97 87/107/98 82/108/99
f 86/109/100 82/108/99 87/107/98
f 101/110/101 105/111/102 100/112/103
f 104/113/104 100/112/103 105/111/102
f 119/114/105 123/115/106 118/116/107
f 122/117/108 118/116/107 123/115/106
f 149/118/109 148/119/110 71/120/109
f 75/121/110 71/120/109 148/119/110
f 154/122/111 57/123/112 155/124/113
f 53/125/113 155/124/113 57/123/112
f 131/126/114 160/127/115 39/128/114
f 38/129/115 39/128/114 160/127/115
f 41/66/62 40/68/64 38/35/35
f 36/37/37 38/35/35 40/68/64
f 59/70/66 58/72/68 57/39/39
f 56/41/41 57/39/39 58/72/68
f 77/74/70 76/76/72 75/43/43
f 74/45/45 75/43/43 76/76/72
f 95/78/74 94/80/76 93/47/47
f 92/49/49 93/47/47 94/80/76
f 113/82/78 112/84/80 111/51/51
f 110/53/53 111/51/51 112/84/80
f 39/34/34 37/36/36 128/55/55
f 127/57/57 128/55/55 37/36/36
f 71/120/109 69/59/58 149/118/109
f 150/58/58 149/118/109 69/59/58
f 51/64/61 156/65/61 53/125/113
f 155/124/113 53/125/113 156/65/61
f 116/85/81 118/116/107 114/130/116
f 115/131/117 114/130/116 118/116/107
f 98/81/77 100/112/103 96/132/118
f 97/133/119 96/132/118 100/112/103
f 80/77/73 82/108/99 78/134/120
f 79/135/121 78/134/120 82/108/99
f 62/73/69 64/104/95 60/136/122
f 61/137/123 60/136/122 64/104/95
f 44/69/65 46/100/91 42/138/124
f 43/139/125 42/138/124 46/100/91
f 115/131/117 120/140/126 29/6/6
f 30/5/5 29/6/6 120/140/126
f 97/133/119 102/141/127 23/12/12
f 24/11/11 23/12/12 102/141/127
f 79/135/121 84/142/128 17/18/18
f 18/17/17 17/18/18 84/142/128
f 61/137/123 66/143/129 11/24/24
f 12/23/23 11/24/24 66/143/129
f 43/139/125 48/144/130 5/30/30
f 6/29/29 5/30/30 48/144/130
f 143/145/131 89/146/131 144/147/132
f 87/148/132 144/147/132 89/146/131
f 137/149/133 107/150/133 138/151/134
f 105/152/134 138/151/134 107/150/133
f 125/153/135 123/154/136 130/155/135
f 132/156/136 130/155/135 123/154/136
f 47/98/89 46/100/91 45/67/63
f 44/69/65 45/67/63 46/100/91
f 65/102/93 64/104/95 63/71/67
f 62/73/69 63/71/67 64/104/95
f 83/106/97 82/108/99 81/75/71
f 80/77/73 81/75/71 82/108/99
f 101/110/101 100/112/103 99/79/75
f 98/81/77 99/79/75 100/112/103
f 119/114/105 118/116/107 117/83/79
f 116/85/81 117/83/79 118/116/107
f 83/157/137 81/87/82 145/158/137
f 146/86/82 145/158/137 81/87/82
f 63/91/84 152/90/84 65/61/59
f 151/60/59 65/61/59 152/90/84
f 157/63/60 47/62/60 158/96/87
f 45/94/87 158/96/87 47/62/60
f 122/117/108 124/56/56 120/140/126
f 121/159/138 120/140/126 124/56/56
f 104/113/104 106/52/52 102/141/127
f 103/160/139 102/141/127 106/52/52
f 86/109/100 88/48/48 84/142/128
f 85/161/140 84/142/128 88/48/48
f 68/105/96 70/44/44 66/143/129
f 67/162/141 66/143/129 70/44/44
f 50/101/92 52/40/40 48/144/130
f 49/163/142 48/144/130 52/40/40
f 121/159/138 126/164/143 31/3/3
f 32/1/1 31/3/3 126/164/143
f 103/160/139 108/165/144 25/10/10
f 26/9/9 25/10/10 108/165/144
f 85/161/140 90/166/145 19/16/16
f 20/15/15 19/16/16 90/166/145
f 67/162/141 72/167/146 13/22/22
f 14/21/21 13/22/22 72/167/146
f 49/163/142 54/168/147 7/28/28
f 8/27/27 7/28/28 54/168/147
f 35/169/148 33/170/149 3/4/4
f 1/33/33 3/4/4 33/170/149
f 99/171/150 140/172/150 101/173/151
f 139/174/151 101/173/151 140/172/150
f 119/175/152 117/176/153 133/177/152
f 134/178/153 133/177/152 117/176/153
f 53/38/38 52/40/40 51/99/90
f 50/101/92 51/99/90 52/40/40
f 71/42/42 70/44/44 69/103/94
f 68/105/96 69/103/94 70/44/44
f 89/46/46 88/48/48 87/107/98
f 86/109/100 87/107/98 88/48/48
f 107/50/50 106/52/52 105/111/102
f 104/113/104 105/111/102 106/52/52
f 125/54/54 124/56/56 123/115/106
f 122/117/108 123/115/106 124/56/56
f 148/119/110 147/88/83 75/121/110
f 77/89/83 75/121/110 147/88/83
f 154/122/111 153/92/85 57/123/112
f 59/93/86 57/123/112 153/92/85
f 160/127/115 159/179/88 38/129/115
f 41/180/88 38/129/115 159/179/88
f 127/57/57 37/36/36 126/164/143
f 35/169/148 126/164/143 37/36/36
f 110/53/53 112/84/80 108/165/144
f 109/181/154 108/165/144 112/84/80
f 92/49/49 94/80/76 90/166/145
f 91/182/155 90/166/145 94/80/76
f 74/45/45 76/76/72 72/167/146
f 73/183/156 72/167/146 76/76/72
f 56/41/41 58/72/68 54/168/147
f 55/184/157 54/168/147 58/72/68
f 36/37/37 40/68/64 33/170/149
f 34/185/158 33/170/149 40/68/64
f 109/181/154 114/130/116 27/8/8
f 28/7/7 27/8/8 114/130/116
f 91/182/155 96/132/118 21/14/14
f 22/13/13 21/14/14 96/132/118
f 73/183/156 78/134/120 15/20/20
f 16/19/19 15/20/20 78/134/120
f 55/184/157 60/136/122 9/26/26
f 10/25/25 9/26/26 60/136/122
f 34/185/158 42/138/124 2/32/32
f 4/31/31 2/32/32 42/138/124
f 142/186/159 141/187/160 93/188/159
f 95/189/160 93/188/159 141/187/160
f 136/190/161 135/191/162 111/192/161
f 113/193/162 111/192/161 135/191/162
f 129/194/163 131/126/114 128/195/163
f 39/128/114 128/195/163 131/126/114
f 112/84/80 116/85/81 109/181/154
f 114/130/116 109/181/154 116/85/81
f 94/80/76 98/81/77 91/182/155
f 96/132/118 91/182/155 98/81/77
f 76/76/72 80/77/73 73/183/156
f 78/134/120 73/183/156 80/77/73
f 58/72/68 62/73/69 55/184/157
f 60/136/122 55/184/157 62/73/69
f 40/68/64 44/69/65 34/185/158
f 42/138/124 34/185/158 44/69/65
f 121/159/138 31/3/3 120/140/126
f 30/5/5 120/140/126 31/3/3
f 103/160/139 25/10/10 102/141/127
f 24/11/11 102/141/127 25/10/10
f 85/161/140 19/16/16 84/142/128
f 18/17/17 84/142/128 19/16/16
f 67/162/141 13/22/22 66/143/129
f 12/23/23 66/143/129 13/22/22
f 49/163/142 7/28/28 48/144/130
f 6/29/29 48/144/130 7/28/28
f 144/147/132 87/148/132 145/158/137
f 83/157/137 145/158/137 87/148/132
f 138/151/134 105/152/134 139/174/151
f 101/173/151 139/174/151 105/152/134
f 123/154/136 119/175/152 132/156/136
f 133/177/152 132/156/136 119/175/152
f 118/116/107 122/117/108 115/131/117
f 120/140/126 115/131/117 122/117/108
f 100/112/103 104/113/104 97/133/119
f 102/141/127 97/133/119 104/113/104
f 82/108/99 86/109/100 79/135/121
f 84/142/128 79/135/121 86/109/100
f 64/104/95 68/105/96 61/137/123
f 66/143/129 61/137/123 68/105/96
f 46/100/91 50/101/92 43/139/125
f 48/144/130 43/139/125 50/101/92
f 35/169/148 3/4/4 126/164/143
f 32/1/1 126/164/143 3/4/4
f 109/181/154 27/8/8 108/165/144
f 26/9/9 108/165/144 27/8/8
f 91/182/155 21/14/14 90/166/145
f 20/15/15 90/166/145 21/14/14
f 73/183/156 15/20/20 72/167/146
f 14/21/21 72/167/146 15/20/20
f 55/184/157 9/26/26 54/168/147
f 8/27/27 54/168/147 9/26/26
f 34/185/158 2/32/32 33/170/149
f 1/33/33 33/170/149 2/32/32
f 140/172/150 99/171/150 141/187/160
f 95/189/160 141/187/160 99/171/150
f 117/176/153 113/193/162 134/178/153
f 135/191/162 134/178/153 113/193/162
f 124/56/56 127/57/57 121/159/138
f 126/164/143 121/159/138 127/57/57
f 106/52/52 110/53/53 103/160/139
f 108/165/144 103/160/139 110/53/53
f 88/48/48 92/49/49 85/161/140
f 90/166/145 85/161/140 92/49/49
f 70/44/44 74/45/45 67/162/141
f 72/167/146 67/162/141 74/45/45
f 52/40/40 56/41/41 49/163/142
f 54/168/147 49/163/142 56/41/41
f 37/36/36 36/37/37 35/169/148
f 33/170/149 35/169/148 36/37/37
f 115/131/117 29/6/6 114/130/116
f 28/7/7 114/130/116 29/6/6
f 97/133/119 23/12/12 96/132/118
f 22/13/13 96/132/118 23/12/12
f 79/135/121 17/18/18 78/134/120
f 16/19/19 78/134/120 17/18/18
f 61/137/123 11/24/24 60/136/122
f 10/25/25 60/136/122 11/24/24
f 43/139/125 5/30/30 42/138/124
f 4/31/31 42/138/124 5/30/30
f 143/145/131 142/186/159 89/146/131
f 93/188/159 89/146/131 142/186/159
f 137/149/133 136/190/161 107/150/133
f 111/192/161 107/150/133 136/190/161
f 130/155/135 129/194/163 125/153/135
f 128/195/163 125/153/135 129/194/163
