#
#
#

mtllib L_AppButton.mtl


#
# __CM__AppButton Mesh
#
g __CM__AppButton Mesh


#
# __CM__AppButton Mesh___CM__BodySG
#
usemtl __CM__AppButton Mesh___CM__BodySG

v -0.005330 0.003646 0.061994
v -0.005225 0.003952 0.061931
v -0.004997 0.003765 0.061287
v -0.005090 0.003454 0.061331
v -0.004633 0.003596 0.060700
v -0.004713 0.003280 0.060729
v -0.004149 0.003451 0.060200
v -0.004212 0.003131 0.060216
v -0.003566 0.003337 0.059807
v -0.003611 0.003015 0.059812
v -0.002908 0.003261 0.059539
v -0.002935 0.002937 0.059539
v -0.002207 0.003224 0.059409
v -0.002214 0.002900 0.059407
v -0.001492 0.003230 0.059423
v -0.001479 0.002906 0.059422
v -0.000796 0.003278 0.059583
v -0.000765 0.002954 0.059585
v -0.000152 0.003365 0.059879
v -0.000101 0.003044 0.059887
v 0.000413 0.003488 0.060297
v 0.000481 0.003170 0.060317
v 0.000874 0.003641 0.060820
v 0.000957 0.003327 0.060853
v 0.001209 0.003817 0.061423
v 0.001306 0.003507 0.061472
v 0.001406 0.004008 0.062078
v 0.001512 0.003704 0.062147
v 0.001456 0.004206 0.062758
v 0.001569 0.003908 0.062847
v 0.001358 0.004401 0.063431
v 0.001470 0.004110 0.063543
v 0.001117 0.004586 0.064068
v 0.001216 0.004301 0.064200
v 0.000744 0.004752 0.064642
v 0.000827 0.004472 0.064791
v 0.000257 0.004893 0.065129
v 0.000322 0.004616 0.065289
v -0.000324 0.005002 0.065509
v -0.000277 0.004728 0.065678
v -0.000972 0.005076 0.065765
v -0.000945 0.004803 0.065939
v -0.001661 0.005110 0.065888
v -0.001653 0.004838 0.066064
v -0.002361 0.005104 0.065872
v -0.002373 0.004832 0.066046
v -0.003043 0.005058 0.065717
v -0.003073 0.004784 0.065888
v -0.003676 0.004973 0.065430
v -0.003726 0.004697 0.065597
v -0.004235 0.004854 0.065024
v -0.004303 0.004575 0.065181
v -0.004696 0.004706 0.064515
v -0.004780 0.004423 0.064659
v -0.005038 0.004533 0.063925
v -0.005137 0.004245 0.064053
v -0.005245 0.004345 0.063280
v -0.005357 0.004052 0.063387
v -0.005309 0.004148 0.062605
v -0.005421 0.003849 0.062689
v -0.004860 0.004154 0.061959
v -0.001931 0.004357 0.062628
v -0.004657 0.003988 0.061386
v -0.004334 0.003836 0.060865
v -0.003903 0.003708 0.060420
v -0.003384 0.003607 0.060070
v -0.002800 0.003538 0.059831
v -0.002176 0.003505 0.059716
v -0.001540 0.003511 0.059729
v -0.000922 0.003553 0.059871
v -0.000349 0.003631 0.060135
v 0.000154 0.003741 0.060507
v 0.000563 0.003877 0.060971
v 0.000862 0.004034 0.061508
v 0.001037 0.004204 0.062091
v 0.001081 0.004380 0.062694
v 0.000994 0.004555 0.063293
v 0.000779 0.004718 0.063860
v 0.000448 0.004866 0.064370
v 0.000015 0.004991 0.064804
v -0.000502 0.005087 0.065142
v -0.001078 0.005153 0.065369
v -0.001691 0.005183 0.065479
v -0.002314 0.005177 0.065464
v -0.002919 0.005136 0.065326
v -0.003483 0.005061 0.065071
v -0.003980 0.004955 0.064709
v -0.004390 0.004824 0.064258
v -0.004693 0.004671 0.063733
v -0.004878 0.004504 0.063158
v -0.004935 0.004329 0.062558
v -0.005323 0.001816 0.062507
v -0.005081 0.001625 0.061847
v -0.004702 0.001452 0.061250
v -0.004202 0.001305 0.060740
v -0.003602 0.001189 0.060340
v -0.002927 0.001111 0.060069
v -0.002209 0.001074 0.059937
v -0.001477 0.001081 0.059953
v -0.000765 0.001129 0.060115
v -0.000103 0.001218 0.060415
v 0.000478 0.001343 0.060841
v 0.000954 0.001499 0.061374
v 0.001305 0.001678 0.061989
v 0.001515 0.001874 0.062660
v 0.001575 0.002077 0.063358
v 0.001471 0.002289 0.064090
v 0.001213 0.002481 0.064747
v 0.000823 0.002650 0.065333
v 0.000317 0.002793 0.065828
v -0.000281 0.002904 0.066213
v -0.000946 0.002978 0.066471
v -0.001652 0.003013 0.066594
v -0.002367 0.003006 0.066578
v -0.003064 0.002959 0.066421
v -0.003714 0.002874 0.066131
v -0.004291 0.002753 0.065721
v -0.004769 0.002602 0.065202
v -0.005128 0.002425 0.064601
v -0.005352 0.002232 0.063936
v -0.005419 0.002017 0.063199
v -0.005167 0.004263 0.062574
v -0.005086 0.004075 0.061928
v -0.005105 0.004451 0.063221
v -0.004906 0.004631 0.063839
v -0.004579 0.004796 0.064403
v -0.004138 0.004938 0.064891
v -0.003603 0.005053 0.065280
v -0.002996 0.005133 0.065555
v -0.002343 0.005178 0.065703
v -0.001673 0.005184 0.065719
v -0.001013 0.005151 0.065601
v -0.000392 0.005081 0.065355
v 0.000164 0.004977 0.064992
v 0.000631 0.004841 0.064525
v 0.000988 0.004682 0.063976
v 0.001219 0.004505 0.063365
v 0.001313 0.004318 0.062720
v 0.001265 0.004129 0.062070
v 0.001077 0.003945 0.061442
v 0.000755 0.003777 0.060865
v 0.000314 0.003630 0.060364
v -0.000227 0.003512 0.059963
v -0.000844 0.003429 0.059679
v -0.001510 0.003383 0.059526
v -0.002195 0.003378 0.059512
v -0.002867 0.003413 0.059637
v -0.003497 0.003486 0.059894
v -0.004055 0.003594 0.060270
v -0.004519 0.003733 0.060751
v -0.004868 0.003896 0.061311
vn -0.972327 -0.019394 -0.232817
vn -0.849270 0.416760 -0.324116
vn -0.793314 0.362749 -0.488945
vn -0.904018 -0.075942 -0.420696
vn -0.701492 0.313747 -0.639900
vn -0.796282 -0.127085 -0.591426
vn -0.577807 0.271610 -0.769654
vn -0.653530 -0.170656 -0.737411
vn -0.427289 0.238507 -0.872089
vn -0.481784 -0.204730 -0.852039
vn -0.257043 0.215789 -0.942000
vn -0.288685 -0.227825 -0.929923
vn -0.074582 0.204527 -0.976016
vn -0.082662 -0.238867 -0.967528
vn 0.112192 0.205500 -0.972205
vn 0.127495 -0.237284 -0.963038
vn 0.293519 0.219271 -0.930466
vn 0.331753 -0.223000 -0.916630
vn 0.460679 0.244947 -0.853098
vn 0.521173 -0.196713 -0.830472
vn 0.606291 0.280875 -0.743990
vn 0.687623 -0.159694 -0.708288
vn 0.723753 0.325152 -0.608653
vn 0.823461 -0.113698 -0.555864
vn 0.808129 0.375942 -0.453426
vn 0.922954 -0.060666 -0.380099
vn 0.855804 0.431153 -0.285845
vn 0.982011 -0.002883 -0.188801
vn 0.865717 0.487708 -0.112584
vn 0.998256 0.057109 0.014954
vn 0.839635 0.539651 0.061566
vn 0.968874 0.116430 0.218464
vn 0.779814 0.582731 0.228725
vn 0.894682 0.172213 0.412173
vn 0.687103 0.619183 0.380135
vn 0.783916 0.218994 0.580963
vn 0.563752 0.649939 0.509670
vn 0.640054 0.258282 0.723617
vn 0.414907 0.673810 0.611419
vn 0.469311 0.288564 0.834553
vn 0.247252 0.689646 0.680629
vn 0.279106 0.308713 0.909283
vn 0.068509 0.696500 0.714279
vn 0.077335 0.317914 0.944960
vn -0.114311 0.694176 0.710671
vn -0.127983 0.315899 0.940122
vn -0.292035 0.683516 0.668971
vn -0.327650 0.302894 0.894931
vn -0.455755 0.664792 0.591894
vn -0.513309 0.279444 0.811434
vn -0.599088 0.638444 0.483202
vn -0.677951 0.246254 0.692634
vn -0.715540 0.605669 0.348092
vn -0.813890 0.204729 0.543754
vn -0.800109 0.568071 0.192671
vn -0.915483 0.156410 0.370711
vn -0.851147 0.524416 0.023168
vn -0.979681 0.099587 0.174090
vn -0.868010 0.472772 -0.151808
vn -0.998742 0.040062 -0.030153
vn -0.002598 0.959953 -0.280149
vn -0.001882 0.960184 -0.279363
vn -0.002556 0.959970 -0.280090
vn -0.002357 0.959873 -0.280426
vn -0.002290 0.959847 -0.280517
vn -0.002216 0.959837 -0.280550
vn -0.002119 0.959823 -0.280600
vn -0.001922 0.959818 -0.280617
vn -0.001581 0.959820 -0.280612
vn -0.001547 0.959814 -0.280633
vn -0.001621 0.959810 -0.280648
vn -0.001450 0.959851 -0.280506
vn -0.001253 0.959913 -0.280297
vn -0.001113 0.959989 -0.280035
vn -0.001114 0.959927 -0.280249
vn -0.001203 0.959950 -0.280168
vn -0.001427 0.960342 -0.278823
vn -0.001524 0.960526 -0.278187
vn -0.001541 0.960505 -0.278260
vn -0.001765 0.960576 -0.278012
vn -0.001713 0.960576 -0.278015
vn -0.001883 0.960580 -0.277998
vn -0.001999 0.960601 -0.277925
vn -0.002000 0.960590 -0.277964
vn -0.002144 0.960587 -0.277971
vn -0.002013 0.960606 -0.277907
vn -0.002110 0.960573 -0.278021
vn -0.002238 0.960546 -0.278113
vn -0.002241 0.960531 -0.278165
vn -0.002420 0.960304 -0.278944
vn -0.002536 0.959990 -0.280024
vn -0.972896 -0.065273 -0.221840
vn -0.904167 -0.120199 -0.409920
vn -0.796159 -0.169957 -0.580728
vn -0.653249 -0.212354 -0.726754
vn -0.481456 -0.245501 -0.841386
vn -0.288381 -0.267897 -0.919276
vn -0.082454 -0.278488 -0.956894
vn 0.127544 -0.276734 -0.952445
vn 0.331663 -0.262808 -0.906053
vn 0.521051 -0.237322 -0.819868
vn 0.687584 -0.201295 -0.697645
vn 0.823603 -0.156478 -0.545154
vn 0.923391 -0.104855 -0.369263
vn 0.982870 -0.048682 -0.177755
vn 0.999588 0.010410 0.026746
vn 0.969816 0.070354 0.233467
vn 0.894970 0.127098 0.427638
vn 0.783818 0.175565 0.595656
vn 0.639707 0.216371 0.737535
vn 0.468912 0.247942 0.847730
vn 0.278813 0.268959 0.921914
vn 0.077211 0.278689 0.957273
vn -0.127841 0.276861 0.952368
vn -0.327230 0.263488 0.907466
vn -0.512790 0.239144 0.824534
vn -0.677490 0.204734 0.706464
vn -0.813667 0.161673 0.558397
vn -0.915651 0.111591 0.386174
vn -0.980480 0.053702 0.189143
vn -0.999807 -0.006625 -0.018474
vn -0.462464 0.849467 -0.254035
vn -0.450155 0.823246 -0.345872
vn -0.454165 0.876096 -0.161832
vn -0.425147 0.902094 -0.074001
vn -0.377837 0.925856 0.005551
vn -0.314851 0.946262 0.073877
vn -0.238796 0.962561 0.128268
vn -0.152982 0.974109 0.166460
vn -0.060519 0.980444 0.187264
vn 0.034480 0.981243 0.189665
vn 0.127665 0.976524 0.173499
vn 0.215593 0.966488 0.139362
vn 0.294578 0.951509 0.088624
vn 0.361137 0.932228 0.023055
vn 0.412580 0.909296 -0.054387
vn 0.446067 0.883818 -0.141031
vn 0.459052 0.857266 -0.233166
vn 0.451102 0.830988 -0.325526
vn 0.423597 0.805523 -0.414365
vn 0.377752 0.781976 -0.495799
vn 0.315084 0.761634 -0.566247
vn 0.238244 0.745387 -0.622606
vn 0.151090 0.733861 -0.662284
vn 0.056981 0.727400 -0.683844
vn -0.039948 0.726524 -0.685979
vn -0.134767 0.731429 -0.668468
vn -0.223477 0.741681 -0.632429
vn -0.302556 0.756664 -0.579585
vn -0.368487 0.775896 -0.512057
vn -0.418387 0.798424 -0.432979
vn -0.282608 0.919868 -0.271984
vn -0.273900 0.904217 -0.327674
vn -0.277742 0.936151 -0.215596
vn -0.258817 0.952184 -0.162358
vn -0.228851 0.966644 -0.115009
vn -0.189946 0.978942 -0.074795
vn -0.143715 0.988687 -0.042944
vn -0.092207 0.995530 -0.020454
vn -0.037049 0.999278 -0.008384
vn 0.019652 0.999782 -0.007065
vn 0.075497 0.997014 -0.016237
vn 0.128435 0.991065 -0.035980
vn 0.176607 0.982101 -0.065482
vn 0.217927 0.970419 -0.103899
vn 0.250469 0.956431 -0.150020
vn 0.272031 0.940730 -0.202550
vn 0.279560 0.924474 -0.259220
vn 0.273138 0.908796 -0.315412
vn 0.255394 0.893699 -0.368885
vn 0.227030 0.879683 -0.417870
vn 0.188381 0.867986 -0.459471
vn 0.141574 0.858721 -0.492500
vn 0.089410 0.851932 -0.515963
vn 0.033322 0.848151 -0.528706
vn -0.024582 0.847778 -0.529781
vn -0.081342 0.850591 -0.519499
vn -0.134501 0.856390 -0.498504
vn -0.182276 0.865058 -0.467387
vn -0.222940 0.876066 -0.427558
vn -0.253916 0.889323 -0.380306
vt 0.675285 0.775213
vt 0.672783 0.774673
vt 0.671055 0.779977
vt 0.673386 0.781018
vt 0.668257 0.784816
vt 0.670315 0.786313
vt 0.664503 0.788974
vt 0.666201 0.790861
vt 0.659958 0.792265
vt 0.661223 0.794460
vt 0.654816 0.794536
vt 0.655594 0.796943
vt 0.649304 0.795681
vt 0.649562 0.798195
vt 0.643670 0.795645
vt 0.643396 0.798156
vt 0.638168 0.794420
vt 0.637373 0.796821
vt 0.633046 0.792068
vt 0.631765 0.794253
vt 0.628534 0.788697
vt 0.626821 0.790569
vt 0.624831 0.784459
vt 0.622759 0.785936
vt 0.622100 0.779547
vt 0.619758 0.780563
vt 0.620457 0.774181
vt 0.617944 0.774687
vt 0.619970 0.768599
vt 0.617395 0.768569
vt 0.620658 0.763048
vt 0.618141 0.762480
vt 0.622486 0.757774
vt 0.620156 0.756698
vt 0.625363 0.753004
vt 0.623316 0.751475
vt 0.629156 0.748938
vt 0.627478 0.747026
vt 0.633699 0.745747
vt 0.632455 0.743536
vt 0.638795 0.743561
vt 0.638034 0.741147
vt 0.644230 0.742470
vt 0.643982 0.739955
vt 0.649776 0.742519
vt 0.650053 0.740008
vt 0.655185 0.743731
vt 0.656006 0.741295
vt 0.660232 0.746027
vt 0.661535 0.743852
vt 0.664692 0.749329
vt 0.666422 0.747466
vt 0.668378 0.753479
vt 0.670464 0.752009
vt 0.671126 0.758306
vt 0.673483 0.757296
vt 0.672817 0.763599
vt 0.675345 0.763096
vt 0.673385 0.769134
vt 0.675925 0.769156
vt 0.669542 0.773964
vt 0.646713 0.768797
vt 0.668028 0.778614
vt 0.665577 0.782857
vt 0.662291 0.786503
vt 0.658307 0.789387
vt 0.653801 0.791377
vt 0.648972 0.792379
vt 0.644037 0.792346
vt 0.639219 0.791272
vt 0.634733 0.789209
vt 0.630782 0.786254
vt 0.627541 0.782540
vt 0.625151 0.778236
vt 0.623715 0.773535
vt 0.623292 0.768648
vt 0.623896 0.763789
vt 0.625497 0.759172
vt 0.628016 0.754995
vt 0.631338 0.751434
vt 0.635317 0.748638
vt 0.639782 0.746722
vt 0.644543 0.745766
vt 0.649395 0.745813
vt 0.654129 0.746869
vt 0.658544 0.748882
vt 0.662448 0.751770
vt 0.665671 0.755404
vt 0.668080 0.759626
vt 0.669567 0.764260
vt 0.670064 0.769109
vt 0.174863 0.050804
vt 0.174668 0.068566
vt 0.181496 0.068574
vt 0.181665 0.050812
vt 0.188331 0.068582
vt 0.188473 0.050820
vt 0.195173 0.068591
vt 0.195288 0.050829
vt 0.202023 0.068601
vt 0.202112 0.050839
vt 0.208878 0.068611
vt 0.208942 0.050849
vt 0.215738 0.068621
vt 0.215777 0.050858
vt 0.222602 0.068630
vt 0.222616 0.050868
vt 0.018325 0.050882
vt 0.018365 0.068644
vt 0.025230 0.068633
vt 0.025165 0.050871
vt 0.032094 0.068622
vt 0.032004 0.050859
vt 0.038955 0.068611
vt 0.038840 0.050849
vt 0.045811 0.068600
vt 0.045671 0.050838
vt 0.052663 0.068590
vt 0.052497 0.050828
vt 0.059508 0.068581
vt 0.059318 0.050819
vt 0.066349 0.068573
vt 0.066134 0.050812
vt 0.073181 0.068568
vt 0.073318 0.050806
vt 0.079997 0.068564
vt 0.080148 0.050801
vt 0.086790 0.068561
vt 0.086921 0.050799
vt 0.093563 0.068559
vt 0.093668 0.050797
vt 0.100316 0.068558
vt 0.100393 0.050795
vt 0.107054 0.068557
vt 0.107100 0.050794
vt 0.113781 0.068556
vt 0.113795 0.050794
vt 0.120505 0.068555
vt 0.120485 0.050793
vt 0.127229 0.068554
vt 0.127175 0.050792
vt 0.133958 0.068553
vt 0.133873 0.050791
vt 0.140698 0.068553
vt 0.140585 0.050790
vt 0.147456 0.068553
vt 0.147316 0.050791
vt 0.154234 0.068554
vt 0.154071 0.050792
vt 0.161032 0.068556
vt 0.160872 0.050794
vt 0.167846 0.068560
vt 0.168066 0.050798
vt 0.671942 0.769122
vt 0.671375 0.774364
vt 0.671405 0.763885
vt 0.669802 0.758878
vt 0.667199 0.754316
vt 0.663716 0.750390
vt 0.659498 0.747269
vt 0.654726 0.745096
vt 0.649611 0.743952
vt 0.644367 0.743904
vt 0.639225 0.744936
vt 0.634403 0.747004
vt 0.630105 0.750023
vt 0.626516 0.753869
vt 0.623795 0.758381
vt 0.622065 0.763369
vt 0.621413 0.768620
vt 0.621872 0.773900
vt 0.623426 0.778977
vt 0.626009 0.783624
vt 0.629511 0.787634
vt 0.633779 0.790825
vt 0.638624 0.793051
vt 0.643829 0.794210
vt 0.649159 0.794245
vt 0.654374 0.793162
vt 0.659239 0.791014
vt 0.663543 0.787902
vt 0.667092 0.783964
vt 0.669740 0.779384
f 1/1/1 2/2/2 3/3/3 4/4/4
f 4/4/4 3/3/3 5/5/5 6/6/6
f 6/6/6 5/5/5 7/7/7 8/8/8
f 8/8/8 7/7/7 9/9/9 10/10/10
f 10/10/10 9/9/9 11/11/11 12/12/12
f 12/12/12 11/11/11 13/13/13 14/14/14
f 14/14/14 13/13/13 15/15/15 16/16/16
f 16/16/16 15/15/15 17/17/17 18/18/18
f 18/18/18 17/17/17 19/19/19 20/20/20
f 20/20/20 19/19/19 21/21/21 22/22/22
f 22/22/22 21/21/21 23/23/23 24/24/24
f 24/24/24 23/23/23 25/25/25 26/26/26
f 26/26/26 25/25/25 27/27/27 28/28/28
f 28/28/28 27/27/27 29/29/29 30/30/30
f 30/30/30 29/29/29 31/31/31 32/32/32
f 32/32/32 31/31/31 33/33/33 34/34/34
f 34/34/34 33/33/33 35/35/35 36/36/36
f 36/36/36 35/35/35 37/37/37 38/38/38
f 38/38/38 37/37/37 39/39/39 40/40/40
f 40/40/40 39/39/39 41/41/41 42/42/42
f 42/42/42 41/41/41 43/43/43 44/44/44
f 44/44/44 43/43/43 45/45/45 46/46/46
f 46/46/46 45/45/45 47/47/47 48/48/48
f 48/48/48 47/47/47 49/49/49 50/50/50
f 50/50/50 49/49/49 51/51/51 52/52/52
f 52/52/52 51/51/51 53/53/53 54/54/54
f 54/54/54 53/53/53 55/55/55 56/56/56
f 56/56/56 55/55/55 57/57/57 58/58/58
f 58/58/58 57/57/57 59/59/59 60/60/60
f 60/60/60 59/59/59 2/2/2 1/1/1
f 61/61/61 62/62/62 63/63/63
f 63/63/63 62/62/62 64/64/64
f 64/64/64 62/62/62 65/65/65
f 65/65/65 62/62/62 66/66/66
f 66/66/66 62/62/62 67/67/67
f 67/67/67 62/62/62 68/68/68
f 68/68/68 62/62/62 69/69/69
f 69/69/69 62/62/62 70/70/70
f 70/70/70 62/62/62 71/71/71
f 71/71/71 62/62/62 72/72/72
f 72/72/72 62/62/62 73/73/73
f 73/73/73 62/62/62 74/74/74
f 74/74/74 62/62/62 75/75/75
f 75/75/75 62/62/62 76/76/76
f 76/76/76 62/62/62 77/77/77
f 77/77/77 62/62/62 78/78/78
f 78/78/78 62/62/62 79/79/79
f 79/79/79 62/62/62 80/80/80
f 80/80/80 62/62/62 81/81/81
f 81/81/81 62/62/62 82/82/82
f 82/82/82 62/62/62 83/83/83
f 83/83/83 62/62/62 84/84/84
f 84/84/84 62/62/62 85/85/85
f 85/85/85 62/62/62 86/86/86
f 86/86/86 62/62/62 87/87/87
f 87/87/87 62/62/62 88/88/88
f 88/88/88 62/62/62 89/89/89
f 89/89/89 62/62/62 90/90/90
f 90/90/90 62/62/62 91/91/91
f 91/91/91 62/62/62 61/61/61
f 92/92/92 1/93/1 4/94/4 93/95/93
f 93/95/93 4/94/4 6/96/6 94/97/94
f 94/97/94 6/96/6 8/98/8 95/99/95
f 95/99/95 8/98/8 10/100/10 96/101/96
f 96/101/96 10/100/10 12/102/12 97/103/97
f 97/103/97 12/102/12 14/104/14 98/105/98
f 98/105/98 14/104/14 16/106/16 99/107/99
f 99/108/99 16/109/16 18/110/18 100/111/100
f 100/111/100 18/110/18 20/112/20 101/113/101
f 101/113/101 20/112/20 22/114/22 102/115/102
f 102/115/102 22/114/22 24/116/24 103/117/103
f 103/117/103 24/116/24 26/118/26 104/119/104
f 104/119/104 26/118/26 28/120/28 105/121/105
f 105/121/105 28/120/28 30/122/30 106/123/106
f 106/123/106 30/122/30 32/124/32 107/125/107
f 107/125/107 32/124/32 34/126/34 108/127/108
f 108/127/108 34/126/34 36/128/36 109/129/109
f 109/129/109 36/128/36 38/130/38 110/131/110
f 110/131/110 38/130/38 40/132/40 111/133/111
f 111/133/111 40/132/40 42/134/42 112/135/112
f 112/135/112 42/134/42 44/136/44 113/137/113
f 113/137/113 44/136/44 46/138/46 114/139/114
f 114/139/114 46/138/46 48/140/48 115/141/115
f 115/141/115 48/140/48 50/142/50 116/143/116
f 116/143/116 50/142/50 52/144/52 117/145/117
f 117/145/117 52/144/52 54/146/54 118/147/118
f 118/147/118 54/146/54 56/148/56 119/149/119
f 119/149/119 56/148/56 58/150/58 120/151/120
f 120/151/120 58/150/58 60/152/60 121/153/121
f 121/153/121 60/152/60 1/93/1 92/92/92
f 59/59/59 122/154/122 123/155/123 2/2/2
f 57/57/57 124/156/124 122/154/122 59/59/59
f 55/55/55 125/157/125 124/156/124 57/57/57
f 53/53/53 126/158/126 125/157/125 55/55/55
f 51/51/51 127/159/127 126/158/126 53/53/53
f 49/49/49 128/160/128 127/159/127 51/51/51
f 47/47/47 129/161/129 128/160/128 49/49/49
f 45/45/45 130/162/130 129/161/129 47/47/47
f 43/43/43 131/163/131 130/162/130 45/45/45
f 41/41/41 132/164/132 131/163/131 43/43/43
f 39/39/39 133/165/133 132/164/132 41/41/41
f 37/37/37 134/166/134 133/165/133 39/39/39
f 35/35/35 135/167/135 134/166/134 37/37/37
f 33/33/33 136/168/136 135/167/135 35/35/35
f 31/31/31 137/169/137 136/168/136 33/33/33
f 29/29/29 138/170/138 137/169/137 31/31/31
f 27/27/27 139/171/139 138/170/138 29/29/29
f 25/25/25 140/172/140 139/171/139 27/27/27
f 23/23/23 141/173/141 140/172/140 25/25/25
f 21/21/21 142/174/142 141/173/141 23/23/23
f 19/19/19 143/175/143 142/174/142 21/21/21
f 17/17/17 144/176/144 143/175/143 19/19/19
f 15/15/15 145/177/145 144/176/144 17/17/17
f 13/13/13 146/178/146 145/177/145 15/15/15
f 11/11/11 147/179/147 146/178/146 13/13/13
f 9/9/9 148/180/148 147/179/147 11/11/11
f 7/7/7 149/181/149 148/180/148 9/9/9
f 5/5/5 150/182/150 149/181/149 7/7/7
f 3/3/3 151/183/151 150/182/150 5/5/5
f 2/2/2 123/155/123 151/183/151 3/3/3
f 122/154/122 91/91/152 61/61/153 123/155/123
f 124/156/124 90/90/154 91/91/152 122/154/122
f 125/157/125 89/89/155 90/90/154 124/156/124
f 126/158/126 88/88/156 89/89/155 125/157/125
f 127/159/127 87/87/157 88/88/156 126/158/126
f 128/160/128 86/86/158 87/87/157 127/159/127
f 129/161/129 85/85/159 86/86/158 128/160/128
f 130/162/130 84/84/160 85/85/159 129/161/129
f 131/163/131 83/83/161 84/84/160 130/162/130
f 132/164/132 82/82/162 83/83/161 131/163/131
f 133/165/133 81/81/163 82/82/162 132/164/132
f 134/166/134 80/80/164 81/81/163 133/165/133
f 135/167/135 79/79/165 80/80/164 134/166/134
f 136/168/136 78/78/166 79/79/165 135/167/135
f 137/169/137 77/77/167 78/78/166 136/168/136
f 138/170/138 76/76/168 77/77/167 137/169/137
f 139/171/139 75/75/169 76/76/168 138/170/138
f 140/172/140 74/74/170 75/75/169 139/171/139
f 141/173/141 73/73/171 74/74/170 140/172/140
f 142/174/142 72/72/172 73/73/171 141/173/141
f 143/175/143 71/71/173 72/72/172 142/174/142
f 144/176/144 70/70/174 71/71/173 143/175/143
f 145/177/145 69/69/175 70/70/174 144/176/144
f 146/178/146 68/68/176 69/69/175 145/177/145
f 147/179/147 67/67/177 68/68/176 146/178/146
f 148/180/148 66/66/178 67/67/177 147/179/147
f 149/181/149 65/65/179 66/66/178 148/180/148
f 150/182/150 64/64/180 65/65/179 149/181/149
f 151/183/151 63/63/181 64/64/180 150/182/150
f 123/155/123 61/61/153 63/63/181 151/183/151
