#
#
#

mtllib L_ButtonY.mtl


#
# __CM__ButtonY Mesh
#
g __CM__ButtonY Mesh


#
# __CM__ButtonY Mesh___CM__BodySG
#
usemtl __CM__ButtonY Mesh___CM__BodySG

v 0.017073 -0.003735 0.050433
v 0.017074 0.000757 0.049087
v 0.017368 0.000502 0.048184
v 0.017380 -0.003996 0.049539
v 0.017848 0.000274 0.047352
v 0.017862 -0.004233 0.048720
v 0.018489 0.000082 0.046627
v 0.018501 -0.004439 0.048006
v 0.019266 -0.000067 0.046037
v 0.019274 -0.004607 0.047425
v 0.020146 -0.000165 0.045599
v 0.020149 -0.004728 0.047001
v 0.021099 -0.000210 0.045342
v 0.021093 -0.004800 0.046749
v 0.022083 -0.000201 0.045266
v 0.022070 -0.004818 0.046678
v 0.023061 -0.000136 0.045379
v 0.023043 -0.004783 0.046792
v 0.023996 -0.000019 0.045667
v 0.023974 -0.004696 0.047086
v 0.024843 0.000145 0.046139
v 0.024828 -0.004560 0.047549
v 0.025577 0.000350 0.046757
v 0.025570 -0.004380 0.048162
v 0.026186 0.000587 0.047489
v 0.026174 -0.004163 0.048903
v 0.026620 0.000848 0.048328
v 0.026616 -0.003918 0.049743
v 0.026870 0.001122 0.049233
v 0.026878 -0.003653 0.050650
v 0.026943 0.001401 0.050167
v 0.026950 -0.003380 0.051588
v 0.026806 0.001668 0.051095
v 0.026817 -0.003111 0.052517
v 0.026491 0.001918 0.051981
v 0.026500 -0.002854 0.053403
v 0.026018 0.002143 0.052800
v 0.026012 -0.002620 0.054210
v 0.025370 0.002328 0.053499
v 0.025372 -0.002418 0.054911
v 0.024610 0.002476 0.054082
v 0.024605 -0.002254 0.055477
v 0.023745 0.002573 0.054512
v 0.023739 -0.002135 0.055892
v 0.022811 0.002621 0.054773
v 0.022807 -0.002064 0.056139
v 0.021842 0.002615 0.054849
v 0.021840 -0.002046 0.056208
v 0.020877 0.002553 0.054747
v 0.020871 -0.002081 0.056095
v 0.019953 0.002440 0.054467
v 0.019954 -0.002168 0.055805
v 0.019105 0.002278 0.054018
v 0.019111 -0.002301 0.055351
v 0.018360 0.002079 0.053420
v 0.018374 -0.002477 0.054750
v 0.017754 0.001843 0.052693
v 0.017771 -0.002690 0.054022
v 0.017305 0.001583 0.051863
v 0.017325 -0.002932 0.053196
v 0.017035 0.001308 0.050962
v 0.017053 -0.003192 0.052299
v 0.016953 0.001029 0.050024
v 0.016967 -0.003465 0.051367
v 0.017318 0.001209 0.049009
v 0.018813 0.001997 0.049113
v 0.019011 0.001829 0.048532
v 0.017600 0.000969 0.048155
v 0.019322 0.001689 0.048008
v 0.018057 0.000754 0.047373
v 0.019736 0.001566 0.047545
v 0.018666 0.000571 0.046689
v 0.020227 0.001470 0.047174
v 0.019399 0.000431 0.046134
v 0.020792 0.001407 0.046900
v 0.020232 0.000338 0.045726
v 0.021401 0.001377 0.046734
v 0.021131 0.000296 0.045481
v 0.022023 0.001381 0.046686
v 0.022057 0.000304 0.045409
v 0.022648 0.001418 0.046754
v 0.022980 0.000364 0.045515
v 0.023250 0.001492 0.046942
v 0.023864 0.000472 0.045791
v 0.023791 0.001590 0.047230
v 0.024666 0.000627 0.046230
v 0.024262 0.001720 0.047622
v 0.025359 0.000819 0.046808
v 0.024655 0.001869 0.048098
v 0.025934 0.001045 0.047501
v 0.024939 0.002037 0.048640
v 0.026348 0.001293 0.048296
v 0.025112 0.002212 0.049222
v 0.026589 0.001549 0.049152
v 0.025159 0.002389 0.049817
v 0.026657 0.001812 0.050035
v 0.025077 0.002564 0.050415
v 0.026530 0.002065 0.050916
v 0.024873 0.002727 0.050993
v 0.026234 0.002302 0.051755
v 0.024567 0.002868 0.051513
v 0.025785 0.002518 0.052528
v 0.024159 0.002988 0.051958
v 0.025175 0.002692 0.053190
v 0.023645 0.003087 0.052341
v 0.024449 0.002833 0.053742
v 0.023085 0.003149 0.052626
v 0.023629 0.002926 0.054151
v 0.022507 0.003176 0.052782
v 0.022751 0.002971 0.054393
v 0.021880 0.003173 0.052824
v 0.021833 0.002964 0.054462
v 0.021242 0.003134 0.052759
v 0.020915 0.002905 0.054365
v 0.020648 0.003062 0.052583
v 0.020040 0.002798 0.054103
v 0.020104 0.002963 0.052298
v 0.019238 0.002646 0.053681
v 0.019625 0.002837 0.051910
v 0.018533 0.002458 0.053115
v 0.019235 0.002687 0.051439
v 0.017958 0.002235 0.052425
v 0.018950 0.002520 0.050901
v 0.017534 0.001991 0.051639
v 0.018779 0.002345 0.050315
v 0.017279 0.001731 0.050784
v 0.018728 0.002169 0.049718
v 0.017202 0.001466 0.049898
v 0.020362 0.002529 0.049300
v 0.020454 0.002448 0.049023
v 0.020611 0.002373 0.048750
v 0.020823 0.002308 0.048509
v 0.021076 0.002255 0.048313
v 0.021343 0.002222 0.048176
v 0.021664 0.002206 0.048086
v 0.021988 0.002205 0.048059
v 0.022318 0.002223 0.048091
v 0.022605 0.002257 0.048180
v 0.022883 0.002308 0.048326
v 0.023127 0.002372 0.048521
v 0.023331 0.002449 0.048763
v 0.023480 0.002534 0.049041
v 0.023570 0.002626 0.049340
v 0.023596 0.002723 0.049661
v 0.023550 0.002813 0.049967
v 0.023443 0.002899 0.050271
v 0.023279 0.002973 0.050540
v 0.023070 0.003035 0.050765
v 0.022807 0.003085 0.050958
v 0.022516 0.003116 0.051093
v 0.022222 0.003130 0.051168
v 0.021905 0.003128 0.051189
v 0.021582 0.003107 0.051151
v 0.021284 0.003071 0.051054
v 0.021012 0.003021 0.050906
v 0.020773 0.002956 0.050707
v 0.020579 0.002881 0.050468
v 0.020438 0.002796 0.050199
v 0.020351 0.002707 0.049904
v 0.020319 0.002619 0.049613
v 0.021948 0.002806 0.049590
v 0.017447 0.000768 0.048143
v 0.017920 0.000545 0.047331
v 0.018550 0.000356 0.046621
v 0.019311 0.000212 0.046042
v 0.020174 0.000115 0.045617
v 0.021107 0.000072 0.045362
v 0.022070 0.000082 0.045287
v 0.023028 0.000145 0.045395
v 0.023945 0.000258 0.045681
v 0.024781 0.000420 0.046135
v 0.025504 0.000623 0.046735
v 0.026094 0.000852 0.047461
v 0.026522 0.001108 0.048286
v 0.026780 0.001382 0.049170
v 0.026850 0.001655 0.050088
v 0.026724 0.001923 0.051003
v 0.026417 0.002172 0.051877
v 0.025944 0.002388 0.052680
v 0.025315 0.002578 0.053372
v 0.024559 0.002720 0.053944
v 0.023705 0.002813 0.054367
v 0.022788 0.002858 0.054619
v 0.021835 0.002852 0.054693
v 0.020883 0.002791 0.054593
v 0.019974 0.002678 0.054318
v 0.019139 0.002521 0.053879
v 0.018408 0.002324 0.053290
v 0.017810 0.002092 0.052573
v 0.017370 0.001837 0.051757
v 0.017104 0.001567 0.050869
v 0.017023 0.001292 0.049946
v 0.017148 0.001023 0.049026
vn -0.977389 -0.062021 -0.202147
vn -0.977035 -0.047648 -0.207681
vn -0.916166 -0.101155 -0.387825
vn -0.916755 -0.117038 -0.381920
vn -0.818898 -0.151415 -0.553606
vn -0.819805 -0.168415 -0.547317
vn -0.689908 -0.194927 -0.697159
vn -0.691151 -0.212434 -0.690784
vn -0.534943 -0.229895 -0.813009
vn -0.536475 -0.247852 -0.806700
vn -0.358632 -0.255266 -0.897899
vn -0.360406 -0.273754 -0.891721
vn -0.167907 -0.269991 -0.948110
vn -0.169676 -0.288701 -0.942264
vn 0.028178 -0.273432 -0.961479
vn 0.026420 -0.292156 -0.956006
vn 0.221676 -0.265790 -0.938198
vn 0.220108 -0.284781 -0.932980
vn 0.410392 -0.246873 -0.877857
vn 0.409081 -0.265873 -0.872906
vn 0.582806 -0.217321 -0.783013
vn 0.581942 -0.235286 -0.778450
vn 0.725640 -0.180435 -0.663995
vn 0.725103 -0.198050 -0.659547
vn 0.845033 -0.135598 -0.517236
vn 0.844809 -0.154005 -0.512426
vn 0.934538 -0.083732 -0.345872
vn 0.934632 -0.101883 -0.340709
vn 0.985556 -0.030099 -0.166651
vn 0.985759 -0.046993 -0.161465
vn 0.999318 0.026767 0.025424
vn 0.999467 0.010905 0.030778
vn 0.972638 0.082963 0.217007
vn 0.972569 0.068194 0.222394
vn 0.911787 0.132676 0.388640
vn 0.911436 0.118337 0.394058
vn 0.813706 0.179964 0.552717
vn 0.812939 0.165693 0.558280
vn 0.685157 0.220980 0.694066
vn 0.684245 0.206988 0.699260
vn 0.536001 0.252858 0.805460
vn 0.534655 0.238761 0.810640
vn 0.362047 0.276585 0.890181
vn 0.360566 0.261967 0.895191
vn 0.173429 0.290842 0.940922
vn 0.172029 0.275870 0.945675
vn -0.021806 0.294792 0.955313
vn -0.023292 0.279665 0.959815
vn -0.214519 0.287798 0.933357
vn -0.216245 0.272792 0.937456
vn -0.400459 0.270059 0.875615
vn -0.401983 0.255442 0.879295
vn -0.569520 0.242815 0.785295
vn -0.570563 0.228699 0.788768
vn -0.717438 0.207106 0.665124
vn -0.718094 0.193142 0.668609
vn -0.839068 0.163777 0.518789
vn -0.839394 0.150013 0.522411
vn -0.928698 0.114849 0.352605
vn -0.928766 0.101257 0.356567
vn -0.983158 0.061838 0.171980
vn -0.983143 0.048417 0.176311
vn -0.999808 0.006776 -0.018372
vn -0.999889 -0.006599 -0.013348
vn -0.472601 0.811947 -0.342623
vn -0.369031 0.866938 -0.335015
vn -0.348667 0.849423 -0.396121
vn -0.447777 0.787797 -0.422932
vn -0.313975 0.833813 -0.454067
vn -0.403511 0.766135 -0.500216
vn -0.268624 0.819598 -0.506064
vn -0.344038 0.748256 -0.567231
vn -0.214821 0.808352 -0.548105
vn -0.272060 0.734964 -0.621137
vn -0.153677 0.801222 -0.578297
vn -0.191788 0.726207 -0.660182
vn -0.087208 0.797913 -0.596431
vn -0.105123 0.722060 -0.683797
vn -0.017408 0.798141 -0.602219
vn -0.014446 0.722703 -0.691008
vn 0.051738 0.801816 -0.595327
vn 0.075437 0.728728 -0.680636
vn 0.118579 0.809455 -0.575084
vn 0.161528 0.739089 -0.653955
vn 0.179238 0.820376 -0.543008
vn 0.239710 0.754468 -0.610998
vn 0.229742 0.834704 -0.500488
vn 0.305156 0.772788 -0.556487
vn 0.271369 0.851833 -0.448039
vn 0.361062 0.793456 -0.489961
vn 0.302599 0.870654 -0.387809
vn 0.402482 0.817797 -0.411359
vn 0.321540 0.889267 -0.325294
vn 0.424533 0.843250 -0.329699
vn 0.327171 0.909246 -0.257353
vn 0.429809 0.869909 -0.241914
vn 0.318457 0.929011 -0.188477
vn 0.416515 0.895901 -0.154523
vn 0.296387 0.946667 -0.126399
vn 0.388228 0.918417 -0.076087
vn 0.261323 0.962863 -0.067866
vn 0.343204 0.939261 -0.000746
vn 0.215254 0.976389 -0.018152
vn 0.283017 0.957093 0.062254
vn 0.160864 0.986764 0.020504
vn 0.214953 0.970142 0.112336
vn 0.099172 0.993750 0.051250
vn 0.136605 0.978739 0.153003
vn 0.032573 0.997142 0.068170
vn 0.050253 0.983088 0.176107
vn -0.035472 0.996798 0.071669
vn -0.037686 0.982772 0.180938
vn -0.102893 0.992597 0.064527
vn -0.124107 0.977322 0.171577
vn -0.167924 0.984763 0.045204
vn -0.208370 0.966915 0.147162
vn -0.226540 0.973894 0.014528
vn -0.284880 0.952476 0.107860
vn -0.278803 0.959939 -0.028032
vn -0.352523 0.934251 0.053876
vn -0.322293 0.943203 -0.080600
vn -0.408337 0.912737 -0.013123
vn -0.352865 0.925355 -0.138579
vn -0.448380 0.889468 -0.088325
vn -0.371539 0.906556 -0.200287
vn -0.472892 0.864731 -0.169155
vn -0.377937 0.886088 -0.268352
vn -0.481567 0.837892 -0.256963
vn -0.235731 0.917587 -0.320104
vn -0.224206 0.906907 -0.356722
vn -0.202887 0.898131 -0.390124
vn -0.173698 0.889364 -0.422920
vn -0.141412 0.882444 -0.448659
vn -0.104896 0.878105 -0.466828
vn -0.064116 0.876622 -0.476889
vn -0.020811 0.876765 -0.480468
vn 0.020851 0.878577 -0.477145
vn 0.060887 0.883380 -0.464686
vn 0.096433 0.890148 -0.445350
vn 0.128518 0.898584 -0.419559
vn 0.155019 0.908586 -0.387868
vn 0.173589 0.919244 -0.353352
vn 0.184198 0.930945 -0.315300
vn 0.187761 0.943355 -0.273547
vn 0.181772 0.955764 -0.231243
vn 0.168055 0.967067 -0.191152
vn 0.147724 0.976733 -0.155467
vn 0.120327 0.984791 -0.125337
vn 0.086292 0.991250 -0.099891
vn 0.048443 0.995540 -0.080952
vn 0.008684 0.997489 -0.070286
vn -0.032834 0.997188 -0.067366
vn -0.074935 0.994579 -0.072095
vn -0.114560 0.989849 -0.084118
vn -0.149881 0.983310 -0.103138
vn -0.182359 0.974548 -0.130392
vn -0.209633 0.963981 -0.163693
vn -0.228061 0.953109 -0.198926
vn -0.238232 0.942075 -0.236095
vn -0.242079 0.929570 -0.278025
vn -0.025457 0.958608 -0.283590
vn -0.807297 0.361828 -0.466210
vn -0.720836 0.328951 -0.610071
vn -0.608405 0.300712 -0.734450
vn -0.474030 0.280464 -0.834647
vn -0.322512 0.268807 -0.907595
vn -0.159919 0.262295 -0.951645
vn 0.007319 0.262898 -0.964796
vn 0.172117 0.276981 -0.945334
vn 0.332400 0.298098 -0.894790
vn 0.481270 0.320239 -0.815982
vn 0.604766 0.350089 -0.715329
vn 0.706497 0.390948 -0.589934
vn 0.782979 0.434547 -0.445098
vn 0.828198 0.477984 -0.292608
vn 0.841670 0.524806 -0.127165
vn 0.821111 0.569508 0.037916
vn 0.770403 0.609379 0.187447
vn 0.686750 0.647015 0.331281
vn 0.575510 0.680384 0.453725
vn 0.446675 0.704851 0.551060
vn 0.296414 0.721036 0.626296
vn 0.132683 0.730576 0.669817
vn -0.035340 0.732415 0.679941
vn -0.200637 0.721139 0.663101
vn -0.361626 0.697360 0.618802
vn -0.508937 0.666276 0.545031
vn -0.637652 0.630442 0.442655
vn -0.743729 0.588678 0.316743
vn -0.821721 0.542903 0.173295
vn -0.868999 0.494523 0.016962
vn -0.883156 0.444115 -0.150988
vn -0.861068 0.399864 -0.314118
vt 0.152139 0.078733
vt 0.152139 0.106452
vt 0.157755 0.106452
vt 0.157755 0.078733
vt 0.163378 0.106452
vt 0.163378 0.078733
vt 0.169003 0.106452
vt 0.169003 0.078733
vt 0.174629 0.106452
vt 0.174629 0.078733
vt 0.180255 0.106452
vt 0.180255 0.078733
vt 0.185882 0.106452
vt 0.185882 0.078733
vt 0.191506 0.106452
vt 0.191506 0.078733
vt 0.197128 0.106452
vt 0.197128 0.078733
vt 0.018325 0.078733
vt 0.018325 0.106452
vt 0.023945 0.106452
vt 0.023945 0.078733
vt 0.029561 0.106452
vt 0.029561 0.078733
vt 0.035167 0.106452
vt 0.035167 0.078733
vt 0.040773 0.106452
vt 0.040773 0.078733
vt 0.046378 0.106452
vt 0.046378 0.078733
vt 0.051980 0.106452
vt 0.051980 0.078733
vt 0.057576 0.106452
vt 0.057576 0.078733
vt 0.063160 0.106452
vt 0.063160 0.078733
vt 0.068728 0.106452
vt 0.068728 0.078733
vt 0.074288 0.106452
vt 0.074288 0.078733
vt 0.079838 0.106452
vt 0.079838 0.078733
vt 0.085379 0.106452
vt 0.085379 0.078733
vt 0.090920 0.106452
vt 0.090920 0.078733
vt 0.096459 0.106452
vt 0.096459 0.078733
vt 0.102010 0.106452
vt 0.102010 0.078733
vt 0.107579 0.106452
vt 0.107579 0.078733
vt 0.113122 0.106452
vt 0.113122 0.078733
vt 0.118667 0.106452
vt 0.118667 0.078733
vt 0.124219 0.106452
vt 0.124219 0.078733
vt 0.129780 0.106452
vt 0.129780 0.078733
vt 0.135352 0.106452
vt 0.135352 0.078733
vt 0.140936 0.106452
vt 0.140936 0.078733
vt 0.146533 0.106452
vt 0.146533 0.078733
vt 0.583307 0.859670
vt 0.573530 0.856451
vt 0.571908 0.860016
vt 0.580907 0.865035
vt 0.569625 0.863109
vt 0.577472 0.869809
vt 0.566762 0.865742
vt 0.573150 0.873833
vt 0.563490 0.867741
vt 0.568129 0.876904
vt 0.559838 0.869059
vt 0.562588 0.878937
vt 0.555989 0.869650
vt 0.556751 0.879827
vt 0.552154 0.869482
vt 0.550876 0.879562
vt 0.548388 0.868572
vt 0.545166 0.878146
vt 0.544845 0.866911
vt 0.539823 0.875646
vt 0.541756 0.864662
vt 0.535126 0.872139
vt 0.539180 0.861803
vt 0.531221 0.867807
vt 0.537123 0.858482
vt 0.528181 0.862797
vt 0.535801 0.854810
vt 0.526191 0.857277
vt 0.535195 0.850976
vt 0.525335 0.851507
vt 0.535337 0.847159
vt 0.525598 0.845688
vt 0.536295 0.843425
vt 0.527037 0.840035
vt 0.537954 0.839902
vt 0.529540 0.834794
vt 0.540198 0.836833
vt 0.532950 0.830108
vt 0.543013 0.834316
vt 0.537266 0.826273
vt 0.546423 0.832273
vt 0.542231 0.823248
vt 0.550046 0.830891
vt 0.547668 0.821233
vt 0.553684 0.830333
vt 0.553336 0.820342
vt 0.557536 0.830530
vt 0.559123 0.820597
vt 0.561371 0.831428
vt 0.564783 0.821943
vt 0.564865 0.832996
vt 0.570055 0.824338
vt 0.567969 0.835216
vt 0.574753 0.827713
vt 0.570605 0.838042
vt 0.578727 0.831950
vt 0.572643 0.841339
vt 0.581805 0.836896
vt 0.573995 0.844971
vt 0.583864 0.842347
vt 0.574598 0.848825
vt 0.584839 0.848110
vt 0.574487 0.852660
vt 0.584657 0.853953
vt 0.564082 0.853312
vt 0.563331 0.854988
vt 0.562191 0.856576
vt 0.560745 0.857931
vt 0.559085 0.858976
vt 0.557382 0.859635
vt 0.555389 0.859954
vt 0.553422 0.859888
vt 0.551459 0.859438
vt 0.549805 0.858661
vt 0.548240 0.857538
vt 0.546915 0.856136
vt 0.545867 0.854466
vt 0.545171 0.852618
vt 0.544850 0.850677
vt 0.544923 0.848644
vt 0.545426 0.846757
vt 0.546287 0.844932
vt 0.547465 0.843374
vt 0.548886 0.842121
vt 0.550605 0.841112
vt 0.552445 0.840469
vt 0.554266 0.840223
vt 0.556184 0.840328
vt 0.558090 0.840808
vt 0.559815 0.841629
vt 0.561335 0.842763
vt 0.562624 0.844185
vt 0.563614 0.845826
vt 0.564271 0.847621
vt 0.564578 0.849531
vt 0.564570 0.851379
vt 0.554778 0.850063
vt 0.582256 0.865791
vt 0.578644 0.870827
vt 0.574097 0.875064
vt 0.568806 0.878311
vt 0.562968 0.880447
vt 0.556826 0.881384
vt 0.550635 0.881103
vt 0.544625 0.879608
vt 0.539012 0.876974
vt 0.534064 0.873279
vt 0.529951 0.868715
vt 0.526766 0.863444
vt 0.524681 0.857643
vt 0.523779 0.851573
vt 0.524058 0.845451
vt 0.525564 0.839504
vt 0.528186 0.833989
vt 0.531792 0.829061
vt 0.536329 0.825005
vt 0.541535 0.821832
vt 0.547255 0.819724
vt 0.553242 0.818781
vt 0.559330 0.819040
vt 0.565272 0.820455
vt 0.570821 0.822979
vt 0.575771 0.826533
vt 0.579950 0.830992
vt 0.583192 0.836190
vt 0.585365 0.841924
vt 0.586395 0.847986
vt 0.586207 0.854140
vt 0.584784 0.860149
vt 0.579953 0.871960
vt 0.583762 0.866637
vt 0.575163 0.876450
vt 0.569555 0.879877
vt 0.563390 0.882129
vt 0.556910 0.883120
vt 0.550367 0.882821
vt 0.544019 0.881239
vt 0.538110 0.878452
vt 0.532883 0.874553
vt 0.528535 0.869721
vt 0.525187 0.864158
vt 0.523014 0.858053
vt 0.522030 0.851654
vt 0.522359 0.845192
vt 0.523924 0.838925
vt 0.526675 0.833086
vt 0.530515 0.827907
vt 0.535278 0.823584
vt 0.540779 0.820274
vt 0.546795 0.818046
vt 0.553137 0.817046
vt 0.559558 0.817312
vt 0.565814 0.818800
vt 0.571669 0.821468
vt 0.576902 0.825220
vt 0.581310 0.829926
vt 0.584735 0.835403
vt 0.587034 0.841453
vt 0.588125 0.847847
vt 0.587931 0.854348
vt 0.586429 0.860685
f 1/1/1 2/2/2 3/3/3 4/4/4
f 4/4/4 3/3/3 5/5/5 6/6/6
f 6/6/6 5/5/5 7/7/7 8/8/8
f 8/8/8 7/7/7 9/9/9 10/10/10
f 10/10/10 9/9/9 11/11/11 12/12/12
f 12/12/12 11/11/11 13/13/13 14/14/14
f 14/14/14 13/13/13 15/15/15 16/16/16
f 16/16/16 15/15/15 17/17/17 18/18/18
f 18/19/18 17/20/17 19/21/19 20/22/20
f 20/22/20 19/21/19 21/23/21 22/24/22
f 22/24/22 21/23/21 23/25/23 24/26/24
f 24/26/24 23/25/23 25/27/25 26/28/26
f 26/28/26 25/27/25 27/29/27 28/30/28
f 28/30/28 27/29/27 29/31/29 30/32/30
f 30/32/30 29/31/29 31/33/31 32/34/32
f 32/34/32 31/33/31 33/35/33 34/36/34
f 34/36/34 33/35/33 35/37/35 36/38/36
f 36/38/36 35/37/35 37/39/37 38/40/38
f 38/40/38 37/39/37 39/41/39 40/42/40
f 40/42/40 39/41/39 41/43/41 42/44/42
f 42/44/42 41/43/41 43/45/43 44/46/44
f 44/46/44 43/45/43 45/47/45 46/48/46
f 46/48/46 45/47/45 47/49/47 48/50/48
f 48/50/48 47/49/47 49/51/49 50/52/50
f 50/52/50 49/51/49 51/53/51 52/54/52
f 52/54/52 51/53/51 53/55/53 54/56/54
f 54/56/54 53/55/53 55/57/55 56/58/56
f 56/58/56 55/57/55 57/59/57 58/60/58
f 58/60/58 57/59/57 59/61/59 60/62/60
f 60/62/60 59/61/59 61/63/61 62/64/62
f 62/64/62 61/63/61 63/65/63 64/66/64
f 64/66/64 63/65/63 2/2/2 1/1/1
f 65/67/65 66/68/66 67/69/67 68/70/68
f 68/70/68 67/69/67 69/71/69 70/72/70
f 70/72/70 69/71/69 71/73/71 72/74/72
f 72/74/72 71/73/71 73/75/73 74/76/74
f 74/76/74 73/75/73 75/77/75 76/78/76
f 76/78/76 75/77/75 77/79/77 78/80/78
f 78/80/78 77/79/77 79/81/79 80/82/80
f 80/82/80 79/81/79 81/83/81 82/84/82
f 82/84/82 81/83/81 83/85/83 84/86/84
f 84/86/84 83/85/83 85/87/85 86/88/86
f 86/88/86 85/87/85 87/89/87 88/90/88
f 88/90/88 87/89/87 89/91/89 90/92/90
f 90/92/90 89/91/89 91/93/91 92/94/92
f 92/94/92 91/93/91 93/95/93 94/96/94
f 94/96/94 93/95/93 95/97/95 96/98/96
f 96/98/96 95/97/95 97/99/97 98/100/98
f 98/100/98 97/99/97 99/101/99 100/102/100
f 100/102/100 99/101/99 101/103/101 102/104/102
f 102/104/102 101/103/101 103/105/103 104/106/104
f 104/106/104 103/105/103 105/107/105 106/108/106
f 106/108/106 105/107/105 107/109/107 108/110/108
f 108/110/108 107/109/107 109/111/109 110/112/110
f 110/112/110 109/111/109 111/113/111 112/114/112
f 112/114/112 111/113/111 113/115/113 114/116/114
f 114/116/114 113/115/113 115/117/115 116/118/116
f 116/118/116 115/117/115 117/119/117 118/120/118
f 118/120/118 117/119/117 119/121/119 120/122/120
f 120/122/120 119/121/119 121/123/121 122/124/122
f 122/124/122 121/123/121 123/125/123 124/126/124
f 124/126/124 123/125/123 125/127/125 126/128/126
f 126/128/126 125/127/125 127/129/127 128/130/128
f 66/68/66 65/67/65 128/130/128 127/129/127
f 66/68/66 129/131/129 130/132/130 67/69/67
f 67/69/67 130/132/130 131/133/131 69/71/69
f 69/71/69 131/133/131 132/134/132 71/73/71
f 71/73/71 132/134/132 133/135/133 73/75/73
f 73/75/73 133/135/133 134/136/134 75/77/75
f 75/77/75 134/136/134 135/137/135 77/79/77
f 77/79/77 135/137/135 136/138/136 79/81/79
f 79/81/79 136/138/136 137/139/137 81/83/81
f 81/83/81 137/139/137 138/140/138 83/85/83
f 83/85/83 138/140/138 139/141/139 85/87/85
f 85/87/85 139/141/139 140/142/140 87/89/87
f 87/89/87 140/142/140 141/143/141 89/91/89
f 89/91/89 141/143/141 142/144/142 91/93/91
f 91/93/91 142/144/142 143/145/143 93/95/93
f 93/95/93 143/145/143 144/146/144 95/97/95
f 95/97/95 144/146/144 145/147/145 97/99/97
f 97/99/97 145/147/145 146/148/146 99/101/99
f 99/101/99 146/148/146 147/149/147 101/103/101
f 101/103/101 147/149/147 148/150/148 103/105/103
f 103/105/103 148/150/148 149/151/149 105/107/105
f 105/107/105 149/151/149 150/152/150 107/109/107
f 107/109/107 150/152/150 151/153/151 109/111/109
f 109/111/109 151/153/151 152/154/152 111/113/111
f 111/113/111 152/154/152 153/155/153 113/115/113
f 113/115/113 153/155/153 154/156/154 115/117/115
f 115/117/115 154/156/154 155/157/155 117/119/117
f 117/119/117 155/157/155 156/158/156 119/121/119
f 119/121/119 156/158/156 157/159/157 121/123/121
f 121/123/121 157/159/157 158/160/158 123/125/123
f 123/125/123 158/160/158 159/161/159 125/127/125
f 125/127/125 159/161/159 160/162/160 127/129/127
f 127/129/127 160/162/160 129/131/129 66/68/66
f 129/131/129 161/163/161 130/132/130
f 130/132/130 161/163/161 131/133/131
f 131/133/131 161/163/161 132/134/132
f 132/134/132 161/163/161 133/135/133
f 133/135/133 161/163/161 134/136/134
f 134/136/134 161/163/161 135/137/135
f 135/137/135 161/163/161 136/138/136
f 136/138/136 161/163/161 137/139/137
f 137/139/137 161/163/161 138/140/138
f 138/140/138 161/163/161 139/141/139
f 139/141/139 161/163/161 140/142/140
f 140/142/140 161/163/161 141/143/141
f 141/143/141 161/163/161 142/144/142
f 142/144/142 161/163/161 143/145/143
f 143/145/143 161/163/161 144/146/144
f 144/146/144 161/163/161 145/147/145
f 145/147/145 161/163/161 146/148/146
f 146/148/146 161/163/161 147/149/147
f 147/149/147 161/163/161 148/150/148
f 148/150/148 161/163/161 149/151/149
f 149/151/149 161/163/161 150/152/150
f 150/152/150 161/163/161 151/153/151
f 151/153/151 161/163/161 152/154/152
f 152/154/152 161/163/161 153/155/153
f 153/155/153 161/163/161 154/156/154
f 154/156/154 161/163/161 155/157/155
f 155/157/155 161/163/161 156/158/156
f 156/158/156 161/163/161 157/159/157
f 157/159/157 161/163/161 158/160/158
f 158/160/158 161/163/161 159/161/159
f 159/161/159 161/163/161 160/162/160
f 160/162/160 161/163/161 129/131/129
f 162/164/162 68/70/68 70/72/70 163/165/163
f 163/165/163 70/72/70 72/74/72 164/166/164
f 164/166/164 72/74/72 74/76/74 165/167/165
f 165/167/165 74/76/74 76/78/76 166/168/166
f 166/168/166 76/78/76 78/80/78 167/169/167
f 167/169/167 78/80/78 80/82/80 168/170/168
f 168/170/168 80/82/80 82/84/82 169/171/169
f 169/171/169 82/84/82 84/86/84 170/172/170
f 170/172/170 84/86/84 86/88/86 171/173/171
f 171/173/171 86/88/86 88/90/88 172/174/172
f 172/174/172 88/90/88 90/92/90 173/175/173
f 173/175/173 90/92/90 92/94/92 174/176/174
f 174/176/174 92/94/92 94/96/94 175/177/175
f 175/177/175 94/96/94 96/98/96 176/178/176
f 176/178/176 96/98/96 98/100/98 177/179/177
f 177/179/177 98/100/98 100/102/100 178/180/178
f 178/180/178 100/102/100 102/104/102 179/181/179
f 179/181/179 102/104/102 104/106/104 180/182/180
f 180/182/180 104/106/104 106/108/106 181/183/181
f 181/183/181 106/108/106 108/110/108 182/184/182
f 182/184/182 108/110/108 110/112/110 183/185/183
f 183/185/183 110/112/110 112/114/112 184/186/184
f 184/186/184 112/114/112 114/116/114 185/187/185
f 185/187/185 114/116/114 116/118/116 186/188/186
f 186/188/186 116/118/116 118/120/118 187/189/187
f 187/189/187 118/120/118 120/122/120 188/190/188
f 188/190/188 120/122/120 122/124/122 189/191/189
f 189/191/189 122/124/122 124/126/124 190/192/190
f 190/192/190 124/126/124 126/128/126 191/193/191
f 191/193/191 126/128/126 128/130/128 192/194/192
f 65/67/65 193/195/193 192/194/192 128/130/128
f 193/195/193 65/67/65 68/70/68 162/164/162
f 5/196/5 3/197/3 162/164/162 163/165/163
f 7/198/7 5/196/5 163/165/163 164/166/164
f 9/199/9 7/198/7 164/166/164 165/167/165
f 11/200/11 9/199/9 165/167/165 166/168/166
f 13/201/13 11/200/11 166/168/166 167/169/167
f 15/202/15 13/201/13 167/169/167 168/170/168
f 17/203/17 15/202/15 168/170/168 169/171/169
f 19/204/19 17/203/17 169/171/169 170/172/170
f 21/205/21 19/204/19 170/172/170 171/173/171
f 23/206/23 21/205/21 171/173/171 172/174/172
f 25/207/25 23/206/23 172/174/172 173/175/173
f 27/208/27 25/207/25 173/175/173 174/176/174
f 29/209/29 27/208/27 174/176/174 175/177/175
f 31/210/31 29/209/29 175/177/175 176/178/176
f 33/211/33 31/210/31 176/178/176 177/179/177
f 35/212/35 33/211/33 177/179/177 178/180/178
f 37/213/37 35/212/35 178/180/178 179/181/179
f 39/214/39 37/213/37 179/181/179 180/182/180
f 41/215/41 39/214/39 180/182/180 181/183/181
f 43/216/43 41/215/41 181/183/181 182/184/182
f 45/217/45 43/216/43 182/184/182 183/185/183
f 47/218/47 45/217/45 183/185/183 184/186/184
f 49/219/49 47/218/47 184/186/184 185/187/185
f 51/220/51 49/219/49 185/187/185 186/188/186
f 53/221/53 51/220/51 186/188/186 187/189/187
f 55/222/55 53/221/53 187/189/187 188/190/188
f 57/223/57 55/222/55 188/190/188 189/191/189
f 59/224/59 57/223/57 189/191/189 190/192/190
f 61/225/61 59/224/59 190/192/190 191/193/191
f 63/226/63 61/225/61 191/193/191 192/194/192
f 193/195/193 2/227/2 63/226/63 192/194/192
f 3/197/3 2/227/2 193/195/193 162/164/162
