#
#
#

mtllib LTrigger.mtl


#
# P_Controller_L:LTrigger Mesh
#
g P_Controller_L:LTrigger Mesh


#
# P_Controller_L:LTrigger Mesh_P_Controller_L:LBodySG
#
usemtl P_Controller_L:LTrigger Mesh_P_Controller_L:LBodySG

v -0.014481 -0.035529 0.051692
v -0.013077 -0.037340 0.052858
v -0.013607 -0.037221 0.053117
v -0.014935 -0.035452 0.051979
v 0.008119 -0.034572 0.052406
v 0.005616 -0.026348 0.060993
v 0.005818 -0.037706 0.054207
v -0.009200 -0.041003 0.054519
v -0.011431 -0.039147 0.053776
v -0.008466 -0.038768 0.052695
v 0.005433 -0.037879 0.053388
v 0.002847 -0.040363 0.054355
v 0.002009 -0.038332 0.052634
v -0.011984 -0.038842 0.054513
v -0.009048 -0.026980 0.064027
v -0.011522 -0.026253 0.061885
v 0.000723 -0.027627 0.064998
v 0.003126 -0.040338 0.055240
v 0.003432 -0.027232 0.063291
v -0.006138 -0.027533 0.065513
v -0.009433 -0.041035 0.055399
v -0.006299 -0.042585 0.055839
v -0.004173 -0.027724 0.040472
v -0.012834 -0.026908 0.040789
v -0.004388 -0.025475 0.037553
v 0.001585 -0.032296 0.047408
v 0.006691 -0.033230 0.049620
v -0.003676 -0.032940 0.047172
v -0.010079 -0.028872 0.043039
v -0.012974 -0.035273 0.051153
v -0.009191 -0.032867 0.047627
v -0.003131 -0.040101 0.053002
v 0.001854 -0.027743 0.041021
v -0.015441 -0.030122 0.045911
v 0.000106 -0.042217 0.054922
v -0.003119 -0.027748 0.065978
v -0.002926 -0.043190 0.055931
v -0.006414 -0.042401 0.054943
v -0.002972 -0.043060 0.055073
v -0.013744 -0.025421 0.059336
v -0.011522 -0.026253 0.061885
v -0.015004 -0.024741 0.057429
v -0.016068 -0.033531 0.051430
v -0.015074 -0.035145 0.052404
v -0.016001 -0.024094 0.055608
v -0.017497 -0.030559 0.048496
v -0.001128 -0.027689 0.065804
v 0.000296 -0.042215 0.055756
v 0.008271 -0.029256 0.044833
v 0.006942 -0.027136 0.041383
v 0.007334 -0.025239 0.058764
v 0.009690 -0.031889 0.050135
v 0.008400 -0.024346 0.056338
v 0.010342 -0.030356 0.048352
v 0.009434 -0.023379 0.053728
v 0.010763 -0.028782 0.046510
v 0.010378 -0.022356 0.050804
v 0.010765 -0.027290 0.044490
v 0.010742 -0.021179 0.047439
v 0.009933 -0.020205 0.044386
v 0.010742 -0.021179 0.047439
v 0.008006 -0.025151 0.039894
v 0.007876 -0.019216 0.041737
v 0.004988 -0.024196 0.037775
v 0.004524 -0.018437 0.039524
v 0.000695 -0.023638 0.036318
v 0.000624 -0.017942 0.038142
v -0.004571 -0.023465 0.035916
v -0.004710 -0.017760 0.037579
v -0.009567 -0.023775 0.036723
v -0.009603 -0.018125 0.038661
v -0.014150 -0.024804 0.039010
v -0.013978 -0.018895 0.040828
v -0.015693 -0.019438 0.042323
v -0.017008 -0.026070 0.042032
v -0.017027 -0.020063 0.044152
v -0.017027 -0.020063 0.044152
v -0.017961 -0.027835 0.044966
v -0.017992 -0.021118 0.047119
v -0.017419 -0.022792 0.052034
v 0.002123 -0.025828 0.038468
v 0.007697 -0.034757 0.051505
v 0.009036 -0.032445 0.049550
v 0.009624 -0.031177 0.048061
v 0.010088 -0.029287 0.045923
v 0.010086 -0.028053 0.044263
v 0.009074 -0.026750 0.041796
v 0.007681 -0.026012 0.040008
v 0.004393 -0.025009 0.037801
v 0.000803 -0.024543 0.036587
v -0.004514 -0.024361 0.036141
v -0.009748 -0.024704 0.037075
v -0.013733 -0.025649 0.039135
v -0.014992 -0.026230 0.040328
v -0.016216 -0.026715 0.041701
v -0.017265 -0.028660 0.044849
v -0.016873 -0.030920 0.047755
v -0.015337 -0.034185 0.050907
v -0.015656 -0.025491 0.040419
v -0.013077 -0.037340 0.052858
v -0.013855 -0.036827 0.053481
v -0.002940 -0.043349 0.055483
v -0.006394 -0.042710 0.055371
v -0.009397 -0.041214 0.054932
v -0.011823 -0.039135 0.054091
v 0.005755 -0.037942 0.053754
v 0.003079 -0.040536 0.054768
v 0.000255 -0.042428 0.055317
v -0.015874 -0.033951 0.051087
v -0.017376 -0.030871 0.048050
v 0.008069 -0.034771 0.051887
v 0.009545 -0.032236 0.049743
v 0.010174 -0.030782 0.048064
v 0.010623 -0.029062 0.046067
v 0.010622 -0.027678 0.044199
v 0.009638 -0.026398 0.041737
v 0.007948 -0.025559 0.039711
v 0.004808 -0.024567 0.037519
v 0.000775 -0.024047 0.036164
v -0.004556 -0.023867 0.035733
v -0.009740 -0.024197 0.036616
v -0.014087 -0.025199 0.038821
v -0.015490 -0.025842 0.040140
v -0.016796 -0.026427 0.041681
v -0.017810 -0.028347 0.044787
v -0.017810 -0.028347 0.044787
v 0.009832 -0.026066 0.042098
v 0.005616 -0.026348 0.060993
v -0.017810 -0.028347 0.044787
vn -0.300955 -0.647325 -0.700283
vn -0.274745 -0.637366 -0.719916
vn -0.679507 -0.704152 -0.206013
vn -0.718317 -0.649423 -0.249540
vn 0.851349 -0.276307 0.445935
vn 0.777346 -0.309500 0.547671
vn 0.725580 -0.384648 0.570596
vn -0.244256 -0.640501 -0.728078
vn -0.279570 -0.629211 -0.725213
vn -0.157926 -0.635340 -0.755912
vn 0.305432 -0.654010 -0.692086
vn 0.298330 -0.623648 -0.722539
vn 0.176077 -0.616611 -0.767325
vn -0.648567 -0.400711 0.647141
vn -0.555294 -0.417421 0.719311
vn -0.714369 -0.333868 0.614987
vn 0.442839 -0.483515 0.755054
vn 0.545053 -0.479459 0.687776
vn 0.615240 -0.412840 0.671598
vn -0.308131 -0.503336 0.807284
vn -0.464675 -0.491531 0.736529
vn -0.231822 -0.554833 0.799011
vn -0.023864 -0.797042 -0.603453
vn -0.117903 -0.810638 -0.573555
vn -0.027172 -0.796468 -0.604070
vn 0.130750 -0.733424 -0.667078
vn 0.189056 -0.707613 -0.680839
vn 0.021089 -0.710130 -0.703755
vn -0.113406 -0.787728 -0.605494
vn -0.214358 -0.686741 -0.694578
vn -0.124139 -0.709243 -0.693948
vn 0.025835 -0.612744 -0.789859
vn 0.088232 -0.808793 -0.581438
vn -0.193157 -0.762339 -0.617681
vn 0.174343 -0.611752 -0.771598
vn -0.061835 -0.540992 0.838751
vn 0.032990 -0.578696 0.814876
vn -0.127441 -0.625722 -0.769565
vn -0.000476 -0.635509 -0.772093
vn -0.792807 -0.281899 0.540360
vn -0.714379 -0.333860 0.614980
vn -0.860754 -0.217058 0.460422
vn -0.909442 -0.205604 0.361445
vn -0.834069 -0.271728 0.480097
vn -0.919329 -0.154291 0.361977
vn -0.968775 -0.125269 0.213969
vn 0.210912 -0.532772 0.819555
vn 0.319268 -0.547634 0.773412
vn 0.189762 -0.798511 -0.571288
vn 0.158557 -0.807106 -0.568717
vn 0.864409 -0.225674 0.449297
vn 0.927947 -0.171058 0.331138
vn 0.930981 -0.128407 0.341739
vn 0.970823 -0.088117 0.223021
vn 0.947503 -0.117993 0.297181
vn 0.993178 -0.039906 0.109571
vn 0.977951 -0.082316 0.191928
vn 0.992137 0.036229 -0.119798
vn 0.998616 0.025809 -0.045832
vn 0.902436 0.153774 -0.402447
vn 0.998617 0.025798 -0.045811
vn 0.705919 0.225523 -0.671430
vn 0.696026 0.236045 -0.678108
vn 0.478244 0.285257 -0.830609
vn 0.454786 0.289601 -0.842200
vn 0.203999 0.315735 -0.926658
vn 0.209865 0.293228 -0.932724
vn -0.034128 0.297594 -0.954082
vn -0.043755 0.291720 -0.955503
vn -0.338634 0.298871 -0.892190
vn -0.354115 0.298103 -0.886418
vn -0.560497 0.268213 -0.783521
vn -0.537867 0.257453 -0.802756
vn -0.750444 0.202282 -0.629218
vn -0.916073 0.096050 -0.389338
vn -0.915353 0.127321 -0.381993
vn -0.915362 0.127312 -0.381975
vn -0.998347 -0.019711 -0.053998
vn -0.999109 0.008875 -0.041271
vn -0.974785 -0.084380 0.206578
vn 0.079095 -0.802077 -0.591960
vn 0.366786 -0.677096 -0.637973
vn 0.344477 -0.747527 -0.567925
vn 0.293166 -0.759303 -0.580958
vn 0.346614 -0.760129 -0.549602
vn 0.375121 -0.748252 -0.547177
vn 0.323514 -0.755677 -0.569466
vn 0.240295 -0.753616 -0.611818
vn 0.158986 -0.752040 -0.639656
vn 0.062349 -0.751507 -0.656772
vn -0.013209 -0.732003 -0.681174
vn -0.095988 -0.787936 -0.608229
vn -0.161885 -0.765113 -0.623213
vn -0.226764 -0.806018 -0.546730
vn -0.246360 -0.789943 -0.561512
vn -0.287394 -0.762500 -0.579653
vn -0.366456 -0.740321 -0.563591
vn -0.324746 -0.731316 -0.599764
vn -0.750909 0.194952 -0.630975
vn -0.167520 -0.622226 -0.764704
vn -0.750969 -0.326488 0.573978
vn 0.039529 -0.992632 -0.114537
vn -0.303135 -0.944342 -0.127778
vn -0.522630 -0.844890 -0.114100
vn -0.641322 -0.752317 -0.150749
vn 0.702850 -0.692565 -0.162346
vn 0.600836 -0.788718 -0.130076
vn 0.405538 -0.908871 -0.097429
vn -0.717454 -0.637427 -0.280974
vn -0.761577 -0.578182 -0.292756
vn 0.751793 -0.630425 -0.193316
vn 0.777497 -0.599171 -0.191029
vn 0.751441 -0.590388 -0.294582
vn 0.762559 -0.539813 -0.356519
vn 0.742263 -0.480799 -0.466774
vn 0.685398 -0.386929 -0.616860
vn 0.539937 -0.326493 -0.775803
vn 0.376096 -0.235335 -0.896197
vn 0.166410 -0.231135 -0.958585
vn -0.036542 -0.259001 -0.965185
vn -0.275257 -0.260149 -0.925503
vn -0.444751 -0.259014 -0.857385
vn -0.578085 -0.385739 -0.719043
vn -0.656816 -0.457466 -0.599432
vn -0.639208 -0.543174 -0.544403
vn -0.379543 -0.754928 -0.534819
vn 0.881701 0.140864 -0.450289
vn 0.777327 -0.309511 0.547691
vn -0.962597 -0.260637 -0.073996
vt 0.774777 0.107262
vt 0.781611 0.096939
vt 0.778971 0.096194
vt 0.772466 0.106432
vt 0.885004 0.103655
vt 0.934598 0.075533
vt 0.871624 0.085917
vt 0.801545 0.085358
vt 0.789834 0.088429
vt 0.802984 0.097991
vt 0.868657 0.091088
vt 0.854147 0.087064
vt 0.853290 0.098715
vt 0.785984 0.083315
vt 0.798799 0.005249
vt 0.783026 0.009119
vt 0.852525 0.006378
vt 0.855536 0.082871
vt 0.868095 0.012547
vt 0.815631 0.002344
vt 0.800383 0.081210
vt 0.814679 0.080526
vt 0.824911 0.171445
vt 0.783367 0.173095
vt 0.824223 0.188213
vt 0.853068 0.133329
vt 0.877439 0.120113
vt 0.826949 0.133895
vt 0.796042 0.159375
vt 0.781507 0.110577
vt 0.799612 0.131878
vt 0.827896 0.096956
vt 0.853553 0.168831
vt 0.769892 0.145156
vt 0.841118 0.085284
vt 0.831795 0.001953
vt 0.828557 0.081299
vt 0.814070 0.084087
vt 0.828241 0.084714
vt 0.717014 0.089249
vt 0.717976 0.072520
vt 0.716460 0.101305
vt 0.764773 0.114051
vt 0.770247 0.105397
vt 0.716460 0.112617
vt 0.757705 0.133839
vt 0.842383 0.003010
vt 0.841971 0.081827
vt 0.885384 0.150018
vt 0.877870 0.168866
vt 0.936779 0.090268
vt 0.893572 0.120742
vt 0.937023 0.104406
vt 0.896980 0.132315
vt 0.936849 0.119680
vt 0.899624 0.144334
vt 0.935723 0.136396
vt 0.900536 0.157556
vt 0.934034 0.154225
vt 0.912500 0.193664
vt 0.924309 0.182078
vt 0.883024 0.181272
vt 0.897495 0.206581
vt 0.868308 0.191773
vt 0.876614 0.218670
vt 0.848214 0.199042
vt 0.852979 0.226407
vt 0.823388 0.201534
vt 0.821340 0.229016
vt 0.799766 0.197700
vt 0.792223 0.224181
vt 0.777373 0.186939
vt 0.766602 0.212940
vt 0.755831 0.206379
vt 0.760366 0.172118
vt 0.746050 0.199950
vt 0.728321 0.178808
vt 0.756119 0.155051
vt 0.723310 0.162255
vt 0.718193 0.134326
vt 0.854445 0.183381
vt 0.881258 0.107391
vt 0.888592 0.122007
vt 0.891672 0.131890
vt 0.894468 0.145492
vt 0.894782 0.155851
vt 0.888071 0.168833
vt 0.880028 0.177312
vt 0.864734 0.188040
vt 0.848259 0.193952
vt 0.823699 0.196533
vt 0.799324 0.192415
vt 0.780051 0.182814
vt 0.773339 0.177147
vt 0.766392 0.170841
vt 0.761117 0.153273
vt 0.762626 0.135833
vt 0.770212 0.114414
vt 0.768998 0.179947
vt 0.776369 0.095600
vt 0.828387 0.082975
vt 0.814471 0.082281
vt 0.801049 0.083266
vt 0.787968 0.085890
vt 0.870097 0.088568
vt 0.854743 0.084963
vt 0.841409 0.083570
vt 0.767393 0.114430
vt 0.759959 0.135258
vt 0.883198 0.105685
vt 0.891253 0.121732
vt 0.894533 0.132572
vt 0.897320 0.145493
vt 0.897857 0.157300
vt 0.890642 0.170292
vt 0.881651 0.179806
vt 0.866641 0.190371
vt 0.848315 0.196957
vt 0.823529 0.199506
vt 0.799486 0.195552
vt 0.778569 0.185335
vt 0.771034 0.179098
vt 0.763165 0.172107
vt 0.758387 0.154754
vt 0.892965 0.170594
vt 0.883068 0.018127
f 1/1/1 2/2/2 3/3/3
f 3/3/3 4/4/4 1/1/1
f 5/5/5 6/6/6 7/7/7
f 8/8/8 9/9/9 10/10/10
f 11/11/11 12/12/12 13/13/13
f 14/14/14 15/15/15 16/16/16
f 17/17/17 18/18/18 19/19/19
f 20/20/20 21/21/21 22/22/22
f 23/23/23 24/24/24 25/25/25
f 13/13/13 26/26/26 27/27/27
f 28/28/28 29/29/29 23/23/23
f 10/10/10 30/30/30 31/31/31
f 13/13/13 28/28/28 26/26/26
f 32/32/32 31/31/31 28/28/28
f 26/26/26 23/23/23 33/33/33
f 34/34/34 31/31/31 30/30/30
f 13/13/13 12/12/12 35/35/35
f 36/36/36 22/22/22 37/37/37
f 38/38/38 10/10/10 39/39/39
f 40/40/40 14/14/14 41/41/41
f 42/42/42 43/43/43 44/44/44
f 45/45/45 46/46/46 43/43/43
f 47/47/47 48/48/48 17/17/17
f 11/11/11 13/13/13 27/27/27
f 49/49/49 26/26/26 50/50/50
f 51/51/51 52/52/52 53/53/53
f 53/53/53 54/54/54 55/55/55
f 55/55/55 56/56/56 57/57/57
f 57/57/57 58/58/58 59/59/59
f 58/58/58 60/60/60 61/61/61
f 60/60/60 62/62/62 63/63/63
f 63/63/63 64/64/64 65/65/65
f 65/65/65 66/66/66 67/67/67
f 67/67/67 68/68/68 69/69/69
f 69/69/69 70/70/70 71/71/71
f 71/71/71 72/72/72 73/73/73
f 74/74/74 75/75/75 76/76/76
f 77/77/77 78/78/78 79/79/79
f 79/79/79 46/46/46 80/80/80
f 38/38/38 8/8/8 10/10/10
f 33/33/33 25/25/25 81/81/81
f 82/82/82 27/27/27 83/83/83
f 83/83/83 27/27/27 84/84/84
f 85/85/85 27/27/27 49/49/49
f 85/85/85 49/49/49 86/86/86
f 87/87/87 49/49/49 50/50/50
f 87/87/87 50/50/50 88/88/88
f 89/89/89 50/50/50 81/81/81
f 89/89/89 81/81/81 90/90/90
f 91/91/91 81/81/81 25/25/25
f 92/92/92 25/25/25 24/24/24
f 92/92/92 24/24/24 93/93/93
f 94/94/94 24/24/24 95/95/95
f 96/96/96 24/24/24 34/34/34
f 96/96/96 34/34/34 97/97/97
f 98/98/98 34/34/34 30/30/30
f 98/98/98 30/30/30 1/1/1
f 9/9/9 2/2/2 10/10/10
f 39/39/39 32/32/32 35/35/35
f 82/82/82 11/11/11 27/27/27
f 2/2/2 30/30/30 10/10/10
f 27/27/27 26/26/26 49/49/49
f 50/50/50 33/33/33 81/81/81
f 50/50/50 26/26/26 33/33/33
f 99/99/99 73/73/73 72/72/72
f 37/37/37 47/47/47 36/36/36
f 13/13/13 35/35/35 32/32/32
f 93/93/93 24/24/24 94/94/94
f 29/29/29 34/34/34 24/24/24
f 51/51/51 6/6/6 5/5/5
f 100/2/100 1/1/1 30/30/30
f 101/100/101 42/42/42 44/44/44
f 32/32/32 39/39/39 10/10/10
f 31/31/31 34/34/34 29/29/29
f 102/101/102 37/37/37 22/22/22
f 22/22/22 103/102/103 102/101/102
f 40/40/40 42/42/42 101/100/101
f 104/103/104 21/21/21 14/14/14
f 14/14/14 105/104/105 104/103/104
f 106/105/106 7/7/7 18/18/18
f 18/18/18 107/106/107 106/105/106
f 108/107/108 35/35/35 12/12/12
f 12/12/12 107/106/107 108/107/108
f 104/103/104 8/8/8 38/38/38
f 38/38/38 103/102/103 104/103/104
f 91/91/91 25/25/25 92/92/92
f 3/3/3 2/2/2 9/9/9
f 9/9/9 105/104/105 3/3/3
f 109/108/109 98/98/98 1/1/1
f 1/1/1 4/4/4 109/108/109
f 110/109/110 97/97/97 98/98/98
f 98/98/98 109/108/109 110/109/110
f 102/101/102 39/39/39 35/35/35
f 35/35/35 108/107/108 102/101/102
f 106/105/106 11/11/11 82/82/82
f 82/82/82 111/110/111 106/105/106
f 111/110/111 82/82/82 83/83/83
f 83/83/83 112/111/112 111/110/111
f 112/111/112 83/83/83 84/84/84
f 84/84/84 113/112/113 112/111/112
f 113/112/113 84/84/84 85/85/85
f 85/85/85 114/113/114 113/112/113
f 114/113/114 85/85/85 86/86/86
f 86/86/86 115/114/115 114/113/114
f 115/114/115 86/86/86 87/87/87
f 87/87/87 116/115/116 115/114/115
f 116/115/116 87/87/87 88/88/88
f 88/88/88 117/116/117 116/115/116
f 117/116/117 88/88/88 89/89/89
f 89/89/89 118/117/118 117/116/117
f 118/117/118 89/89/89 90/90/90
f 90/90/90 119/118/119 118/117/118
f 119/118/119 90/90/90 91/91/91
f 91/91/91 120/119/120 119/118/119
f 120/119/120 91/91/91 92/92/92
f 92/92/92 121/120/121 120/119/120
f 121/120/121 92/92/92 93/93/93
f 93/93/93 122/121/122 121/120/121
f 123/122/123 94/94/94 95/95/95
f 95/95/95 124/123/124 123/122/123
f 124/123/124 95/95/95 96/96/96
f 96/96/96 125/124/125 124/123/124
f 126/124/126 96/96/96 97/97/97
f 97/97/97 110/109/110 126/124/126
f 122/121/122 93/93/93 94/94/94
f 94/94/94 123/122/123 122/121/122
f 95/95/95 24/24/24 96/96/96
f 48/48/48 47/47/47 37/37/37
f 21/21/21 15/15/15 14/14/14
f 48/48/48 18/18/18 17/17/17
f 15/15/15 21/21/21 20/20/20
f 29/29/29 24/24/24 23/23/23
f 31/31/31 29/29/29 28/28/28
f 32/32/32 28/28/28 13/13/13
f 10/10/10 31/31/31 32/32/32
f 28/28/28 23/23/23 26/26/26
f 20/20/20 22/22/22 36/36/36
f 101/100/101 14/14/14 40/40/40
f 45/45/45 43/43/43 42/42/42
f 80/80/80 46/46/46 45/45/45
f 7/7/7 19/19/19 18/18/18
f 97/97/97 34/34/34 98/98/98
f 74/74/74 73/73/73 99/99/99
f 5/5/5 52/52/52 51/51/51
f 52/52/52 54/54/54 53/53/53
f 54/54/54 56/56/56 55/55/55
f 56/56/56 58/58/58 57/57/57
f 127/125/127 60/60/60 58/58/58
f 127/125/127 62/62/62 60/60/60
f 62/62/62 64/64/64 63/63/63
f 64/64/64 66/66/66 65/65/65
f 66/66/66 68/68/68 67/67/67
f 68/68/68 70/70/70 69/69/69
f 70/70/70 72/72/72 71/71/71
f 99/99/99 75/75/75 74/74/74
f 75/75/75 78/78/78 77/77/77
f 78/78/78 46/46/46 79/79/79
f 23/23/23 25/25/25 33/33/33
f 84/84/84 27/27/27 85/85/85
f 86/86/86 49/49/49 87/87/87
f 88/88/88 50/50/50 89/89/89
f 90/90/90 81/81/81 91/91/91
f 110/109/110 109/108/109 43/43/43
f 43/43/43 46/46/46 110/109/110
f 109/108/109 4/4/4 44/44/44
f 44/44/44 43/43/43 109/108/109
f 128/126/128 19/19/19 7/7/7
f 4/4/4 3/3/3 101/100/101
f 101/100/101 44/44/44 4/4/4
f 3/3/3 105/104/105 14/14/14
f 14/14/14 101/100/101 3/3/3
f 104/103/104 105/104/105 9/9/9
f 9/9/9 8/8/8 104/103/104
f 104/103/104 103/102/103 22/22/22
f 22/22/22 21/21/21 104/103/104
f 102/101/102 103/102/103 38/38/38
f 38/38/38 39/39/39 102/101/102
f 102/101/102 108/107/108 48/48/48
f 48/48/48 37/37/37 102/101/102
f 108/107/108 107/106/107 18/18/18
f 18/18/18 48/48/48 108/107/108
f 106/105/106 107/106/107 12/12/12
f 12/12/12 11/11/11 106/105/106
f 106/105/106 111/110/111 5/5/5
f 5/5/5 7/7/7 106/105/106
f 111/110/111 112/111/112 52/52/52
f 52/52/52 5/5/5 111/110/111
f 112/111/112 113/112/113 54/54/54
f 54/54/54 52/52/52 112/111/112
f 113/112/113 114/113/114 56/56/56
f 56/56/56 54/54/54 113/112/113
f 114/113/114 115/114/115 58/58/58
f 58/58/58 56/56/56 114/113/114
f 115/114/115 116/115/116 127/125/127
f 127/125/127 58/58/58 115/114/115
f 116/115/116 117/116/117 62/62/62
f 62/62/62 127/125/127 116/115/116
f 117/116/117 118/117/118 64/64/64
f 64/64/64 62/62/62 117/116/117
f 118/117/118 119/118/119 66/66/66
f 66/66/66 64/64/64 118/117/118
f 119/118/119 120/119/120 68/68/68
f 68/68/68 66/66/66 119/118/119
f 120/119/120 121/120/121 70/70/70
f 70/70/70 68/68/68 120/119/120
f 121/120/121 122/121/122 72/72/72
f 72/72/72 70/70/70 121/120/121
f 122/121/122 123/122/123 99/99/99
f 99/99/99 72/72/72 122/121/122
f 123/122/123 124/123/124 75/75/75
f 75/75/75 99/99/99 123/122/123
f 124/123/124 125/124/125 78/78/78
f 78/78/78 75/75/75 124/123/124
f 129/124/129 110/109/110 46/46/46
f 46/46/46 78/78/78 129/124/129
