# OBJ written from F:\vr controller models\controllers 3\oculus_quest_pro_controller_left\obj\oculus_quest_pro_controller_left_button_menu.obj
# Units	meters

o oculus_quest_pro_controller_left_button_menu
v -0.00942396 0.0071042 0.0562055
v -0.00902431 0.00723737 0.0564062
v -0.00986259 0.0070136 0.0560746
v -0.0103239 0.00696991 0.05602
v -0.01079 0.00697389 0.0560422
v -0.0112428 0.00702632 0.056142
v -0.0116654 0.00712428 0.056314
v -0.0120407 0.00726486 0.0565529
v -0.0123555 0.00744188 0.0568484
v -0.0125962 0.0076492 0.0571902
v -0.0127552 0.00787834 0.0575643
v -0.0128246 0.00812084 0.0579569
v -0.0128036 0.00836721 0.0583526
v -0.0126913 0.00860797 0.0587362
v -0.0124935 0.00883406 0.0590933
v -0.0122164 0.00903643 0.0594095
v -0.011872 0.00920782 0.0596736
v -0.0114723 0.00934099 0.0598743
v -0.0110337 0.00943159 0.0600052
v -0.0105724 0.00947528 0.0600599
v -0.0101063 0.0094713 0.0600376
v -0.00965348 0.00941887 0.0599379
v -0.00923091 0.00932091 0.0597659
v -0.00885557 0.00918033 0.059527
v -0.00854084 0.00900331 0.0592314
v -0.00830012 0.00879599 0.0588896
v -0.00814115 0.00856685 0.0585155
v -0.00807169 0.00832435 0.058123
v -0.00809267 0.00807798 0.0577272
v -0.00820505 0.00783722 0.0573436
v -0.0084028 0.00761113 0.0569866
v -0.0086799 0.00740877 0.0566703
v -0.00950983 0.00637814 0.0548235
v -0.00880543 0.00652364 0.0550337
v -0.00816363 0.0067375 0.055356
v -0.00851533 0.00630566 0.0544474
v -0.00775949 0.00655751 0.054827
v -0.00934489 0.00613431 0.0541999
v -0.0109992 0.00631437 0.0547714
v -0.0102507 0.00630798 0.0547357
v -0.0102174 0.00605167 0.0540965
v -0.0110989 0.0060592 0.0541386
v -0.012405 0.00655589 0.0552078
v -0.0117264 0.00639857 0.0549316
v -0.0119553 0.00615836 0.0543272
v -0.0127544 0.00634363 0.0546525
v -0.0135132 0.00706593 0.0560662
v -0.0130078 0.00678164 0.0555915
v -0.0134643 0.00660949 0.0551044
v -0.0140595 0.00694429 0.0556633
v -0.0141551 0.00776685 0.0572158
v -0.0138998 0.00739886 0.056615
v -0.0145148 0.00733638 0.0563097
v -0.0148155 0.00776974 0.0570173
v -0.0142329 0.00855192 0.0584818
v -0.0142666 0.00815627 0.0578463
v -0.0149468 0.00822837 0.0577597
v -0.0149071 0.00869432 0.0585081
v -0.0137349 0.00930165 0.0596712
v -0.0140524 0.00893856 0.0590978
v -0.0146946 0.00914965 0.0592336
v -0.0143206 0.00957725 0.059909
v -0.0127368 0.00990188 0.0606032
v -0.0132899 0.00962664 0.0601791
v -0.0137965 0.00995998 0.060507
v -0.0131452 0.0102841 0.0610065
v -0.0113906 0.0102612 0.0611357
v -0.012095 0.0101157 0.0609255
v -0.0123893 0.010536 0.0613861
v -0.0115598 0.0107073 0.0616336
v -0.0099012 0.010325 0.0611877
v -0.0106497 0.0103314 0.0612235
v -0.0106873 0.01079 0.061737
v -0.00980579 0.0107824 0.0616949
v -0.00849541 0.0100835 0.0607514
v -0.00917402 0.0102408 0.0610276
v -0.0089494 0.0106833 0.0615063
v -0.00815022 0.010498 0.061181
v -0.00738722 0.00957345 0.059893
v -0.00789264 0.00985774 0.0603676
v -0.00744036 0.0102321 0.0607291
v -0.00684514 0.00989735 0.0601701
v -0.00674534 0.00887254 0.0587434
v -0.00700063 0.00924052 0.0593442
v -0.00638986 0.00950526 0.0595238
v -0.00608921 0.00907189 0.0588162
v -0.00666749 0.00808746 0.0574774
v -0.00663379 0.00848311 0.0581129
v -0.00595784 0.00861327 0.0580738
v -0.00599753 0.00814732 0.0573254
v -0.00716553 0.00733773 0.0562879
v -0.00684796 0.00770082 0.0568614
v -0.00621006 0.00769199 0.0565999
v -0.00658406 0.00726439 0.0559245
v -0.00761054 0.00701274 0.0557801
v -0.00710813 0.00688166 0.0553265
v -0.0070876 0.00590899 0.0559309
v -0.00656353 0.00629172 0.056529
v -0.00773896 0.00558485 0.0554315
v -0.00618953 0.00671932 0.0572044
v -0.005977 0.00717466 0.0579298
v -0.00593731 0.0076406 0.0586783
v -0.00606868 0.00809923 0.0594207
v -0.00636933 0.00853259 0.0601282
v -0.00682461 0.00892468 0.0607746
v -0.00741983 0.00925948 0.0613336
v -0.00812969 0.00952534 0.0617855
v -0.00892888 0.00971061 0.0621107
v -0.00978526 0.00980977 0.0622994
v -0.0106667 0.0098173 0.0623414
v -0.0115393 0.00973466 0.0622381
v -0.0123688 0.00956331 0.0619906
v -0.0131247 0.00931146 0.061611
v -0.013776 0.00898731 0.0611115
v -0.0143001 0.00860458 0.0605134
v -0.0146741 0.00817698 0.0598381
v -0.0148866 0.00772165 0.0591126
v -0.0149263 0.0072557 0.0583642
v -0.0147949 0.00679708 0.0576217
v -0.0144943 0.00636372 0.0569142
v -0.014039 0.00597163 0.0562678
v -0.0134438 0.00563683 0.0557089
v -0.0127339 0.00537097 0.055257
v -0.0119347 0.0051857 0.0549317
v -0.0110784 0.00508654 0.0547431
v -0.0101969 0.005079 0.054701
v -0.00932436 0.00516164 0.0548043
v -0.0084948 0.00533299 0.0550519
v -0.0104479 0.00821014 0.0580477
vn -0.0556887 0.865505 -0.497795
vn -0.0483185 0.869159 -0.492166
vn -0.0179237 0.849212 -0.527748
vn -0.0615937 0.861176 -0.504562
vn -0.0658371 0.856348 -0.512185
vn -0.0682192 0.851202 -0.520386
vn -0.068686 0.845936 -0.528843
vn -0.0671839 0.840759 -0.537226
vn -0.0638048 0.835859 -0.545224
vn -0.0586459 0.831435 -0.552518
vn -0.0519358 0.827646 -0.558843
vn -0.0439034 0.82465 -0.563938
vn -0.034884 0.822547 -0.567626
vn -0.0252036 0.821437 -0.569742
vn -0.015245 0.821342 -0.570233
vn -0.00539061 0.822285 -0.56905
vn 0.0039883 0.824212 -0.566268
vn 0.0125164 0.827065 -0.561967
vn 0.0198868 0.830719 -0.556336
vn 0.0257937 0.835051 -0.549568
vn 0.0300366 0.839877 -0.541945
vn 0.0324186 0.845022 -0.533747
vn 0.0328861 0.850287 -0.525292
vn 0.0313836 0.855467 -0.516905
vn 0.0280042 0.860367 -0.508905
vn 0.0228444 0.864792 -0.501611
vn 0.0161354 0.868579 -0.495288
vn 0.00810097 0.871576 -0.490194
vn -0.000918634 0.873678 -0.486504
vn -0.0105961 0.874788 -0.48439
vn -0.0205549 0.874883 -0.483898
vn -0.030408 0.87394 -0.485081
vn -0.0397877 0.872013 -0.487863
vn -0.0462571 0.90226 -0.428703
vn -0.0238415 0.904404 -0.42601
vn 0.0748806 0.881448 -0.466306
vn 0.0866176 0.871383 -0.482897
vn 0.0815898 0.813797 -0.575394
vn 0.0681545 0.803945 -0.590785
vn -0.0344161 0.78283 -0.621283
vn -0.0564356 0.785354 -0.616469
vn -0.12991 0.826781 -0.547317
vn -0.133329 0.838561 -0.528242
vn -0.245979 0.507866 0.825571
vn -0.430317 0.469894 0.770732
vn 0.801209 0.327956 0.500509
vn 0.669127 0.402397 0.624777
vn 0.942444 -0.161915 -0.292547
vn 0.859198 -0.256859 -0.442496
vn 0.00714453 0.927036 -0.374905
vn 0.0400128 0.92326 -0.382087
vn -0.00119027 0.90419 -0.427129
vn 0.0208271 0.901662 -0.43194
vn 0.154797 0.843835 -0.513791
vn 0.0977227 0.848455 -0.520168
vn 0.149696 0.861426 -0.48532
vn 0.0943042 0.86024 -0.501093
vn 0.0856272 0.764988 -0.638326
vn 0.0566653 0.755292 -0.652934
vn 0.0513865 0.795634 -0.603594
vn 0.0319857 0.78914 -0.61338
vn -0.105954 0.756782 -0.645023
vn -0.133224 0.766948 -0.627727
vn -0.0769547 0.790138 -0.608079
vn -0.0952232 0.79695 -0.596493
vn -0.188524 0.846944 -0.497136
vn -0.180432 0.864414 -0.46929
vn -0.132267 0.850538 -0.50901
vn -0.126847 0.862242 -0.490355
vn -0.989472 0.0607473 0.131355
vn -0.942444 0.161915 0.292547
vn -0.511331 -0.461372 -0.725036
vn -0.669126 -0.402397 -0.624778
vn 0.598116 -0.413866 -0.686274
vn 0.430314 -0.469893 -0.770733
vn 0.0706451 0.916126 -0.394617
vn 0.0413463 0.896882 -0.440333
vn 0.153208 0.825965 -0.542503
vn 0.0966588 0.836482 -0.539402
vn 0.0248231 0.748753 -0.662384
vn 0.0106526 0.78476 -0.619709
vn -0.156012 0.77982 -0.606252
vn -0.110488 0.805572 -0.582105
vn -0.166025 0.88081 -0.443407
vn -0.117196 0.873224 -0.473016
vn -0.859197 0.25686 0.442497
vn -0.801208 -0.327956 -0.500509
vn 0.245978 -0.507864 -0.825572
vn -0.067592 0.897876 -0.435029
vn 0.0596168 0.890066 -0.451917
vn 0.0912397 0.824775 -0.558052
vn -0.0117639 0.782612 -0.622399
vn -0.122225 0.815634 -0.56551
vn -0.0869948 0.891386 -0.444817
vn -0.103762 0.883071 -0.457624
vn 0.333886 0.502617 0.797431
vn 0.143607 0.524546 0.839183
vn 0.969109 0.144613 0.199785
vn 0.998476 0.0427545 0.0348863
vn -0.0919777 0.917608 -0.386699
vn -0.0601313 0.924154 -0.377258
vn 0.0979144 0.90595 -0.411908
vn 0.120701 0.893087 -0.433391
vn 0.145118 0.808484 -0.570346
vn 0.130715 0.792099 -0.596232
vn -0.0424528 0.745875 -0.664732
vn -0.00863807 0.745546 -0.666398
vn -0.185005 0.811481 -0.554321
vn -0.173531 0.794839 -0.581479
vn -0.145971 0.895507 -0.420428
vn -0.120941 0.907922 -0.401311
vn -0.998476 -0.042755 -0.034885
vn -0.333884 -0.502619 -0.797431
vn -0.0266671 0.927353 -0.373237
vn 0.138221 0.878059 -0.458157
vn 0.110661 0.777394 -0.619203
vn -0.0753231 0.749641 -0.657545
vn -0.19011 0.829065 -0.525842
vn -0.598119 0.413864 0.686273
vn -0.742934 0.341932 0.57544
vn -0.9025 -0.240914 -0.357007
vn -0.969109 -0.144614 -0.199785
vn 0.0521877 -0.526319 -0.848684
vn -0.143606 -0.52455 -0.839181
vn 0.511332 0.461373 0.725034
vn 0.989473 -0.0607475 -0.131354
vn -0.0521902 0.526319 0.848684
vn 0.9025 0.240914 0.357006
vn 0.742933 -0.341933 -0.575441
vt 0.769429 0.716202
vt 0.769429 0.721163
vt 0.744244 0.718655
vt 0.768471 0.711334
vt 0.766572 0.706751
vt 0.763825 0.70262
vt 0.760317 0.699112
vt 0.756198 0.696347
vt 0.751615 0.694448
vt 0.746752 0.69347
vt 0.74179 0.693469
vt 0.736923 0.694426
vt 0.73234 0.696325
vt 0.728209 0.699072
vt 0.724701 0.702579
vt 0.721936 0.706699
vt 0.720037 0.711282
vt 0.719058 0.716145
vt 0.719058 0.721107
vt 0.720015 0.725974
vt 0.721913 0.730558
vt 0.724661 0.734689
vt 0.728168 0.738198
vt 0.732287 0.740963
vt 0.736871 0.742862
vt 0.741735 0.743841
vt 0.746696 0.743841
vt 0.751564 0.742883
vt 0.756148 0.740985
vt 0.760279 0.738238
vt 0.763787 0.73473
vt 0.766552 0.73061
vt 0.768451 0.726027
vt 0.780108 0.737875
vt 0.775665 0.744499
vt 0.74021 0.759144
vt 0.73239 0.757574
vt 0.705292 0.730422
vt 0.703752 0.722597
vt 0.718464 0.687171
vt 0.725105 0.682754
vt 0.763462 0.682791
vt 0.770085 0.687235
vt 0.946349 0.790234
vt 0.946349 0.780847
vt 0.958532 0.790234
vt 0.958532 0.780847
vt 0.958532 0.846554
vt 0.946349 0.846554
vt 0.958532 0.837167
vt 0.946349 0.837167
vt 0.958532 0.893487
vt 0.958532 0.902874
vt 0.946349 0.893487
vt 0.94635 0.902874
vt 0.774667 0.75581
vt 0.766831 0.761027
vt 0.770023 0.750139
vt 0.763382 0.754556
vt 0.713741 0.755736
vt 0.718399 0.750075
vt 0.721557 0.760982
vt 0.725022 0.754519
vt 0.69646 0.713894
vt 0.698312 0.704666
vt 0.703753 0.71462
vt 0.705326 0.706801
vt 0.730354 0.672686
vt 0.739589 0.670864
vt 0.732474 0.679703
vt 0.7403 0.678163
vt 0.781395 0.688232
vt 0.786611 0.696066
vt 0.775725 0.692876
vt 0.780143 0.699516
vt 0.958532 0.733914
vt 0.958532 0.7433
vt 0.946349 0.733914
vt 0.946349 0.7433
vt 0.946349 0.677594
vt 0.958532 0.677594
vt 0.946349 0.686981
vt 0.958532 0.686981
vt 0.958532 0.921647
vt 0.958532 0.931034
vt 0.946349 0.921647
vt 0.946349 0.931034
vt 0.758132 0.764624
vt 0.756012 0.757607
vt 0.707089 0.749076
vt 0.71276 0.744433
vt 0.701914 0.695968
vt 0.708381 0.699434
vt 0.749002 0.67087
vt 0.748275 0.678164
vt 0.790215 0.704763
vt 0.783193 0.706885
vt 0.958532 0.752687
vt 0.946349 0.752687
vt 0.946349 0.696367
vt 0.958532 0.696367
vt 0.946349 0.940421
vt 0.958532 0.940421
vt 0.783162 0.730508
vt 0.748186 0.759147
vt 0.708343 0.737792
vt 0.712824 0.69281
vt 0.756094 0.679737
vt 0.784734 0.722688
vt 0.784736 0.714711
vt 0.946349 0.818394
vt 0.946349 0.809008
vt 0.958532 0.818394
vt 0.958532 0.809008
vt 0.958532 0.865327
vt 0.958532 0.874714
vt 0.94635 0.865327
vt 0.946349 0.874714
vt 0.790176 0.732642
vt 0.786574 0.741341
vt 0.748897 0.766444
vt 0.739482 0.766444
vt 0.701873 0.741241
vt 0.698271 0.732544
vt 0.71382 0.6815
vt 0.707162 0.688153
vt 0.766927 0.676328
vt 0.758232 0.672722
vt 0.79203 0.714
vt 0.79203 0.723414
vt 0.946349 0.724527
vt 0.958532 0.724527
vt 0.958532 0.668208
vt 0.946349 0.668208
vt 0.781326 0.749157
vt 0.730252 0.764587
vt 0.696455 0.723306
vt 0.721655 0.676282
vt 0.774742 0.681574
vt 0.946349 0.771461
vt 0.946349 0.762074
vt 0.958532 0.771461
vt 0.958532 0.762074
vt 0.946349 0.705754
vt 0.958532 0.705754
vt 0.946349 0.715141
vt 0.958532 0.715141
vt 0.958532 0.949807
vt 0.958532 0.959194
vt 0.94635 0.949807
vt 0.946349 0.959194
vt 0.946349 0.658821
vt 0.958532 0.658821
vt 0.946349 0.82778
vt 0.958532 0.82778
vt 0.946349 0.8841
vt 0.958532 0.884101
vt 0.946349 0.799621
vt 0.958532 0.799621
vt 0.946349 0.855941
vt 0.958532 0.855941
vt 0.958532 0.912261
vt 0.94635 0.912261
mtllib oculus_quest_pro_controller_left_button_menu.mtl
usemtl oculus_quest_pro_controller_left
g Default
f 32/1/1 2/2/2 129/3/3
f 32/1/1 129/3/3 31/4/4
f 30/5/5 31/4/4 129/3/3
f 30/5/5 129/3/3 29/6/6
f 29/6/6 129/3/3 28/7/7
f 28/7/7 129/3/3 27/8/8
f 26/9/9 27/8/8 129/3/3
f 26/9/9 129/3/3 25/10/10
f 24/11/11 25/10/10 129/3/3
f 23/12/12 24/11/11 129/3/3
f 23/12/12 129/3/3 22/13/13
f 21/14/14 22/13/13 129/3/3
f 21/14/14 129/3/3 20/15/15
f 19/16/16 20/15/15 129/3/3
f 19/16/16 129/3/3 18/17/17
f 17/18/18 18/17/17 129/3/3
f 16/19/19 17/18/18 129/3/3
f 16/19/19 129/3/3 15/20/20
f 14/21/21 15/20/20 129/3/3
f 14/21/21 129/3/3 13/22/22
f 12/23/23 13/22/22 129/3/3
f 11/24/24 12/23/23 129/3/3
f 10/25/25 11/24/24 129/3/3
f 10/25/25 129/3/3 9/26/26
f 8/27/27 9/26/26 129/3/3
f 8/27/27 129/3/3 7/28/28
f 6/29/29 7/28/28 129/3/3
f 6/29/29 129/3/3 5/30/30
f 4/31/31 5/30/30 129/3/3
f 4/31/31 129/3/3 3/32/32
f 3/32/32 129/3/3 1/33/33
f 1/33/33 129/3/3 2/2/2
f 33/34/34 40/35/35 3/32/32
f 4/31/31 3/32/32 40/35/35
f 47/36/36 52/37/37 9/26/26
f 10/25/25 9/26/26 52/37/37
f 59/38/38 64/39/39 15/20/20
f 16/19/19 15/20/20 64/39/39
f 71/40/40 76/41/41 21/14/14
f 22/13/13 21/14/14 76/41/41
f 83/42/42 88/43/43 27/8/8
f 28/7/7 27/8/8 88/43/43
f 70/44/44 69/45/45 111/46/44
f 112/47/45 111/46/44 69/45/45
f 105/48/46 82/49/46 106/50/47
f 81/51/47 106/50/47 82/49/46
f 100/52/48 98/53/49 93/54/48
f 94/55/49 93/54/48 98/53/49
f 42/56/50 45/57/51 39/58/52
f 44/59/53 39/58/52 45/57/51
f 57/60/54 56/61/55 54/62/56
f 51/63/57 54/62/56 56/61/55
f 66/64/58 69/65/59 63/66/60
f 68/67/61 63/66/60 69/65/59
f 78/68/62 81/69/63 75/70/64
f 80/71/65 75/70/64 81/69/63
f 90/72/66 93/73/67 87/74/68
f 92/75/69 87/74/68 93/73/67
f 117/76/70 116/77/71 58/78/70
f 61/79/71 58/78/70 116/77/71
f 46/80/72 123/81/72 49/82/73
f 122/83/73 49/82/73 123/81/72
f 99/84/74 128/85/75 37/86/74
f 36/87/75 37/86/74 128/85/75
f 46/88/76 43/89/77 45/57/51
f 44/59/53 45/57/51 43/89/77
f 58/90/78 55/91/79 57/60/54
f 56/61/55 57/60/54 55/91/79
f 69/65/59 70/92/80 68/67/61
f 67/93/81 68/67/61 70/92/80
f 82/94/82 79/95/83 81/69/63
f 80/71/65 81/69/63 79/95/83
f 93/73/67 94/96/84 92/75/69
f 91/97/85 92/75/69 94/96/84
f 115/98/86 62/99/86 116/77/71
f 61/79/71 116/77/71 62/99/86
f 49/82/73 122/83/73 50/100/87
f 121/101/87 50/100/87 122/83/73
f 36/87/75 128/85/75 38/102/88
f 127/103/88 38/102/88 128/85/75
f 33/34/34 3/32/32 34/104/89
f 1/33/33 34/104/89 3/32/32
f 47/36/36 9/26/26 48/105/90
f 8/27/27 48/105/90 9/26/26
f 59/38/38 15/20/20 60/106/91
f 14/21/21 60/106/91 15/20/20
f 71/40/40 21/14/14 72/107/92
f 20/15/15 72/107/92 21/14/14
f 83/42/42 27/8/8 84/108/93
f 26/9/9 84/108/93 27/8/8
f 35/109/94 2/2/2 95/110/95
f 32/1/1 95/110/95 2/2/2
f 77/111/96 74/112/97 108/113/96
f 109/114/97 108/113/96 74/112/97
f 103/115/98 102/116/99 86/117/98
f 89/118/99 86/117/98 102/116/99
f 36/119/100 38/120/101 34/104/89
f 33/34/34 34/104/89 38/120/101
f 49/121/102 50/122/103 48/105/90
f 47/36/36 48/105/90 50/122/103
f 61/123/104 62/124/105 60/106/91
f 59/38/38 60/106/91 62/124/105
f 74/125/106 71/40/40 73/126/107
f 72/107/92 73/126/107 71/40/40
f 86/127/108 83/42/42 85/128/109
f 84/108/93 85/128/109 83/42/42
f 96/129/110 37/130/111 95/110/95
f 35/109/94 95/110/95 37/130/111
f 58/78/70 57/131/112 117/76/70
f 118/132/112 117/76/70 57/131/112
f 123/81/72 46/80/72 124/133/113
f 45/134/113 124/133/113 46/80/72
f 42/56/50 39/58/52 41/135/114
f 40/35/35 41/135/114 39/58/52
f 54/62/56 51/63/57 53/136/115
f 52/37/37 53/136/115 51/63/57
f 66/64/58 63/66/60 65/137/116
f 64/39/39 65/137/116 63/66/60
f 78/68/62 75/70/64 77/138/117
f 76/41/41 77/138/117 75/70/64
f 90/72/66 87/74/68 89/139/118
f 88/43/43 89/139/118 87/74/68
f 66/140/119 65/141/120 113/142/119
f 114/143/120 113/142/119 65/141/120
f 53/144/121 120/145/121 54/146/122
f 119/147/122 54/146/122 120/145/121
f 126/148/123 125/149/124 41/150/123
f 42/151/124 41/150/123 125/149/124
f 37/130/111 36/119/100 35/109/94
f 34/104/89 35/109/94 36/119/100
f 46/88/76 49/121/102 43/89/77
f 48/105/90 43/89/77 49/121/102
f 58/90/78 61/123/104 55/91/79
f 60/106/91 55/91/79 61/123/104
f 73/126/107 72/107/92 70/92/80
f 67/93/81 70/92/80 72/107/92
f 82/94/82 85/128/109 79/95/83
f 84/108/93 79/95/83 85/128/109
f 96/129/110 95/110/95 94/96/84
f 91/97/85 94/96/84 95/110/95
f 57/131/112 54/146/122 118/132/112
f 119/147/122 118/132/112 54/146/122
f 42/152/124 125/153/124 45/134/113
f 124/133/113 45/134/113 125/153/124
f 41/135/114 40/35/35 38/120/101
f 33/34/34 38/120/101 40/35/35
f 53/136/115 52/37/37 50/122/103
f 47/36/36 50/122/103 52/37/37
f 65/137/116 64/39/39 62/124/105
f 59/38/38 62/124/105 64/39/39
f 74/125/106 77/138/117 71/40/40
f 76/41/41 71/40/40 77/138/117
f 89/139/118 88/43/43 86/127/108
f 83/42/42 86/127/108 88/43/43
f 62/99/86 115/98/86 65/141/120
f 114/143/120 65/141/120 115/98/86
f 120/145/121 53/144/121 121/101/87
f 50/100/87 121/101/87 53/144/121
f 41/150/123 38/102/88 126/148/123
f 127/103/88 126/148/123 38/102/88
f 35/109/94 34/104/89 2/2/2
f 1/33/33 2/2/2 34/104/89
f 43/89/77 48/105/90 7/28/28
f 8/27/27 7/28/28 48/105/90
f 55/91/79 60/106/91 13/22/22
f 14/21/21 13/22/22 60/106/91
f 67/93/81 72/107/92 19/16/16
f 20/15/15 19/16/16 72/107/92
f 79/95/83 84/108/93 25/10/10
f 26/9/9 25/10/10 84/108/93
f 91/97/85 95/110/95 31/4/4
f 32/1/1 31/4/4 95/110/95
f 78/154/125 77/111/96 107/155/125
f 108/113/96 107/155/125 77/111/96
f 90/156/126 89/118/99 101/157/126
f 102/116/99 101/157/126 89/118/99
f 39/58/52 5/30/30 40/35/35
f 4/31/31 40/35/35 5/30/30
f 51/63/57 11/24/24 52/37/37
f 10/25/25 52/37/37 11/24/24
f 63/66/60 17/18/18 64/39/39
f 16/19/19 64/39/39 17/18/18
f 75/70/64 23/12/12 76/41/41
f 22/13/13 76/41/41 23/12/12
f 87/74/68 29/6/6 88/43/43
f 28/7/7 88/43/43 29/6/6
f 69/45/45 66/140/119 112/47/45
f 113/142/119 112/47/45 66/140/119
f 107/155/125 106/50/47 78/154/125
f 81/51/47 78/154/125 106/50/47
f 100/52/48 93/54/48 101/157/126
f 90/156/126 101/157/126 93/54/48
f 39/58/52 44/59/53 5/30/30
f 6/29/29 5/30/30 44/59/53
f 51/63/57 56/61/55 11/24/24
f 12/23/23 11/24/24 56/61/55
f 63/66/60 68/67/61 17/18/18
f 18/17/17 17/18/18 68/67/61
f 75/70/64 80/71/65 23/12/12
f 24/11/11 23/12/12 80/71/65
f 87/74/68 92/75/69 29/6/6
f 30/5/5 29/6/6 92/75/69
f 73/158/127 110/159/127 74/112/97
f 109/114/97 74/112/97 110/159/127
f 86/117/98 85/160/128 103/115/98
f 104/161/128 103/115/98 85/160/128
f 97/162/129 99/84/74 96/163/129
f 37/86/74 96/163/129 99/84/74
f 43/89/77 7/28/28 44/59/53
f 6/29/29 44/59/53 7/28/28
f 55/91/79 13/22/22 56/61/55
f 12/23/23 56/61/55 13/22/22
f 67/93/81 19/16/16 68/67/61
f 18/17/17 68/67/61 19/16/16
f 79/95/83 25/10/10 80/71/65
f 24/11/11 80/71/65 25/10/10
f 91/97/85 31/4/4 92/75/69
f 30/5/5 92/75/69 31/4/4
f 111/46/44 110/159/127 70/44/44
f 73/158/127 70/44/44 110/159/127
f 105/48/46 104/161/128 82/49/46
f 85/160/128 82/49/46 104/161/128
f 96/163/129 94/55/49 97/162/129
f 98/53/49 97/162/129 94/55/49
