#
#
#

mtllib R_ButtonA.mtl


#
# __CM__ButtonA Mesh
#
g __CM__ButtonA Mesh


#
# __CM__ButtonA Mesh___CM__BodySG
#
usemtl __CM__ButtonA Mesh___CM__BodySG

v -0.009850 -0.000415 0.061876
v -0.010157 -0.000674 0.060982
v -0.010150 0.003898 0.059652
v -0.009850 0.004176 0.060541
v -0.010640 -0.000912 0.060162
v -0.010635 0.003647 0.058838
v -0.011280 -0.001118 0.059450
v -0.011274 0.003430 0.058128
v -0.012052 -0.001285 0.058869
v -0.012046 0.003257 0.057549
v -0.012928 -0.001406 0.058445
v -0.012923 0.003138 0.057130
v -0.013872 -0.001479 0.058193
v -0.013866 0.003073 0.056874
v -0.014850 -0.001497 0.058123
v -0.014843 0.003064 0.056801
v -0.015822 -0.001462 0.058237
v -0.015814 0.003116 0.056913
v -0.016753 -0.001374 0.058531
v -0.016744 0.003223 0.057201
v -0.017606 -0.001238 0.058995
v -0.017599 0.003381 0.057652
v -0.018349 -0.001058 0.059609
v -0.018335 0.003588 0.058265
v -0.018952 -0.000841 0.060349
v -0.018938 0.003832 0.058996
v -0.019393 -0.000595 0.061191
v -0.019377 0.004103 0.059827
v -0.019655 -0.000332 0.062098
v -0.019646 0.004394 0.060723
v -0.019728 -0.000059 0.063036
v -0.019719 0.004691 0.061655
v -0.019608 0.000213 0.063970
v -0.019596 0.004986 0.062581
v -0.019301 0.000473 0.064863
v -0.019286 0.005264 0.063468
v -0.018819 0.000710 0.065683
v -0.018806 0.005516 0.064284
v -0.018179 0.000916 0.066397
v -0.018160 0.005729 0.064987
v -0.017406 0.001084 0.066975
v -0.017384 0.005900 0.065557
v -0.016531 0.001205 0.067399
v -0.016518 0.006025 0.065995
v -0.015586 0.001276 0.067652
v -0.015574 0.006090 0.066247
v -0.014609 0.001295 0.067722
v -0.014598 0.006093 0.066306
v -0.013636 0.001260 0.067609
v -0.013628 0.006043 0.066198
v -0.012705 0.001173 0.067314
v -0.012697 0.005938 0.065918
v -0.011852 0.001037 0.066850
v -0.011845 0.005779 0.065464
v -0.011110 0.000857 0.066236
v -0.011104 0.005574 0.064858
v -0.010506 0.000639 0.065496
v -0.010500 0.005330 0.064127
v -0.010065 0.000394 0.064655
v -0.010059 0.005059 0.063296
v -0.009803 0.000130 0.063748
v -0.009797 0.004768 0.062398
v -0.009731 -0.000144 0.062810
v -0.009722 0.004470 0.061466
v -0.009925 0.004457 0.060471
v -0.010227 0.004180 0.059600
v -0.010404 0.004375 0.059621
v -0.010117 0.004641 0.060459
v -0.010703 0.003934 0.058801
v -0.010864 0.004138 0.058858
v -0.011333 0.003721 0.058105
v -0.011469 0.003933 0.058192
v -0.012092 0.003553 0.057538
v -0.012198 0.003770 0.057651
v -0.012952 0.003438 0.057125
v -0.013024 0.003658 0.057260
v -0.013878 0.003373 0.056878
v -0.013912 0.003596 0.057023
v -0.014836 0.003366 0.056807
v -0.014829 0.003589 0.056957
v -0.015789 0.003417 0.056916
v -0.015740 0.003638 0.057065
v -0.016701 0.003523 0.057199
v -0.016613 0.003739 0.057336
v -0.017537 0.003676 0.057645
v -0.017414 0.003888 0.057758
v -0.018263 0.003881 0.058240
v -0.018105 0.004082 0.058330
v -0.018855 0.004119 0.058957
v -0.018674 0.004313 0.059016
v -0.019288 0.004387 0.059771
v -0.019090 0.004570 0.059796
v -0.019549 0.004669 0.060654
v -0.019347 0.004844 0.060636
v -0.019629 0.004965 0.061565
v -0.019421 0.005126 0.061509
v -0.019510 0.005254 0.062476
v -0.019310 0.005406 0.062382
v -0.019212 0.005530 0.063350
v -0.019024 0.005671 0.063221
v -0.018741 0.005777 0.064155
v -0.018577 0.005913 0.063991
v -0.018111 0.005995 0.064852
v -0.017970 0.006117 0.064658
v -0.017350 0.006167 0.065423
v -0.017235 0.006281 0.065204
v -0.016490 0.006283 0.065849
v -0.016415 0.006402 0.065621
v -0.015560 0.006349 0.066099
v -0.015526 0.006465 0.065861
v -0.014595 0.006360 0.066165
v -0.014599 0.006468 0.065918
v -0.013635 0.006309 0.066058
v -0.013676 0.006422 0.065818
v -0.012717 0.006200 0.065777
v -0.012793 0.006321 0.065549
v -0.011877 0.006042 0.065326
v -0.011987 0.006169 0.065120
v -0.011147 0.005838 0.064727
v -0.011286 0.005974 0.064544
v -0.010554 0.005597 0.064004
v -0.010716 0.005742 0.063850
v -0.010122 0.005327 0.063183
v -0.010302 0.005481 0.063062
v -0.009867 0.005039 0.062298
v -0.010058 0.005204 0.062211
v -0.009802 0.004742 0.061384
v -0.009991 0.004921 0.061333
v -0.011785 0.005227 0.060010
v -0.011586 0.005410 0.060583
v -0.012094 0.005065 0.059496
v -0.012503 0.004922 0.059039
v -0.012988 0.004808 0.058669
v -0.013547 0.004725 0.058390
v -0.014157 0.004680 0.058229
v -0.014780 0.004674 0.058181
v -0.015407 0.004704 0.058245
v -0.016009 0.004776 0.058439
v -0.016546 0.004882 0.058734
v -0.017016 0.005018 0.059121
v -0.017405 0.005177 0.059595
v -0.017687 0.005357 0.060133
v -0.017854 0.005546 0.060709
v -0.017904 0.005736 0.061294
v -0.017826 0.005925 0.061883
v -0.017633 0.006107 0.062458
v -0.017331 0.006269 0.062976
v -0.016929 0.006407 0.063425
v -0.016419 0.006522 0.063813
v -0.015856 0.006600 0.064098
v -0.015275 0.006641 0.064257
v -0.014642 0.006646 0.064307
v -0.013996 0.006613 0.064236
v -0.013398 0.006543 0.064048
v -0.012856 0.006440 0.063752
v -0.012382 0.006308 0.063358
v -0.011999 0.006151 0.062883
v -0.011721 0.005976 0.062347
v -0.011557 0.005788 0.061765
v -0.011485 0.005592 0.061180
v -0.013231 0.005838 0.060498
v -0.013131 0.005931 0.060786
v -0.013386 0.005757 0.060241
v -0.013591 0.005686 0.060013
v -0.013834 0.005629 0.059826
v -0.014114 0.005588 0.059687
v -0.014419 0.005566 0.059605
v -0.014731 0.005564 0.059580
v -0.015045 0.005580 0.059613
v -0.015347 0.005616 0.059711
v -0.015616 0.005669 0.059858
v -0.015851 0.005736 0.060054
v -0.016046 0.005816 0.060291
v -0.016187 0.005906 0.060560
v -0.016271 0.006000 0.060848
v -0.016296 0.006096 0.061142
v -0.016257 0.006190 0.061437
v -0.016160 0.006282 0.061725
v -0.016009 0.006364 0.061984
v -0.015808 0.006434 0.062209
v -0.015552 0.006492 0.062403
v -0.015269 0.006533 0.062546
v -0.014979 0.006554 0.062625
v -0.014662 0.006558 0.062650
v -0.014338 0.006541 0.062615
v -0.014038 0.006505 0.062520
v -0.013767 0.006452 0.062373
v -0.013529 0.006385 0.062175
v -0.013338 0.006305 0.061938
v -0.013199 0.006216 0.061670
v -0.013116 0.006121 0.061379
v -0.013080 0.006023 0.061085
v -0.014691 0.006189 0.061074
vn 0.975744 -0.061911 -0.209980
vn 0.914936 -0.113574 -0.387290
vn 0.915135 -0.098548 -0.390918
vn 0.975821 -0.047253 -0.213404
vn 0.817613 -0.161683 -0.552601
vn 0.817805 -0.146299 -0.556589
vn 0.690143 -0.202806 -0.694674
vn 0.690257 -0.187196 -0.698930
vn 0.534310 -0.236315 -0.811584
vn 0.534238 -0.220613 -0.816039
vn 0.359499 -0.260118 -0.896158
vn 0.359244 -0.244382 -0.900678
vn 0.172075 -0.274293 -0.946126
vn 0.171596 -0.258193 -0.950732
vn -0.024833 -0.278081 -0.960237
vn -0.025495 -0.261581 -0.964845
vn -0.219300 -0.270864 -0.937305
vn -0.220044 -0.254198 -0.941788
vn -0.403619 -0.253853 -0.879005
vn -0.404385 -0.236750 -0.883415
vn -0.576389 -0.226509 -0.785156
vn -0.577186 -0.209077 -0.789394
vn -0.725301 -0.189839 -0.661740
vn -0.725945 -0.172625 -0.665736
vn -0.844798 -0.146435 -0.514659
vn -0.845267 -0.129511 -0.518412
vn -0.932378 -0.098138 -0.347910
vn -0.932572 -0.081117 -0.351752
vn -0.984859 -0.046255 -0.167073
vn -0.984836 -0.029276 -0.171001
vn -0.999688 0.008847 0.023343
vn -0.999485 0.025384 0.019606
vn -0.975369 0.063920 0.211116
vn -0.974993 0.079778 0.207420
vn -0.914297 0.115677 0.388175
vn -0.913877 0.130802 0.384343
vn -0.816927 0.163806 0.552990
vn -0.816486 0.178070 0.549219
vn -0.686400 0.206798 0.697201
vn -0.686007 0.219725 0.693625
vn -0.536844 0.239452 0.808988
vn -0.536749 0.251541 0.805374
vn -0.364154 0.262421 0.893604
vn -0.364318 0.274794 0.889809
vn -0.167361 0.277359 0.946078
vn -0.167645 0.289461 0.942395
vn 0.027085 0.282206 0.958971
vn 0.026586 0.293250 0.955666
vn 0.215822 0.275413 0.936787
vn 0.214999 0.286351 0.933691
vn 0.402678 0.256949 0.878537
vn 0.401730 0.268540 0.875500
vn 0.575007 0.228822 0.785498
vn 0.574077 0.240916 0.782557
vn 0.723232 0.192698 0.663176
vn 0.722362 0.205168 0.660378
vn 0.844155 0.149119 0.514943
vn 0.843450 0.162012 0.512196
vn 0.932667 0.099795 0.346659
vn 0.932169 0.113098 0.343903
vn 0.985006 0.046893 0.166024
vn 0.984741 0.060803 0.163057
vn 0.999676 -0.008281 -0.024067
vn 0.999609 0.006139 -0.027263
vn 0.847847 0.413217 -0.332275
vn 0.791231 0.373467 -0.484227
vn 0.425656 0.786955 -0.446675
vn 0.455296 0.810713 -0.368036
vn 0.703618 0.338541 -0.624749
vn 0.379565 0.765189 -0.520016
vn 0.592064 0.309333 -0.744159
vn 0.321662 0.747169 -0.581611
vn 0.457709 0.286707 -0.841607
vn 0.251353 0.732522 -0.632640
vn 0.308778 0.273089 -0.911087
vn 0.172196 0.722877 -0.669176
vn 0.150855 0.267398 -0.951704
vn 0.088502 0.717457 -0.690958
vn -0.013298 0.270646 -0.962587
vn 0.002311 0.716829 -0.697246
vn -0.175038 0.281716 -0.943397
vn -0.084405 0.721589 -0.687157
vn -0.328163 0.300080 -0.895690
vn -0.167025 0.730687 -0.661966
vn -0.472199 0.324705 -0.819509
vn -0.243134 0.744250 -0.622076
vn -0.597410 0.356311 -0.718432
vn -0.309012 0.762655 -0.568216
vn -0.700151 0.390987 -0.597426
vn -0.363087 0.783717 -0.503941
vn -0.777300 0.430219 -0.459039
vn -0.404249 0.806487 -0.431464
vn -0.827014 0.470037 -0.308403
vn -0.430637 0.830851 -0.352474
vn -0.845611 0.513695 -0.145122
vn -0.439170 0.857919 -0.266655
vn -0.830997 0.555936 0.019490
vn -0.429936 0.884375 -0.181757
vn -0.785295 0.593751 0.175419
vn -0.405002 0.908670 -0.101456
vn -0.706213 0.628713 0.325551
vn -0.361900 0.931901 -0.024271
vn -0.595850 0.660166 0.457322
vn -0.301370 0.952591 0.041792
vn -0.467481 0.683607 0.560485
vn -0.233318 0.967970 0.092722
vn -0.316175 0.699206 0.641206
vn -0.154887 0.978606 0.135427
vn -0.140843 0.708417 0.691599
vn -0.063549 0.985030 0.160246
vn 0.031789 0.708399 0.705096
vn 0.025917 0.986172 0.163689
vn 0.199241 0.698980 0.686826
vn 0.112862 0.981613 0.153942
vn 0.365084 0.681143 0.634633
vn 0.199301 0.971514 0.128219
vn 0.517600 0.655320 0.550133
vn 0.278263 0.956699 0.085424
vn 0.647313 0.622846 0.439373
vn 0.345328 0.938048 0.028554
vn 0.751248 0.584662 0.306262
vn 0.399401 0.915930 -0.039394
vn 0.825247 0.542874 0.155743
vn 0.438247 0.891344 -0.115955
vn 0.866477 0.499191 -0.005147
vn 0.461976 0.864973 -0.195958
vn 0.874203 0.454150 -0.171806
vn 0.468999 0.836595 -0.283105
vn 0.333470 0.843077 -0.421923
vn 0.354882 0.862663 -0.360377
vn 0.298396 0.825443 -0.479170
vn 0.254435 0.810737 -0.527227
vn 0.200669 0.798520 -0.567537
vn 0.138948 0.789529 -0.597777
vn 0.072974 0.785020 -0.615158
vn 0.006076 0.784250 -0.620415
vn -0.063225 0.787327 -0.613286
vn -0.128982 0.795019 -0.592713
vn -0.188011 0.806270 -0.560875
vn -0.239984 0.820477 -0.518870
vn -0.282517 0.837365 -0.467978
vn -0.313396 0.856305 -0.410519
vn -0.331929 0.876594 -0.348433
vn -0.338257 0.897896 -0.281719
vn -0.329840 0.918916 -0.216332
vn -0.309547 0.938231 -0.154608
vn -0.275418 0.956572 -0.095473
vn -0.229344 0.972352 -0.043959
vn -0.176499 0.984292 -0.004191
vn -0.114804 0.993032 0.026613
vn -0.045294 0.997949 0.045233
vn 0.023206 0.998465 0.050300
vn 0.090992 0.994935 0.042724
vn 0.157379 0.987305 0.021447
vn 0.217680 0.975948 -0.011913
vn 0.269394 0.961441 -0.055311
vn 0.310998 0.944326 -0.107372
vn 0.341222 0.925286 -0.165572
vn 0.358171 0.905641 -0.226999
vn 0.366340 0.882828 -0.293954
vn 0.208595 0.899959 -0.382834
vn 0.221781 0.912566 -0.343565
vn 0.187518 0.889065 -0.417613
vn 0.161287 0.879979 -0.446792
vn 0.129401 0.872552 -0.471072
vn 0.091175 0.866918 -0.490042
vn 0.050741 0.863913 -0.501079
vn 0.011307 0.863470 -0.504273
vn -0.032145 0.865612 -0.499682
vn -0.073290 0.870438 -0.486791
vn -0.108660 0.877308 -0.467465
vn -0.139518 0.886307 -0.441582
vn -0.165266 0.896782 -0.410451
vn -0.184006 0.908559 -0.375051
vn -0.194863 0.920976 -0.337390
vn -0.198395 0.933990 -0.297157
vn -0.193097 0.946781 -0.257525
vn -0.180857 0.958575 -0.220058
vn -0.160457 0.969650 -0.184479
vn -0.132883 0.979193 -0.153375
vn -0.100295 0.986682 -0.128060
vn -0.062840 0.992138 -0.108228
vn -0.022032 0.995099 -0.096395
vn 0.019847 0.995471 -0.092970
vn 0.062663 0.993254 -0.097567
vn 0.103803 0.988435 -0.110550
vn 0.140576 0.981393 -0.130794
vn 0.172203 0.972360 -0.157677
vn 0.197517 0.961810 -0.189497
vn 0.215191 0.950380 -0.224659
vn 0.224693 0.938205 -0.263221
vn 0.229981 0.924749 -0.303230
vn 0.015474 0.951250 -0.308034
vt 0.155571 0.118158
vt 0.161062 0.118158
vt 0.161062 0.145423
vt 0.155571 0.145423
vt 0.166555 0.118158
vt 0.166555 0.145423
vt 0.172047 0.118158
vt 0.172047 0.145423
vt 0.177540 0.118158
vt 0.177540 0.145423
vt 0.183032 0.118158
vt 0.183032 0.145423
vt 0.188523 0.118158
vt 0.188523 0.145423
vt 0.194014 0.118158
vt 0.194014 0.145423
vt 0.018325 0.118158
vt 0.023815 0.118158
vt 0.023815 0.145423
vt 0.018325 0.145423
vt 0.029305 0.118158
vt 0.029305 0.145423
vt 0.034797 0.118158
vt 0.034797 0.145423
vt 0.040287 0.118158
vt 0.040287 0.145423
vt 0.045775 0.118158
vt 0.045775 0.145423
vt 0.051264 0.118158
vt 0.051264 0.145423
vt 0.056754 0.118158
vt 0.056754 0.145423
vt 0.062247 0.118158
vt 0.062247 0.145423
vt 0.067740 0.118158
vt 0.067740 0.145423
vt 0.073231 0.118158
vt 0.073231 0.145423
vt 0.078723 0.118158
vt 0.078723 0.145423
vt 0.084213 0.118158
vt 0.084213 0.145423
vt 0.089699 0.118158
vt 0.089699 0.145423
vt 0.095187 0.118158
vt 0.095187 0.145423
vt 0.100679 0.118158
vt 0.100679 0.145423
vt 0.106167 0.118158
vt 0.106167 0.145423
vt 0.111651 0.118158
vt 0.111651 0.145423
vt 0.117138 0.118158
vt 0.117138 0.145423
vt 0.122627 0.118158
vt 0.122627 0.145423
vt 0.128116 0.118158
vt 0.128116 0.145423
vt 0.133606 0.118158
vt 0.133606 0.145423
vt 0.139097 0.118158
vt 0.139097 0.145423
vt 0.144588 0.118158
vt 0.144588 0.145423
vt 0.150080 0.118158
vt 0.150080 0.145423
vt 0.777458 0.805553
vt 0.776386 0.811381
vt 0.774881 0.810942
vt 0.775884 0.805410
vt 0.774160 0.816870
vt 0.772760 0.816137
vt 0.770920 0.821820
vt 0.769693 0.820836
vt 0.766786 0.826042
vt 0.765770 0.824830
vt 0.761902 0.829358
vt 0.761132 0.827965
vt 0.756483 0.831692
vt 0.755992 0.830176
vt 0.750715 0.832933
vt 0.750528 0.831349
vt 0.744813 0.833007
vt 0.744937 0.831409
vt 0.739000 0.831954
vt 0.739426 0.830409
vt 0.733495 0.829808
vt 0.734215 0.828384
vt 0.728536 0.826586
vt 0.729529 0.825324
vt 0.724270 0.822483
vt 0.725485 0.821435
vt 0.720885 0.817620
vt 0.722276 0.816826
vt 0.718478 0.812195
vt 0.719985 0.811692
vt 0.717194 0.806395
vt 0.718775 0.806203
vt 0.717086 0.800446
vt 0.718671 0.800569
vt 0.718136 0.794579
vt 0.719672 0.795009
vt 0.720302 0.789021
vt 0.721706 0.789742
vt 0.723549 0.784012
vt 0.724794 0.785013
vt 0.727717 0.779728
vt 0.728762 0.780952
vt 0.732607 0.776285
vt 0.733379 0.777662
vt 0.738101 0.773923
vt 0.738566 0.775435
vt 0.743963 0.772733
vt 0.744125 0.774332
vt 0.749941 0.772660
vt 0.749800 0.774251
vt 0.755811 0.773753
vt 0.755363 0.775267
vt 0.761344 0.775982
vt 0.760600 0.777383
vt 0.766322 0.779259
vt 0.765322 0.780482
vt 0.770563 0.783434
vt 0.769346 0.784436
vt 0.773899 0.788352
vt 0.772511 0.789098
vt 0.776210 0.793819
vt 0.774706 0.794285
vt 0.777423 0.799624
vt 0.775869 0.799783
vt 0.765469 0.808140
vt 0.766142 0.804442
vt 0.764096 0.811555
vt 0.762085 0.814691
vt 0.759549 0.817361
vt 0.756501 0.819525
vt 0.753053 0.821016
vt 0.749424 0.821793
vt 0.745683 0.821898
vt 0.741972 0.821176
vt 0.738558 0.819773
vt 0.735460 0.817735
vt 0.732764 0.815105
vt 0.730645 0.811996
vt 0.729170 0.808563
vt 0.728383 0.804979
vt 0.728341 0.801272
vt 0.728991 0.797562
vt 0.730330 0.794122
vt 0.732325 0.791041
vt 0.735003 0.788252
vt 0.738075 0.786058
vt 0.741358 0.784616
vt 0.745043 0.783815
vt 0.748906 0.783763
vt 0.752581 0.784468
vt 0.756018 0.785871
vt 0.759137 0.787944
vt 0.761787 0.790583
vt 0.763871 0.793672
vt 0.765327 0.797125
vt 0.766252 0.800699
vt 0.756261 0.805433
vt 0.756595 0.803602
vt 0.755578 0.807118
vt 0.754586 0.808666
vt 0.753336 0.809984
vt 0.751831 0.811052
vt 0.750130 0.811784
vt 0.748343 0.812172
vt 0.746497 0.812220
vt 0.744668 0.811860
vt 0.742987 0.811167
vt 0.741460 0.810160
vt 0.740132 0.808862
vt 0.739090 0.807328
vt 0.738365 0.805636
vt 0.737973 0.803871
vt 0.737957 0.802043
vt 0.738274 0.800214
vt 0.738931 0.798518
vt 0.739918 0.796999
vt 0.741235 0.795616
vt 0.742753 0.794535
vt 0.744369 0.793822
vt 0.746185 0.793431
vt 0.748090 0.793405
vt 0.749902 0.793752
vt 0.751597 0.794443
vt 0.753136 0.795465
vt 0.754443 0.796766
vt 0.755470 0.798289
vt 0.756188 0.799996
vt 0.756645 0.801756
vt 0.747278 0.802803
vt 0.779237 0.805714
vt 0.778061 0.811872
vt 0.775741 0.817699
vt 0.772295 0.822933
vt 0.767914 0.827388
vt 0.762768 0.830917
vt 0.757036 0.833390
vt 0.750928 0.834709
vt 0.744677 0.834797
vt 0.738522 0.833685
vt 0.732689 0.831405
vt 0.727427 0.828003
vt 0.722911 0.823657
vt 0.719326 0.818508
vt 0.716789 0.812760
vt 0.715422 0.806615
vt 0.715309 0.800312
vt 0.716419 0.794102
vt 0.718718 0.788217
vt 0.722149 0.782902
vt 0.726542 0.778346
vt 0.731758 0.774752
vt 0.737569 0.772234
vt 0.743776 0.770932
vt 0.750110 0.770885
vt 0.756323 0.772056
vt 0.762178 0.774422
vt 0.767445 0.777892
vt 0.771929 0.782313
vt 0.775456 0.787519
vt 0.777897 0.793303
vt 0.779154 0.799444
f 1/1/1 2/2/2 3/3/3 4/4/4
f 2/2/2 5/5/5 6/6/6 3/3/3
f 5/5/5 7/7/7 8/8/8 6/6/6
f 7/7/7 9/9/9 10/10/10 8/8/8
f 9/9/9 11/11/11 12/12/12 10/10/10
f 11/11/11 13/13/13 14/14/14 12/12/12
f 13/13/13 15/15/15 16/16/16 14/14/14
f 15/17/15 17/18/17 18/19/18 16/20/16
f 17/18/17 19/21/19 20/22/20 18/19/18
f 19/21/19 21/23/21 22/24/22 20/22/20
f 21/23/21 23/25/23 24/26/24 22/24/22
f 23/25/23 25/27/25 26/28/26 24/26/24
f 25/27/25 27/29/27 28/30/28 26/28/26
f 27/29/27 29/31/29 30/32/30 28/30/28
f 29/31/29 31/33/31 32/34/32 30/32/30
f 31/33/31 33/35/33 34/36/34 32/34/32
f 33/35/33 35/37/35 36/38/36 34/36/34
f 35/37/35 37/39/37 38/40/38 36/38/36
f 37/39/37 39/41/39 40/42/40 38/40/38
f 39/41/39 41/43/41 42/44/42 40/42/40
f 41/43/41 43/45/43 44/46/44 42/44/42
f 43/45/43 45/47/45 46/48/46 44/46/44
f 45/47/45 47/49/47 48/50/48 46/48/46
f 47/49/47 49/51/49 50/52/50 48/50/48
f 49/51/49 51/53/51 52/54/52 50/52/50
f 51/53/51 53/55/53 54/56/54 52/54/52
f 53/55/53 55/57/55 56/58/56 54/56/54
f 55/57/55 57/59/57 58/60/58 56/58/56
f 57/59/57 59/61/59 60/62/60 58/60/58
f 59/61/59 61/63/61 62/64/62 60/62/60
f 61/63/61 63/65/63 64/66/64 62/64/62
f 63/65/63 1/1/1 4/4/4 64/66/64
f 65/67/65 66/68/66 67/69/67 68/70/68
f 66/68/66 69/71/69 70/72/70 67/69/67
f 69/71/69 71/73/71 72/74/72 70/72/70
f 71/73/71 73/75/73 74/76/74 72/74/72
f 73/75/73 75/77/75 76/78/76 74/76/74
f 75/77/75 77/79/77 78/80/78 76/78/76
f 77/79/77 79/81/79 80/82/80 78/80/78
f 79/81/79 81/83/81 82/84/82 80/82/80
f 81/83/81 83/85/83 84/86/84 82/84/82
f 83/85/83 85/87/85 86/88/86 84/86/84
f 85/87/85 87/89/87 88/90/88 86/88/86
f 87/89/87 89/91/89 90/92/90 88/90/88
f 89/91/89 91/93/91 92/94/92 90/92/90
f 91/93/91 93/95/93 94/96/94 92/94/92
f 93/95/93 95/97/95 96/98/96 94/96/94
f 95/97/95 97/99/97 98/100/98 96/98/96
f 97/99/97 99/101/99 100/102/100 98/100/98
f 99/101/99 101/103/101 102/104/102 100/102/100
f 101/103/101 103/105/103 104/106/104 102/104/102
f 103/105/103 105/107/105 106/108/106 104/106/104
f 105/107/105 107/109/107 108/110/108 106/108/106
f 107/109/107 109/111/109 110/112/110 108/110/108
f 109/111/109 111/113/111 112/114/112 110/112/110
f 111/113/111 113/115/113 114/116/114 112/114/112
f 113/115/113 115/117/115 116/118/116 114/116/114
f 115/117/115 117/119/117 118/120/118 116/118/116
f 117/119/117 119/121/119 120/122/120 118/120/118
f 119/121/119 121/123/121 122/124/122 120/122/120
f 121/123/121 123/125/123 124/126/124 122/124/122
f 123/125/123 125/127/125 126/128/126 124/126/124
f 125/127/125 127/129/127 128/130/128 126/128/126
f 127/129/127 65/67/65 68/70/68 128/130/128
f 68/70/68 67/69/67 129/131/129 130/132/130
f 67/69/67 70/72/70 131/133/131 129/131/129
f 70/72/70 72/74/72 132/134/132 131/133/131
f 72/74/72 74/76/74 133/135/133 132/134/132
f 74/76/74 76/78/76 134/136/134 133/135/133
f 76/78/76 78/80/78 135/137/135 134/136/134
f 78/80/78 80/82/80 136/138/136 135/137/135
f 80/82/80 82/84/82 137/139/137 136/138/136
f 82/84/82 84/86/84 138/140/138 137/139/137
f 84/86/84 86/88/86 139/141/139 138/140/138
f 86/88/86 88/90/88 140/142/140 139/141/139
f 88/90/88 90/92/90 141/143/141 140/142/140
f 90/92/90 92/94/92 142/144/142 141/143/141
f 92/94/92 94/96/94 143/145/143 142/144/142
f 94/96/94 96/98/96 144/146/144 143/145/143
f 96/98/96 98/100/98 145/147/145 144/146/144
f 98/100/98 100/102/100 146/148/146 145/147/145
f 100/102/100 102/104/102 147/149/147 146/148/146
f 102/104/102 104/106/104 148/150/148 147/149/147
f 104/106/104 106/108/106 149/151/149 148/150/148
f 106/108/106 108/110/108 150/152/150 149/151/149
f 108/110/108 110/112/110 151/153/151 150/152/150
f 110/112/110 112/114/112 152/154/152 151/153/151
f 112/114/112 114/116/114 153/155/153 152/154/152
f 114/116/114 116/118/116 154/156/154 153/155/153
f 116/118/116 118/120/118 155/157/155 154/156/154
f 118/120/118 120/122/120 156/158/156 155/157/155
f 120/122/120 122/124/122 157/159/157 156/158/156
f 122/124/122 124/126/124 158/160/158 157/159/157
f 124/126/124 126/128/126 159/161/159 158/160/158
f 126/128/126 128/130/128 160/162/160 159/161/159
f 128/130/128 68/70/68 130/132/130 160/162/160
f 130/132/130 129/131/129 161/163/161 162/164/162
f 129/131/129 131/133/131 163/165/163 161/163/161
f 131/133/131 132/134/132 164/166/164 163/165/163
f 132/134/132 133/135/133 165/167/165 164/166/164
f 133/135/133 134/136/134 166/168/166 165/167/165
f 134/136/134 135/137/135 167/169/167 166/168/166
f 135/137/135 136/138/136 168/170/168 167/169/167
f 136/138/136 137/139/137 169/171/169 168/170/168
f 137/139/137 138/140/138 170/172/170 169/171/169
f 138/140/138 139/141/139 171/173/171 170/172/170
f 139/141/139 140/142/140 172/174/172 171/173/171
f 140/142/140 141/143/141 173/175/173 172/174/172
f 141/143/141 142/144/142 174/176/174 173/175/173
f 142/144/142 143/145/143 175/177/175 174/176/174
f 143/145/143 144/146/144 176/178/176 175/177/175
f 144/146/144 145/147/145 177/179/177 176/178/176
f 145/147/145 146/148/146 178/180/178 177/179/177
f 146/148/146 147/149/147 179/181/179 178/180/178
f 147/149/147 148/150/148 180/182/180 179/181/179
f 148/150/148 149/151/149 181/183/181 180/182/180
f 149/151/149 150/152/150 182/184/182 181/183/181
f 150/152/150 151/153/151 183/185/183 182/184/182
f 151/153/151 152/154/152 184/186/184 183/185/183
f 152/154/152 153/155/153 185/187/185 184/186/184
f 153/155/153 154/156/154 186/188/186 185/187/185
f 154/156/154 155/157/155 187/189/187 186/188/186
f 155/157/155 156/158/156 188/190/188 187/189/187
f 156/158/156 157/159/157 189/191/189 188/190/188
f 157/159/157 158/160/158 190/192/190 189/191/189
f 158/160/158 159/161/159 191/193/191 190/192/190
f 159/161/159 160/162/160 192/194/192 191/193/191
f 160/162/160 130/132/130 162/164/162 192/194/192
f 162/164/162 161/163/161 193/195/193
f 161/163/161 163/165/163 193/195/193
f 163/165/163 164/166/164 193/195/193
f 164/166/164 165/167/165 193/195/193
f 165/167/165 166/168/166 193/195/193
f 166/168/166 167/169/167 193/195/193
f 167/169/167 168/170/168 193/195/193
f 168/170/168 169/171/169 193/195/193
f 169/171/169 170/172/170 193/195/193
f 170/172/170 171/173/171 193/195/193
f 171/173/171 172/174/172 193/195/193
f 172/174/172 173/175/173 193/195/193
f 173/175/173 174/176/174 193/195/193
f 174/176/174 175/177/175 193/195/193
f 175/177/175 176/178/176 193/195/193
f 176/178/176 177/179/177 193/195/193
f 177/179/177 178/180/178 193/195/193
f 178/180/178 179/181/179 193/195/193
f 179/181/179 180/182/180 193/195/193
f 180/182/180 181/183/181 193/195/193
f 181/183/181 182/184/182 193/195/193
f 182/184/182 183/185/183 193/195/193
f 183/185/183 184/186/184 193/195/193
f 184/186/184 185/187/185 193/195/193
f 185/187/185 186/188/186 193/195/193
f 186/188/186 187/189/187 193/195/193
f 187/189/187 188/190/188 193/195/193
f 188/190/188 189/191/189 193/195/193
f 189/191/189 190/192/190 193/195/193
f 190/192/190 191/193/191 193/195/193
f 191/193/191 192/194/192 193/195/193
f 192/194/192 162/164/162 193/195/193
f 4/196/4 3/197/3 66/68/66 65/67/65
f 3/197/3 6/198/6 69/71/69 66/68/66
f 6/198/6 8/199/8 71/73/71 69/71/69
f 8/199/8 10/200/10 73/75/73 71/73/71
f 10/200/10 12/201/12 75/77/75 73/75/73
f 12/201/12 14/202/14 77/79/77 75/77/75
f 14/202/14 16/203/16 79/81/79 77/79/77
f 16/203/16 18/204/18 81/83/81 79/81/79
f 18/204/18 20/205/20 83/85/83 81/83/81
f 20/205/20 22/206/22 85/87/85 83/85/83
f 22/206/22 24/207/24 87/89/87 85/87/85
f 24/207/24 26/208/26 89/91/89 87/89/87
f 26/208/26 28/209/28 91/93/91 89/91/89
f 28/209/28 30/210/30 93/95/93 91/93/91
f 30/210/30 32/211/32 95/97/95 93/95/93
f 32/211/32 34/212/34 97/99/97 95/97/95
f 34/212/34 36/213/36 99/101/99 97/99/97
f 36/213/36 38/214/38 101/103/101 99/101/99
f 38/214/38 40/215/40 103/105/103 101/103/101
f 40/215/40 42/216/42 105/107/105 103/105/103
f 42/216/42 44/217/44 107/109/107 105/107/105
f 44/217/44 46/218/46 109/111/109 107/109/107
f 46/218/46 48/219/48 111/113/111 109/111/109
f 48/219/48 50/220/50 113/115/113 111/113/111
f 50/220/50 52/221/52 115/117/115 113/115/113
f 52/221/52 54/222/54 117/119/117 115/117/115
f 54/222/54 56/223/56 119/121/119 117/119/117
f 56/223/56 58/224/58 121/123/121 119/121/119
f 58/224/58 60/225/60 123/125/123 121/123/121
f 60/225/60 62/226/62 125/127/125 123/125/123
f 62/226/62 64/227/64 127/129/127 125/127/125
f 64/227/64 4/196/4 65/67/65 127/129/127
