#
#
#

mtllib R_HomeButton.mtl


#
# __CM__HomeButton Mesh
#
g __CM__HomeButton Mesh


#
# __CM__HomeButton Mesh___CM__BodySG
#
usemtl __CM__HomeButton Mesh___CM__BodySG

v 0.005329 0.003646 0.061995
v 0.005090 0.003454 0.061331
v 0.004998 0.003765 0.061287
v 0.005225 0.003952 0.061930
v 0.004712 0.003280 0.060729
v 0.004633 0.003595 0.060701
v 0.004213 0.003131 0.060216
v 0.004149 0.003451 0.060200
v 0.003611 0.003016 0.059813
v 0.003566 0.003337 0.059807
v 0.002935 0.002937 0.059538
v 0.002909 0.003261 0.059538
v 0.002213 0.002900 0.059407
v 0.002207 0.003225 0.059409
v 0.001479 0.002907 0.059421
v 0.001492 0.003230 0.059424
v 0.000765 0.002955 0.059585
v 0.000797 0.003278 0.059582
v 0.000101 0.003044 0.059887
v 0.000152 0.003366 0.059879
v -0.000480 0.003171 0.060317
v -0.000413 0.003488 0.060298
v -0.000956 0.003327 0.060853
v -0.000873 0.003641 0.060820
v -0.001305 0.003507 0.061472
v -0.001209 0.003817 0.061423
v -0.001512 0.003704 0.062147
v -0.001405 0.004008 0.062078
v -0.001569 0.003908 0.062847
v -0.001456 0.004206 0.062758
v -0.001469 0.004110 0.063544
v -0.001358 0.004401 0.063430
v -0.001216 0.004301 0.064200
v -0.001116 0.004586 0.064067
v -0.000828 0.004472 0.064790
v -0.000744 0.004752 0.064642
v -0.000322 0.004616 0.065289
v -0.000256 0.004893 0.065130
v 0.000278 0.004728 0.065679
v 0.000325 0.005002 0.065509
v 0.000945 0.004803 0.065940
v 0.000973 0.005076 0.065766
v 0.001654 0.004838 0.066064
v 0.001662 0.005110 0.065887
v 0.002373 0.004832 0.066046
v 0.002362 0.005104 0.065872
v 0.003073 0.004784 0.065887
v 0.003043 0.005058 0.065716
v 0.003725 0.004697 0.065596
v 0.003677 0.004973 0.065429
v 0.004303 0.004575 0.065181
v 0.004235 0.004855 0.065023
v 0.004779 0.004423 0.064660
v 0.004696 0.004705 0.064516
v 0.005137 0.004246 0.064054
v 0.005038 0.004533 0.063925
v 0.005357 0.004052 0.063388
v 0.005245 0.004345 0.063280
v 0.005421 0.003849 0.062689
v 0.005310 0.004148 0.062605
v 0.004860 0.004154 0.061959
v 0.004657 0.003988 0.061386
v 0.001931 0.004357 0.062629
v 0.004334 0.003836 0.060865
v 0.003904 0.003708 0.060420
v 0.003385 0.003607 0.060070
v 0.002800 0.003538 0.059831
v 0.002176 0.003505 0.059716
v 0.001540 0.003511 0.059728
v 0.000922 0.003553 0.059871
v 0.000348 0.003631 0.060134
v -0.000153 0.003741 0.060507
v -0.000563 0.003877 0.060971
v -0.000862 0.004034 0.061507
v -0.001036 0.004204 0.062090
v -0.001081 0.004380 0.062695
v -0.000993 0.004555 0.063293
v -0.000779 0.004719 0.063861
v -0.000448 0.004866 0.064371
v -0.000014 0.004991 0.064803
v 0.000502 0.005087 0.065141
v 0.001079 0.005152 0.065369
v 0.001691 0.005183 0.065478
v 0.002314 0.005177 0.065465
v 0.002918 0.005136 0.065326
v 0.003483 0.005061 0.065071
v 0.003980 0.004955 0.064710
v 0.004390 0.004824 0.064258
v 0.004693 0.004671 0.063732
v 0.004878 0.004504 0.063159
v 0.004936 0.004329 0.062558
v 0.005324 0.001816 0.062507
v 0.005081 0.001625 0.061847
v 0.004702 0.001452 0.061250
v 0.004202 0.001305 0.060740
v 0.003602 0.001189 0.060340
v 0.002928 0.001111 0.060069
v 0.002209 0.001074 0.059937
v 0.001477 0.001081 0.059953
v 0.000765 0.001128 0.060116
v 0.000103 0.001218 0.060415
v -0.000478 0.001343 0.060841
v -0.000954 0.001499 0.061374
v -0.001304 0.001678 0.061989
v -0.001514 0.001874 0.062660
v -0.001575 0.002077 0.063358
v -0.001470 0.002290 0.064089
v -0.001213 0.002481 0.064747
v -0.000823 0.002650 0.065333
v -0.000317 0.002793 0.065829
v 0.000282 0.002904 0.066214
v 0.000946 0.002978 0.066471
v 0.001652 0.003013 0.066594
v 0.002367 0.003006 0.066578
v 0.003064 0.002959 0.066421
v 0.003715 0.002873 0.066132
v 0.004291 0.002753 0.065721
v 0.004769 0.002602 0.065203
v 0.005128 0.002426 0.064600
v 0.005351 0.002232 0.063936
v 0.005420 0.002017 0.063199
v 0.005086 0.004075 0.061928
v 0.005166 0.004263 0.062574
v 0.005105 0.004451 0.063221
v 0.004907 0.004631 0.063840
v 0.004580 0.004797 0.064404
v 0.004138 0.004939 0.064890
v 0.003603 0.005053 0.065280
v 0.002996 0.005134 0.065554
v 0.002343 0.005179 0.065702
v 0.001673 0.005184 0.065719
v 0.001013 0.005152 0.065601
v 0.000392 0.005081 0.065355
v -0.000164 0.004977 0.064993
v -0.000631 0.004841 0.064525
v -0.000988 0.004682 0.063976
v -0.001219 0.004505 0.063365
v -0.001313 0.004318 0.062720
v -0.001265 0.004129 0.062069
v -0.001076 0.003945 0.061443
v -0.000755 0.003777 0.060865
v -0.000314 0.003630 0.060364
v 0.000227 0.003512 0.059963
v 0.000844 0.003429 0.059679
v 0.001511 0.003383 0.059526
v 0.002196 0.003378 0.059512
v 0.002867 0.003413 0.059637
v 0.003496 0.003486 0.059893
v 0.004055 0.003594 0.060270
v 0.004520 0.003733 0.060751
v 0.004868 0.003896 0.061311
vn 0.972278 -0.019571 -0.233007
vn 0.904034 -0.075958 -0.420658
vn 0.793855 0.361675 -0.488861
vn 0.849358 0.416287 -0.324495
vn 0.796399 -0.126922 -0.591303
vn 0.701784 0.313208 -0.639844
vn 0.653553 -0.170407 -0.737448
vn 0.577690 0.271640 -0.769731
vn 0.481736 -0.204593 -0.852099
vn 0.427827 0.238190 -0.871912
vn 0.288688 -0.227776 -0.929934
vn 0.257332 0.215305 -0.942032
vn 0.082555 -0.238730 -0.967571
vn 0.074310 0.204190 -0.976107
vn -0.127671 -0.237192 -0.963037
vn -0.111867 0.205492 -0.972244
vn -0.331904 -0.223194 -0.916529
vn -0.293389 0.219574 -0.930436
vn -0.521277 -0.196819 -0.830381
vn -0.461144 0.245101 -0.852803
vn -0.687640 -0.159613 -0.708290
vn -0.606549 0.280122 -0.744063
vn -0.823221 -0.113654 -0.556228
vn -0.723972 0.324271 -0.608862
vn -0.922925 -0.060603 -0.380180
vn -0.808172 0.375633 -0.453606
vn -0.982016 -0.002846 -0.188777
vn -0.855865 0.430987 -0.285911
vn -0.998259 0.057040 0.015045
vn -0.865886 0.487425 -0.112511
vn -0.968907 0.116246 0.218419
vn -0.839553 0.539810 0.061288
vn -0.894751 0.172114 0.412065
vn -0.779588 0.583205 0.228287
vn -0.783998 0.219100 0.580812
vn -0.686896 0.619485 0.380016
vn -0.640286 0.258393 0.723372
vn -0.563545 0.650195 0.509572
vn -0.469303 0.288727 0.834501
vn -0.414798 0.674483 0.610751
vn -0.278455 0.308764 0.909466
vn -0.247100 0.689707 0.680622
vn -0.077127 0.317898 0.944983
vn -0.068290 0.696488 0.714311
vn 0.128064 0.315913 0.940106
vn 0.114444 0.694250 0.710577
vn 0.327717 0.303116 0.894831
vn 0.292441 0.683750 0.668554
vn 0.513100 0.279940 0.811395
vn 0.455886 0.664819 0.591764
vn 0.677948 0.246492 0.692552
vn 0.598769 0.638661 0.483310
vn 0.813888 0.204700 0.543768
vn 0.715878 0.604820 0.348872
vn 0.915312 0.156444 0.371119
vn 0.800407 0.567586 0.192859
vn 0.979641 0.099526 0.174352
vn 0.850831 0.524929 0.023166
vn 0.998748 0.039896 -0.030169
vn 0.867898 0.472933 -0.151944
vn 0.002506 0.959996 -0.280001
vn 0.002329 0.959920 -0.280265
vn 0.001886 0.960188 -0.279350
vn 0.002291 0.959857 -0.280481
vn 0.002363 0.959897 -0.280344
vn 0.002325 0.959882 -0.280395
vn 0.002029 0.959863 -0.280464
vn 0.001833 0.959837 -0.280554
vn 0.001682 0.959852 -0.280502
vn 0.001660 0.959835 -0.280563
vn 0.001599 0.959866 -0.280453
vn 0.001331 0.959904 -0.280326
vn 0.001411 0.959884 -0.280393
vn 0.001330 0.959936 -0.280218
vn 0.001236 0.960019 -0.279934
vn 0.001212 0.960061 -0.279789
vn 0.001434 0.960329 -0.278867
vn 0.001558 0.960535 -0.278157
vn 0.001331 0.960428 -0.278524
vn 0.001439 0.960438 -0.278489
vn 0.001899 0.960528 -0.278176
vn 0.001962 0.960549 -0.278104
vn 0.002498 0.960550 -0.278097
vn 0.002491 0.960591 -0.277954
vn 0.001726 0.960624 -0.277847
vn 0.002107 0.960554 -0.278085
vn 0.002176 0.960576 -0.278008
vn 0.001866 0.960652 -0.277749
vn 0.002127 0.960489 -0.278309
vn 0.002407 0.960243 -0.279156
vn 0.002467 0.960039 -0.279856
vn 0.972845 -0.065069 -0.222123
vn 0.904180 -0.119913 -0.409975
vn 0.796312 -0.169709 -0.580591
vn 0.653271 -0.212108 -0.726806
vn 0.481411 -0.245229 -0.841491
vn 0.288466 -0.267682 -0.919312
vn 0.082520 -0.278329 -0.956935
vn -0.127812 -0.276884 -0.952365
vn -0.331907 -0.263162 -0.905861
vn -0.521088 -0.237465 -0.819804
vn -0.687572 -0.201156 -0.697697
vn -0.823376 -0.156307 -0.545545
vn -0.923361 -0.104727 -0.369372
vn -0.982884 -0.048665 -0.177681
vn -0.999586 0.010357 0.026863
vn -0.969865 0.070058 0.233355
vn -0.895080 0.126810 0.427494
vn -0.783863 0.175600 0.595587
vn -0.639939 0.216458 0.737309
vn -0.468920 0.247840 0.847756
vn -0.278190 0.268763 0.922159
vn -0.077024 0.278632 0.957304
vn 0.127882 0.276946 0.952338
vn 0.327257 0.263788 0.907369
vn 0.512554 0.239603 0.824548
vn 0.677531 0.204907 0.706375
vn 0.813709 0.161729 0.558321
vn 0.915526 0.111616 0.386464
vn 0.980454 0.053606 0.189304
vn 0.999806 -0.006554 -0.018559
vn 0.449493 0.823592 -0.345908
vn 0.461460 0.850006 -0.254056
vn 0.453410 0.876489 -0.161821
vn 0.425107 0.902102 -0.074141
vn 0.378039 0.925772 0.005680
vn 0.314880 0.946268 0.073675
vn 0.238767 0.962608 0.127967
vn 0.152784 0.974193 0.166149
vn 0.060505 0.980473 0.187113
vn -0.034441 0.981248 0.189649
vn -0.127743 0.976491 0.173630
vn -0.215521 0.966526 0.139208
vn -0.294585 0.951493 0.088771
vn -0.361024 0.932273 0.023009
vn -0.412023 0.909527 -0.054747
vn -0.445082 0.884272 -0.141297
vn -0.458553 0.857558 -0.233075
vn -0.451262 0.830873 -0.325595
vn -0.424045 0.805221 -0.414493
vn -0.378105 0.781663 -0.496024
vn -0.315414 0.761146 -0.566720
vn -0.238662 0.745238 -0.622625
vn -0.151292 0.733594 -0.662534
vn -0.056733 0.726573 -0.684743
vn 0.039920 0.726132 -0.686395
vn 0.134646 0.731409 -0.668514
vn 0.223781 0.741419 -0.632630
vn 0.302842 0.756513 -0.579633
vn 0.368662 0.775629 -0.512336
vn 0.418263 0.798450 -0.433051
vn 0.273937 0.904169 -0.327777
vn 0.282959 0.919859 -0.271651
vn 0.278717 0.935956 -0.215183
vn 0.259637 0.951960 -0.162364
vn 0.228539 0.966671 -0.115398
vn 0.189105 0.979037 -0.075667
vn 0.143069 0.988734 -0.043997
vn 0.091673 0.995548 -0.021945
vn 0.036648 0.999283 -0.009567
vn -0.019967 0.999777 -0.006833
vn -0.075577 0.997020 -0.015447
vn -0.128788 0.991043 -0.035315
vn -0.177000 0.982057 -0.065078
vn -0.217530 0.970485 -0.104114
vn -0.249608 0.956573 -0.150545
vn -0.270874 0.941014 -0.202781
vn -0.278460 0.924859 -0.259029
vn -0.272965 0.908848 -0.315414
vn -0.255839 0.893470 -0.369132
vn -0.226587 0.879944 -0.417560
vn -0.187991 0.868082 -0.459449
vn -0.142046 0.858430 -0.492870
vn -0.089505 0.852054 -0.515745
vn -0.033036 0.848387 -0.528344
vn 0.024721 0.847516 -0.530194
vn 0.081333 0.850250 -0.520058
vn 0.134897 0.856254 -0.498630
vn 0.182616 0.864979 -0.467400
vn 0.222562 0.876172 -0.427539
vn 0.253589 0.889438 -0.380253
vt 0.783132 0.728486
vt 0.782461 0.734557
vt 0.779966 0.734015
vt 0.780572 0.728470
vt 0.780539 0.740368
vt 0.778218 0.739324
vt 0.777443 0.745662
vt 0.775395 0.744162
vt 0.773307 0.750204
vt 0.771619 0.748314
vt 0.768305 0.753787
vt 0.767051 0.751590
vt 0.762658 0.756247
vt 0.761890 0.753839
vt 0.756614 0.757470
vt 0.756368 0.754957
vt 0.750445 0.757396
vt 0.750732 0.754884
vt 0.744430 0.756030
vt 0.745237 0.753630
vt 0.738837 0.753437
vt 0.740130 0.751253
vt 0.733913 0.749733
vt 0.735639 0.747864
vt 0.729875 0.745088
vt 0.731960 0.743615
vt 0.726897 0.739708
vt 0.729253 0.738699
vt 0.725107 0.733832
vt 0.727634 0.733334
vt 0.724591 0.727719
vt 0.727171 0.727760
vt 0.725380 0.721648
vt 0.727881 0.722224
vt 0.727404 0.715887
vt 0.729721 0.716965
vt 0.730567 0.710681
vt 0.732602 0.712209
vt 0.734725 0.706247
vt 0.736395 0.708156
vt 0.739697 0.702766
vt 0.740936 0.704973
vt 0.745274 0.700382
vt 0.746032 0.702792
vt 0.751227 0.699191
vt 0.751470 0.701706
vt 0.757318 0.699232
vt 0.757013 0.701785
vt 0.763254 0.700603
vt 0.762423 0.702999
vt 0.768777 0.703140
vt 0.767465 0.705318
vt 0.773664 0.706760
vt 0.771922 0.708626
vt 0.777701 0.711317
vt 0.775600 0.712788
vt 0.780710 0.716614
vt 0.778339 0.717623
vt 0.782518 0.722426
vt 0.780028 0.722924
vt 0.777255 0.728439
vt 0.776724 0.733301
vt 0.753851 0.728054
vt 0.775194 0.737955
vt 0.772724 0.742197
vt 0.769414 0.745835
vt 0.765411 0.748705
vt 0.760889 0.750675
vt 0.756052 0.751652
vt 0.751116 0.751587
vt 0.746303 0.750486
vt 0.741830 0.748402
vt 0.737898 0.745430
vt 0.734678 0.741707
vt 0.732310 0.737399
vt 0.730895 0.732702
vt 0.730492 0.727822
vt 0.731114 0.722975
vt 0.732724 0.718371
vt 0.735247 0.714206
vt 0.738570 0.710654
vt 0.742549 0.707865
vt 0.747013 0.705955
vt 0.751772 0.705008
vt 0.756622 0.705073
vt 0.761356 0.706140
vt 0.765767 0.708167
vt 0.769667 0.711064
vt 0.772889 0.714704
vt 0.775292 0.718936
vt 0.776771 0.723580
vt 0.174863 0.050804
vt 0.181665 0.050812
vt 0.181496 0.068574
vt 0.174668 0.068566
vt 0.188473 0.050820
vt 0.188331 0.068582
vt 0.195288 0.050829
vt 0.195173 0.068591
vt 0.202112 0.050839
vt 0.202023 0.068601
vt 0.208942 0.050849
vt 0.208878 0.068611
vt 0.215777 0.050858
vt 0.215738 0.068621
vt 0.222616 0.050868
vt 0.222602 0.068630
vt 0.018325 0.050882
vt 0.025165 0.050871
vt 0.025230 0.068633
vt 0.018365 0.068644
vt 0.032004 0.050859
vt 0.032094 0.068622
vt 0.038840 0.050849
vt 0.038955 0.068611
vt 0.045671 0.050838
vt 0.045811 0.068600
vt 0.052497 0.050828
vt 0.052663 0.068590
vt 0.059318 0.050819
vt 0.059508 0.068581
vt 0.066134 0.050812
vt 0.066349 0.068573
vt 0.073318 0.050806
vt 0.073181 0.068568
vt 0.080148 0.050801
vt 0.079997 0.068564
vt 0.086921 0.050799
vt 0.086790 0.068561
vt 0.093668 0.050797
vt 0.093563 0.068559
vt 0.100393 0.050795
vt 0.100316 0.068558
vt 0.107100 0.050794
vt 0.107054 0.068557
vt 0.113795 0.050794
vt 0.113781 0.068556
vt 0.120485 0.050793
vt 0.120505 0.068555
vt 0.127175 0.050792
vt 0.127229 0.068554
vt 0.133873 0.050791
vt 0.133958 0.068553
vt 0.140585 0.050790
vt 0.140698 0.068553
vt 0.147316 0.050791
vt 0.147456 0.068553
vt 0.154071 0.050792
vt 0.154234 0.068554
vt 0.160872 0.050794
vt 0.161032 0.068556
vt 0.168066 0.050798
vt 0.167846 0.068560
vt 0.779130 0.728456
vt 0.778613 0.723209
vt 0.777015 0.718192
vt 0.774421 0.713619
vt 0.770940 0.709687
vt 0.766727 0.706557
vt 0.761959 0.704365
vt 0.756844 0.703215
vt 0.751602 0.703142
vt 0.746460 0.704168
vt 0.741638 0.706231
vt 0.737341 0.709242
vt 0.733752 0.713077
vt 0.731027 0.717576
vt 0.729286 0.722550
vt 0.728614 0.727786
vt 0.729051 0.733059
vt 0.730581 0.738133
vt 0.733141 0.742785
vt 0.736620 0.746805
vt 0.740869 0.750013
vt 0.745700 0.752263
vt 0.750898 0.753450
vt 0.756230 0.753520
vt 0.761454 0.752463
vt 0.766337 0.750335
vt 0.770660 0.747237
vt 0.774235 0.743309
vt 0.776904 0.738729
vt 0.778557 0.733704
f 1/1/1 2/2/2 3/3/3 4/4/4
f 2/2/2 5/5/5 6/6/6 3/3/3
f 5/5/5 7/7/7 8/8/8 6/6/6
f 7/7/7 9/9/9 10/10/10 8/8/8
f 9/9/9 11/11/11 12/12/12 10/10/10
f 11/11/11 13/13/13 14/14/14 12/12/12
f 13/13/13 15/15/15 16/16/16 14/14/14
f 15/15/15 17/17/17 18/18/18 16/16/16
f 17/17/17 19/19/19 20/20/20 18/18/18
f 19/19/19 21/21/21 22/22/22 20/20/20
f 21/21/21 23/23/23 24/24/24 22/22/22
f 23/23/23 25/25/25 26/26/26 24/24/24
f 25/25/25 27/27/27 28/28/28 26/26/26
f 27/27/27 29/29/29 30/30/30 28/28/28
f 29/29/29 31/31/31 32/32/32 30/30/30
f 31/31/31 33/33/33 34/34/34 32/32/32
f 33/33/33 35/35/35 36/36/36 34/34/34
f 35/35/35 37/37/37 38/38/38 36/36/36
f 37/37/37 39/39/39 40/40/40 38/38/38
f 39/39/39 41/41/41 42/42/42 40/40/40
f 41/41/41 43/43/43 44/44/44 42/42/42
f 43/43/43 45/45/45 46/46/46 44/44/44
f 45/45/45 47/47/47 48/48/48 46/46/46
f 47/47/47 49/49/49 50/50/50 48/48/48
f 49/49/49 51/51/51 52/52/52 50/50/50
f 51/51/51 53/53/53 54/54/54 52/52/52
f 53/53/53 55/55/55 56/56/56 54/54/54
f 55/55/55 57/57/57 58/58/58 56/56/56
f 57/57/57 59/59/59 60/60/60 58/58/58
f 59/59/59 1/1/1 4/4/4 60/60/60
f 61/61/61 62/62/62 63/63/63
f 62/62/62 64/64/64 63/63/63
f 64/64/64 65/65/65 63/63/63
f 65/65/65 66/66/66 63/63/63
f 66/66/66 67/67/67 63/63/63
f 67/67/67 68/68/68 63/63/63
f 68/68/68 69/69/69 63/63/63
f 69/69/69 70/70/70 63/63/63
f 70/70/70 71/71/71 63/63/63
f 71/71/71 72/72/72 63/63/63
f 72/72/72 73/73/73 63/63/63
f 73/73/73 74/74/74 63/63/63
f 74/74/74 75/75/75 63/63/63
f 75/75/75 76/76/76 63/63/63
f 76/76/76 77/77/77 63/63/63
f 77/77/77 78/78/78 63/63/63
f 78/78/78 79/79/79 63/63/63
f 79/79/79 80/80/80 63/63/63
f 80/80/80 81/81/81 63/63/63
f 81/81/81 82/82/82 63/63/63
f 82/82/82 83/83/83 63/63/63
f 83/83/83 84/84/84 63/63/63
f 84/84/84 85/85/85 63/63/63
f 85/85/85 86/86/86 63/63/63
f 86/86/86 87/87/87 63/63/63
f 87/87/87 88/88/88 63/63/63
f 88/88/88 89/89/89 63/63/63
f 89/89/89 90/90/90 63/63/63
f 90/90/90 91/91/91 63/63/63
f 91/91/91 61/61/61 63/63/63
f 92/92/92 93/93/93 2/94/2 1/95/1
f 93/93/93 94/96/94 5/97/5 2/94/2
f 94/96/94 95/98/95 7/99/7 5/97/5
f 95/98/95 96/100/96 9/101/9 7/99/7
f 96/100/96 97/102/97 11/103/11 9/101/9
f 97/102/97 98/104/98 13/105/13 11/103/11
f 98/104/98 99/106/99 15/107/15 13/105/13
f 99/108/99 100/109/100 17/110/17 15/111/15
f 100/109/100 101/112/101 19/113/19 17/110/17
f 101/112/101 102/114/102 21/115/21 19/113/19
f 102/114/102 103/116/103 23/117/23 21/115/21
f 103/116/103 104/118/104 25/119/25 23/117/23
f 104/118/104 105/120/105 27/121/27 25/119/25
f 105/120/105 106/122/106 29/123/29 27/121/27
f 106/122/106 107/124/107 31/125/31 29/123/29
f 107/124/107 108/126/108 33/127/33 31/125/31
f 108/126/108 109/128/109 35/129/35 33/127/33
f 109/128/109 110/130/110 37/131/37 35/129/35
f 110/130/110 111/132/111 39/133/39 37/131/37
f 111/132/111 112/134/112 41/135/41 39/133/39
f 112/134/112 113/136/113 43/137/43 41/135/41
f 113/136/113 114/138/114 45/139/45 43/137/43
f 114/138/114 115/140/115 47/141/47 45/139/45
f 115/140/115 116/142/116 49/143/49 47/141/47
f 116/142/116 117/144/117 51/145/51 49/143/49
f 117/144/117 118/146/118 53/147/53 51/145/51
f 118/146/118 119/148/119 55/149/55 53/147/53
f 119/148/119 120/150/120 57/151/57 55/149/55
f 120/150/120 121/152/121 59/153/59 57/151/57
f 121/152/121 92/92/92 1/95/1 59/153/59
f 60/60/60 4/4/4 122/154/122 123/155/123
f 58/58/58 60/60/60 123/155/123 124/156/124
f 56/56/56 58/58/58 124/156/124 125/157/125
f 54/54/54 56/56/56 125/157/125 126/158/126
f 52/52/52 54/54/54 126/158/126 127/159/127
f 50/50/50 52/52/52 127/159/127 128/160/128
f 48/48/48 50/50/50 128/160/128 129/161/129
f 46/46/46 48/48/48 129/161/129 130/162/130
f 44/44/44 46/46/46 130/162/130 131/163/131
f 42/42/42 44/44/44 131/163/131 132/164/132
f 40/40/40 42/42/42 132/164/132 133/165/133
f 38/38/38 40/40/40 133/165/133 134/166/134
f 36/36/36 38/38/38 134/166/134 135/167/135
f 34/34/34 36/36/36 135/167/135 136/168/136
f 32/32/32 34/34/34 136/168/136 137/169/137
f 30/30/30 32/32/32 137/169/137 138/170/138
f 28/28/28 30/30/30 138/170/138 139/171/139
f 26/26/26 28/28/28 139/171/139 140/172/140
f 24/24/24 26/26/26 140/172/140 141/173/141
f 22/22/22 24/24/24 141/173/141 142/174/142
f 20/20/20 22/22/22 142/174/142 143/175/143
f 18/18/18 20/20/20 143/175/143 144/176/144
f 16/16/16 18/18/18 144/176/144 145/177/145
f 14/14/14 16/16/16 145/177/145 146/178/146
f 12/12/12 14/14/14 146/178/146 147/179/147
f 10/10/10 12/12/12 147/179/147 148/180/148
f 8/8/8 10/10/10 148/180/148 149/181/149
f 6/6/6 8/8/8 149/181/149 150/182/150
f 3/3/3 6/6/6 150/182/150 151/183/151
f 4/4/4 3/3/3 151/183/151 122/154/122
f 123/155/123 122/154/122 61/61/152 91/91/153
f 124/156/124 123/155/123 91/91/153 90/90/154
f 125/157/125 124/156/124 90/90/154 89/89/155
f 126/158/126 125/157/125 89/89/155 88/88/156
f 127/159/127 126/158/126 88/88/156 87/87/157
f 128/160/128 127/159/127 87/87/157 86/86/158
f 129/161/129 128/160/128 86/86/158 85/85/159
f 130/162/130 129/161/129 85/85/159 84/84/160
f 131/163/131 130/162/130 84/84/160 83/83/161
f 132/164/132 131/163/131 83/83/161 82/82/162
f 133/165/133 132/164/132 82/82/162 81/81/163
f 134/166/134 133/165/133 81/81/163 80/80/164
f 135/167/135 134/166/134 80/80/164 79/79/165
f 136/168/136 135/167/135 79/79/165 78/78/166
f 137/169/137 136/168/136 78/78/166 77/77/167
f 138/170/138 137/169/137 77/77/167 76/76/168
f 139/171/139 138/170/138 76/76/168 75/75/169
f 140/172/140 139/171/139 75/75/169 74/74/170
f 141/173/141 140/172/140 74/74/170 73/73/171
f 142/174/142 141/173/141 73/73/171 72/72/172
f 143/175/143 142/174/142 72/72/172 71/71/173
f 144/176/144 143/175/143 71/71/173 70/70/174
f 145/177/145 144/176/144 70/70/174 69/69/175
f 146/178/146 145/177/145 69/69/175 68/68/176
f 147/179/147 146/178/146 68/68/176 67/67/177
f 148/180/148 147/179/147 67/67/177 66/66/178
f 149/181/149 148/180/148 66/66/178 65/65/179
f 150/182/150 149/181/149 65/65/179 64/64/180
f 151/183/151 150/182/150 64/64/180 62/62/181
f 122/154/122 151/183/151 62/62/181 61/61/152
