#
#
#

mtllib RB.mtl


#
# RB Mesh
#
g RB Mesh


#
# RB Mesh_Phx_Controller_R:RBodySG
#
usemtl RB Mesh_Phx_Controller_R:RBodySG

v -0.011701 0.002088 0.044849
v -0.012560 0.002196 0.045036
v -0.012017 0.003413 0.045894
v -0.010774 0.003290 0.045681
v -0.008380 0.003798 0.046560
v -0.008907 0.002224 0.045085
v -0.009479 0.003435 0.045932
v -0.007693 0.004329 0.047479
v -0.006786 0.003129 0.046652
v -0.007404 0.005002 0.048646
v -0.006083 0.003998 0.048156
v -0.006829 0.005798 0.051274
v -0.006351 0.005391 0.050570
v -0.007674 0.005627 0.049728
v -0.008418 0.006199 0.050719
v -0.009901 0.006807 0.053022
v -0.008996 0.006689 0.052818
v -0.009498 0.006547 0.051321
v -0.010828 0.006688 0.051565
v -0.012683 0.006674 0.052791
v -0.012120 0.006543 0.051315
v -0.013501 0.006434 0.052376
v -0.015520 0.004897 0.049714
v -0.015281 0.005355 0.050508
v -0.013923 0.005633 0.049738
v -0.014198 0.004975 0.048599
v -0.015235 0.003485 0.047268
v -0.013923 0.004345 0.047508
v -0.014774 0.003098 0.046598
v -0.008101 0.002461 0.045495
v -0.010815 0.006148 0.050028
v -0.010801 0.005372 0.048402
v -0.011459 0.006012 0.049793
v -0.009901 0.006807 0.053022
v -0.010837 0.006864 0.053121
v -0.010819 0.002074 0.055887
v -0.008164 0.006455 0.052412
v -0.008996 0.006689 0.052818
v -0.008954 0.001891 0.055569
v -0.010177 0.006019 0.049805
v -0.012082 0.005880 0.049564
v -0.012338 0.005564 0.049018
v -0.006829 0.005798 0.051274
v -0.007378 0.006154 0.051891
v -0.007383 0.001366 0.054660
v -0.009827 0.002096 0.044863
v -0.010721 0.002031 0.044750
v -0.006098 0.004935 0.049779
v -0.005968 0.004497 0.049022
v -0.006351 0.005391 0.050570
v -0.006829 0.001008 0.054040
v -0.009265 0.005565 0.049019
v -0.012598 0.005242 0.048460
v -0.012332 0.004928 0.047916
v -0.006083 0.003998 0.048156
v -0.005968 0.004497 0.049022
v -0.005968 -0.000320 0.051740
v -0.006786 0.003129 0.046652
v -0.006306 0.003559 0.047397
v -0.006320 -0.001247 0.050134
v -0.009269 0.004930 0.047919
v -0.012062 0.004609 0.047363
v -0.011410 0.004477 0.047135
v -0.008101 0.002461 0.045495
v -0.007343 0.002759 0.046010
v -0.007338 -0.002029 0.048780
v -0.014816 0.005766 0.051219
v -0.014251 0.006148 0.051881
v -0.013222 0.006181 0.050687
v -0.007343 0.002759 0.046010
v -0.009827 0.002096 0.044863
v -0.008907 0.002224 0.045085
v -0.008886 -0.002561 0.047858
v -0.010141 0.004488 0.047153
v -0.010787 0.004351 0.046916
v -0.011701 0.002088 0.044849
v -0.010721 0.002031 0.044750
v -0.010725 -0.002759 0.047516
v -0.013438 0.002440 0.045458
v -0.012560 0.002196 0.045036
v -0.012610 -0.002584 0.047819
v -0.009520 0.004619 0.047381
v -0.014774 0.003098 0.046598
v -0.014170 0.002715 0.045934
v -0.014188 -0.002067 0.048714
v -0.015634 0.004412 0.048873
v -0.011776 0.006799 0.053009
v -0.010837 0.006864 0.053121
v -0.015505 0.003961 0.048092
v -0.015235 0.003485 0.047268
v -0.015244 -0.001294 0.050052
v -0.009004 0.005257 0.048485
v -0.015520 0.004897 0.049714
v -0.015634 0.004412 0.048873
v -0.015635 -0.000366 0.051661
v -0.014816 0.005766 0.051219
v -0.015281 0.005355 0.050508
v -0.015291 0.000553 0.053251
v -0.009541 0.005890 0.049581
v -0.013501 0.006434 0.052376
v -0.014251 0.006148 0.051881
v -0.014249 0.001351 0.054634
v -0.013438 0.002440 0.045458
v -0.014170 0.002715 0.045934
v -0.013184 0.003778 0.046526
v -0.008164 0.006455 0.052412
v -0.007378 0.006154 0.051891
v -0.011776 0.006799 0.053009
v -0.012683 0.006674 0.052791
v -0.012683 0.001884 0.055557
v -0.006351 0.000601 0.053335
v -0.006098 0.004935 0.049779
v -0.006098 0.000145 0.052545
v -0.006083 -0.000792 0.050922
v -0.008164 0.001665 0.055178
v -0.009901 0.002017 0.055787
v -0.011776 0.002009 0.055774
v -0.013501 0.001644 0.055141
v -0.014816 0.000976 0.053984
v -0.015520 0.000107 0.052480
v -0.015505 -0.000829 0.050858
v -0.014774 -0.001692 0.049363
v -0.014170 0.002715 0.045934
v -0.013438 -0.002350 0.048223
v -0.011701 -0.002702 0.047615
v -0.009827 -0.002694 0.047628
v -0.008101 -0.002329 0.048261
v -0.006786 -0.001661 0.049418
v -0.015505 0.003961 0.048092
v -0.006306 0.003559 0.047397
v -0.014188 -0.002067 0.048714
vn -0.072539 0.600286 -0.796489
vn -0.148080 0.613263 -0.775874
vn -0.106685 0.692920 -0.713078
vn 0.004313 0.680712 -0.732539
vn 0.207982 0.724740 -0.656883
vn 0.160959 0.619584 -0.768250
vn 0.120218 0.692320 -0.711506
vn 0.269861 0.774319 -0.572367
vn 0.332945 0.687373 -0.645497
vn 0.293248 0.826926 -0.479790
vn 0.387400 0.758723 -0.523699
vn 0.327967 0.905124 -0.270534
vn 0.362268 0.869640 -0.335392
vn 0.272606 0.884047 -0.379666
vn 0.207654 0.931441 -0.298827
vn 0.076289 0.989292 -0.124425
vn 0.154022 0.976578 -0.150242
vn 0.112766 0.963862 -0.241357
vn -0.001201 0.974723 -0.223413
vn -0.153519 0.977431 -0.145120
vn -0.115568 0.962114 -0.246943
vn -0.218815 0.959940 -0.175028
vn -0.387819 0.833289 -0.393988
vn -0.358121 0.874805 -0.326291
vn -0.273139 0.883535 -0.380474
vn -0.294088 0.827612 -0.478090
vn -0.362149 0.718475 -0.593836
vn -0.267446 0.771286 -0.577573
vn -0.326564 0.685062 -0.651188
vn 0.213903 0.635731 -0.741682
vn -0.001809 0.928681 -0.370875
vn -0.000008 0.866034 -0.499985
vn -0.058991 0.919413 -0.388844
vn 0.186621 0.491381 0.850716
vn -0.007912 0.500149 0.865903
vn -0.007471 0.499822 0.866096
vn 0.552359 0.417207 0.721691
vn 0.374713 0.463980 0.802691
vn 0.375921 0.462914 0.802741
vn 0.045197 0.922436 -0.383496
vn -0.102311 0.907163 -0.408152
vn -0.128850 0.880495 -0.456209
vn 0.829550 0.279151 0.483654
vn 0.701530 0.356253 0.617203
vn 0.701351 0.356471 0.617280
vn 0.083485 0.602555 -0.793699
vn 0.004112 0.594702 -0.803936
vn 0.377600 0.841931 -0.385449
vn 0.398778 0.796326 -0.454797
vn 0.920703 0.195132 0.337978
vn 0.829291 0.279409 0.483950
vn 0.123159 0.887527 -0.443990
vn -0.142996 0.856723 -0.495558
vn -0.123147 0.828284 -0.546609
vn 0.984084 -0.088392 -0.154159
vn 0.999962 0.004842 0.007259
vn 0.999975 0.003054 0.006429
vn 0.839044 -0.271721 -0.471352
vn 0.927104 -0.187077 -0.324777
vn 0.926715 -0.188210 -0.325233
vn 0.129207 0.835278 -0.534430
vn -0.099888 0.805405 -0.584248
vn -0.045190 0.793987 -0.606253
vn 0.564592 -0.412741 -0.714759
vn 0.712809 -0.350737 -0.607360
vn 0.712925 -0.350561 -0.607326
vn -0.328529 0.901344 -0.282219
vn -0.282214 0.934210 -0.218192
vn -0.207898 0.931142 -0.299587
vn 0.284512 0.654485 -0.700501
vn 0.208413 -0.489225 -0.846890
vn 0.389285 -0.460769 -0.797590
vn 0.389914 -0.460208 -0.797606
vn 0.058988 0.796495 -0.601761
vn 0.002521 0.785544 -0.618801
vn -0.176737 -0.492097 -0.852411
vn 0.008288 -0.499948 -0.866016
vn 0.008226 -0.500018 -0.865976
vn -0.541831 -0.419785 -0.728148
vn -0.374549 -0.463118 -0.803265
vn -0.375965 -0.463808 -0.802205
vn 0.101700 0.806966 -0.581776
vn -0.822609 -0.284087 -0.492553
vn -0.701329 -0.356200 -0.617461
vn -0.701834 -0.356388 -0.616779
vn -0.398726 0.792324 -0.461779
vn -0.081983 0.988821 -0.124546
vn -0.002927 0.993573 -0.113153
vn -0.977672 -0.104913 -0.182072
vn -0.920688 -0.194999 -0.338096
vn -0.920964 -0.195111 -0.337279
vn 0.143005 0.857079 -0.494939
vn -0.982844 0.092441 0.159603
vn -0.999966 -0.003915 -0.007310
vn -0.999972 -0.004001 -0.006390
vn -0.838758 0.272015 0.471691
vn -0.926638 0.187735 0.325727
vn -0.926917 0.187884 0.324845
vn 0.100748 0.907795 -0.407133
vn -0.557487 0.414209 0.719471
vn -0.711859 0.350076 0.608855
vn -0.712590 0.349892 0.608105
vn -0.212237 0.629666 -0.747313
vn -0.279384 0.651875 -0.704985
vn -0.205414 0.722936 -0.659673
vn 0.208660 0.961884 -0.176749
vn 0.280315 0.935992 -0.212937
vn -0.202444 0.489649 0.848092
vn -0.390143 0.460378 0.797396
vn -0.389982 0.460410 0.797457
vn 0.977825 0.104712 0.181367
vn 0.978930 0.101600 0.177125
vn 0.982607 -0.093175 -0.160630
vn 0.555369 0.415862 0.720156
vn 0.192472 0.490253 0.850063
vn -0.200804 0.489656 0.848478
vn -0.562392 0.413434 0.716092
vn -0.837755 0.272334 0.473288
vn -0.982879 0.092370 0.159427
vn -0.978531 -0.103280 -0.178354
vn -0.825362 -0.282572 -0.488805
vn -0.701299 -0.356205 -0.617493
vn -0.548218 -0.418390 -0.724159
vn -0.182272 -0.492109 -0.851238
vn 0.210054 -0.488878 -0.846685
vn 0.566875 -0.411694 -0.713555
vn 0.837591 -0.273091 -0.473141
vn -0.386974 0.753433 -0.531592
vn 0.366056 0.722920 -0.585995
vn -0.701847 -0.356385 -0.616766
vt 0.888506 0.443488
vt 0.886093 0.447041
vt 0.880534 0.442123
vt 0.883598 0.436984
vt 0.882892 0.424729
vt 0.891796 0.430286
vt 0.884365 0.430772
vt 0.879273 0.419986
vt 0.887015 0.417696
vt 0.873749 0.416568
vt 0.880253 0.411665
vt 0.862662 0.409176
vt 0.867151 0.408358
vt 0.867763 0.415784
vt 0.861505 0.417254
vt 0.851668 0.420484
vt 0.853749 0.416557
vt 0.856697 0.420946
vt 0.853325 0.426398
vt 0.846267 0.432983
vt 0.852538 0.432594
vt 0.845945 0.437497
vt 0.856633 0.451725
vt 0.852866 0.449112
vt 0.857777 0.443516
vt 0.863178 0.446834
vt 0.870018 0.455019
vt 0.869219 0.447630
vt 0.874324 0.454204
vt 0.890933 0.425864
vt 0.860515 0.428922
vt 0.868458 0.431707
vt 0.860695 0.432190
vt 0.871358 0.358414
vt 0.869953 0.362632
vt 0.845222 0.354309
vt 0.874174 0.349954
vt 0.872751 0.354228
vt 0.848060 0.345783
vt 0.862662 0.426515
vt 0.860878 0.435352
vt 0.863258 0.437482
vt 0.876990 0.341496
vt 0.875650 0.345521
vt 0.850882 0.337308
vt 0.891496 0.434903
vt 0.890600 0.439188
vt 0.871694 0.408709
vt 0.875878 0.409554
vt 0.878395 0.337275
vt 0.852233 0.333253
vt 0.868102 0.423935
vt 0.865689 0.439648
vt 0.868879 0.439473
vt 0.882623 0.324578
vt 0.881125 0.329077
vt 0.856447 0.320595
vt 0.885440 0.316117
vt 0.883973 0.320525
vt 0.859267 0.312124
vt 0.873699 0.425956
vt 0.872117 0.439288
vt 0.874312 0.436834
vt 0.888256 0.307657
vt 0.886820 0.311972
vt 0.862053 0.303758
vt 0.849910 0.445655
vt 0.847364 0.441827
vt 0.854015 0.438648
vt 0.889447 0.421454
vt 0.891072 0.299198
vt 0.889649 0.303472
vt 0.864858 0.295330
vt 0.876221 0.431200
vt 0.876406 0.434482
vt 0.893888 0.290740
vt 0.892419 0.295155
vt 0.867667 0.286896
vt 0.896705 0.282281
vt 0.895209 0.286774
vt 0.870530 0.278292
vt 0.876038 0.428049
vt 0.854438 0.409174
vt 0.852972 0.413572
vt 0.828264 0.405177
vt 0.860897 0.453811
vt 0.847701 0.429115
vt 0.849747 0.424510
vt 0.857259 0.400716
vt 0.855783 0.405143
vt 0.831064 0.396783
vt 0.871235 0.423760
vt 0.860080 0.392260
vt 0.858620 0.396639
vt 0.833904 0.388270
vt 0.862901 0.383805
vt 0.861493 0.388027
vt 0.836700 0.379889
vt 0.864805 0.424123
vt 0.865725 0.375332
vt 0.864321 0.379548
vt 0.839551 0.371341
vt 0.882450 0.450277
vt 0.878711 0.452704
vt 0.875427 0.446146
vt 0.855755 0.413135
vt 0.858534 0.410549
vt 0.868541 0.366873
vt 0.867137 0.371087
vt 0.842380 0.362844
vt 0.853637 0.329032
vt 0.879807 0.333037
vt 0.855049 0.324793
vt 0.857866 0.316334
vt 0.849416 0.341711
vt 0.846600 0.350171
vt 0.843783 0.358630
vt 0.840967 0.367089
vt 0.838148 0.375548
vt 0.835327 0.384004
vt 0.832506 0.392462
vt 0.829684 0.400921
vt 0.898069 0.278183
vt 0.871947 0.274039
vt 0.869131 0.282497
vt 0.866315 0.290955
vt 0.863498 0.299415
vt 0.860681 0.307875
vt 0.865224 0.454726
vt 0.883863 0.414131
vt 0.873347 0.269832
f 1/1/1 2/2/2 3/3/3
f 4/4/4 1/1/1 3/3/3
f 5/5/5 6/6/6 7/7/7
f 5/5/5 8/8/8 9/9/9
f 10/10/10 11/11/11 8/8/8
f 12/12/12 13/13/13 14/14/14
f 15/15/15 12/12/12 14/14/14
f 16/16/16 17/17/17 18/18/18
f 19/19/19 16/16/16 18/18/18
f 20/20/20 21/21/21 22/22/22
f 23/23/23 24/24/24 25/25/25
f 26/26/26 23/23/23 25/25/25
f 27/27/27 28/28/28 29/29/29
f 30/30/30 6/6/6 5/5/5
f 31/31/31 32/32/32 33/33/33
f 34/34/34 35/35/35 36/36/36
f 37/37/37 38/38/38 39/39/39
f 19/19/19 18/18/18 40/40/40
f 41/41/41 32/32/32 42/42/42
f 43/43/43 44/44/44 45/45/45
f 46/46/46 47/47/47 4/4/4
f 48/48/48 49/49/49 10/10/10
f 50/50/50 43/43/43 51/51/51
f 15/15/15 14/14/14 52/52/52
f 53/53/53 32/32/32 54/54/54
f 55/55/55 56/56/56 57/57/57
f 58/58/58 59/59/59 60/60/60
f 10/10/10 8/8/8 61/61/61
f 62/62/62 32/32/32 63/63/63
f 64/64/64 65/65/65 66/66/66
f 67/67/67 68/68/68 69/69/69
f 30/30/30 5/5/5 70/70/70
f 71/71/71 72/72/72 73/73/73
f 5/5/5 7/7/7 74/74/74
f 7/7/7 4/4/4 75/75/75
f 76/76/76 77/77/77 78/78/78
f 79/79/79 80/80/80 81/81/81
f 63/63/63 32/32/32 75/75/75
f 8/8/8 5/5/5 82/82/82
f 83/83/83 84/84/84 85/85/85
f 23/23/23 26/26/26 86/86/86
f 87/87/87 88/88/88 19/19/19
f 89/89/89 90/90/90 91/91/91
f 54/54/54 32/32/32 62/62/62
f 14/14/14 10/10/10 92/92/92
f 93/93/93 94/94/94 95/95/95
f 96/96/96 97/97/97 98/98/98
f 42/42/42 32/32/32 53/53/53
f 18/18/18 15/15/15 99/99/99
f 100/100/100 101/101/101 102/102/102
f 103/103/103 104/104/104 105/105/105
f 106/106/106 107/107/107 15/15/15
f 108/108/108 109/109/109 110/110/110
f 33/33/33 32/32/32 41/41/41
f 50/50/50 111/111/50 112/112/111
f 56/56/56 112/112/111 113/113/112
f 59/59/59 55/55/55 114/114/113
f 44/44/44 37/37/37 115/115/114
f 38/38/38 34/34/34 116/116/115
f 35/35/35 108/108/108 117/117/116
f 109/109/109 100/100/100 118/118/117
f 101/101/101 96/96/96 119/119/118
f 97/97/97 93/93/93 120/120/119
f 94/94/94 89/89/89 121/121/120
f 90/90/90 83/83/83 122/122/121
f 123/123/122 79/79/79 124/124/123
f 80/80/80 76/76/76 125/125/124
f 77/77/77 71/71/71 126/126/125
f 72/72/72 64/64/64 127/127/126
f 65/65/65 58/58/58 128/128/127
f 15/15/15 107/107/107 12/12/12
f 10/10/10 49/49/49 11/11/11
f 3/3/3 105/105/105 62/62/62
f 4/4/4 3/3/3 63/63/63
f 28/28/28 26/26/26 53/53/53
f 105/105/105 28/28/28 54/54/54
f 25/25/25 69/69/69 41/41/41
f 26/26/26 25/25/25 42/42/42
f 21/21/21 19/19/19 31/31/31
f 69/69/69 21/21/21 33/33/33
f 40/40/40 32/32/32 31/31/31
f 99/99/99 32/32/32 40/40/40
f 52/52/52 32/32/32 99/99/99
f 92/92/92 32/32/32 52/52/52
f 61/61/61 32/32/32 92/92/92
f 82/82/82 32/32/32 61/61/61
f 74/74/74 32/32/32 82/82/82
f 75/75/75 32/32/32 74/74/74
f 27/27/27 129/129/128 28/28/28
f 28/28/28 129/129/128 26/26/26
f 86/86/86 26/26/26 129/129/128
f 67/67/67 69/69/69 24/24/24
f 25/25/25 24/24/24 69/69/69
f 69/69/69 68/68/68 22/22/22
f 20/20/20 87/87/87 21/21/21
f 69/69/69 22/22/22 21/21/21
f 21/21/21 87/87/87 19/19/19
f 19/19/19 88/88/88 16/16/16
f 106/106/106 15/15/15 17/17/17
f 18/18/18 17/17/17 15/15/15
f 48/48/48 10/10/10 13/13/13
f 14/14/14 13/13/13 10/10/10
f 130/130/129 8/8/8 11/11/11
f 3/3/3 103/103/103 105/105/105
f 9/9/9 70/70/70 5/5/5
f 6/6/6 46/46/46 7/7/7
f 7/7/7 46/46/46 4/4/4
f 4/4/4 47/47/47 1/1/1
f 2/2/2 103/103/103 3/3/3
f 9/9/9 8/8/8 130/130/129
f 105/105/105 29/29/29 28/28/28
f 105/105/105 104/104/104 29/29/29
f 116/116/115 34/34/34 36/36/36
f 115/115/114 37/37/37 39/39/39
f 31/31/31 19/19/19 40/40/40
f 51/51/51 43/43/43 45/45/45
f 111/111/50 50/50/50 51/51/51
f 99/99/99 15/15/15 52/52/52
f 114/114/113 55/55/55 57/57/57
f 128/128/127 58/58/58 60/60/60
f 92/92/92 10/10/10 61/61/61
f 127/127/126 64/64/64 66/66/66
f 126/126/125 71/71/71 73/73/73
f 82/82/82 5/5/5 74/74/74
f 74/74/74 7/7/7 75/75/75
f 125/125/124 76/76/76 78/78/78
f 124/124/123 79/79/79 81/81/81
f 61/61/61 8/8/8 82/82/82
f 122/122/121 83/83/83 85/85/85
f 121/121/120 89/89/89 91/91/91
f 52/52/52 14/14/14 92/92/92
f 120/120/119 93/93/93 95/95/95
f 119/119/118 96/96/96 98/98/98
f 40/40/40 18/18/18 99/99/99
f 118/118/117 100/100/100 102/102/102
f 117/117/116 108/108/108 110/110/110
f 41/41/41 69/69/69 33/33/33
f 57/57/57 56/56/56 113/113/112
f 60/60/60 59/59/59 114/114/113
f 45/45/45 44/44/44 115/115/114
f 39/39/39 38/38/38 116/116/115
f 36/36/36 35/35/35 117/117/116
f 110/110/110 109/109/109 118/118/117
f 102/102/102 101/101/101 119/119/118
f 98/98/98 97/97/97 120/120/119
f 95/95/95 94/94/94 121/121/120
f 91/91/91 90/90/90 122/122/121
f 131/131/130 123/123/122 124/124/123
f 81/81/81 80/80/80 125/125/124
f 78/78/78 77/77/77 126/126/125
f 73/73/73 72/72/72 127/127/126
f 66/66/66 65/65/65 128/128/127
f 63/63/63 3/3/3 62/62/62
f 75/75/75 4/4/4 63/63/63
f 54/54/54 28/28/28 53/53/53
f 62/62/62 105/105/105 54/54/54
f 42/42/42 25/25/25 41/41/41
f 53/53/53 26/26/26 42/42/42
f 33/33/33 21/21/21 31/31/31
f 113/113/112 112/112/111 111/111/50
